<?xml version="1.0" standalone="no"?>
<!DOCTYPE svg PUBLIC "-//W3C//DTD SVG 20010904//EN"
 "http://www.w3.org/TR/2001/REC-SVG-20010904/DTD/svg10.dtd">
<svg version="1.0" xmlns="http://www.w3.org/2000/svg"
 width="494.000000pt" height="505.000000pt" viewBox="0 0 494.000000 505.000000"
 preserveAspectRatio="xMidYMid meet">

<g transform="translate(0.000000,505.000000) scale(0.100000,-0.100000)"
fill="#000000" stroke="none">
<path d="M1550 4995 c0 -28 85 -158 164 -249 l51 -59 -120 5 c-131 6 -192 23
-278 78 -26 16 -50 30 -53 30 -18 0 63 -117 123 -178 58 -57 69 -74 55 -78
-63 -18 -191 -95 -273 -162 -86 -72 -138 -122 -128 -122 2 0 37 16 78 36 70
34 187 67 204 57 14 -8 7 -22 -62 -125 -79 -118 -160 -211 -221 -253 -40 -28
-41 -30 -20 -39 25 -11 168 6 234 29 22 8 44 11 49 6 11 -11 -10 -141 -33
-203 -19 -50 -61 -126 -96 -175 -33 -46 46 -3 116 63 37 35 70 64 74 64 20 0
-33 -131 -75 -182 -16 -21 -26 -38 -22 -38 4 0 32 14 62 30 30 17 58 30 63 30
5 0 9 -15 8 -32 -1 -18 -1 -58 0 -88 l2 -55 16 47 c9 26 20 50 24 53 4 4 16
-11 28 -34 11 -23 23 -41 26 -41 3 0 2 5 -2 12 -4 7 -3 8 5 4 6 -4 10 -15 9
-24 -3 -16 1 -18 37 -21 8 0 15 -9 15 -19 0 -10 11 -29 25 -42 13 -12 22 -26
19 -31 -2 -4 7 -16 22 -26 14 -10 44 -33 65 -52 21 -18 39 -29 39 -23 0 5 -7
16 -17 23 -36 30 -163 227 -163 253 0 4 9 2 19 -4 40 -21 44 -9 9 28 -42 44
-116 152 -104 152 3 0 26 -27 51 -60 50 -65 137 -131 170 -129 13 1 10 4 -11
10 -54 15 -109 88 -139 181 -14 46 -28 101 -31 123 l-6 40 37 -64 c31 -55 35
-69 31 -110 l-5 -46 15 47 c20 64 62 98 120 98 56 0 99 -22 124 -63 11 -18 20
-26 20 -18 0 7 -17 30 -38 51 -62 62 -136 65 -199 7 l-22 -20 -6 25 c-4 14 -5
40 -3 59 3 30 7 34 36 37 41 4 133 -22 192 -54 l45 -25 -29 24 c-32 28 -140
67 -184 67 -41 0 -55 14 -49 46 15 79 40 176 59 234 20 62 64 160 72 160 2 0
23 -48 46 -106 41 -102 102 -205 169 -288 38 -47 38 -44 6 28 -28 64 -31 80
-10 52 19 -25 19 -12 1 17 -21 31 -86 229 -86 261 0 14 5 26 11 26 11 0 255
-245 297 -299 l27 -34 -25 -16 c-14 -8 -48 -38 -77 -66 -43 -42 -50 -55 -46
-77 3 -15 8 -26 12 -24 4 3 29 33 56 67 32 41 41 58 27 50 -35 -19 -25 -5 20
28 l42 31 23 -22 24 -22 -3 34 c-3 34 -1 36 64 67 114 55 109 56 155 -34 23
-43 44 -89 48 -103 7 -23 6 -23 -24 8 -104 104 -304 35 -325 -113 l-6 -40 14
43 c31 94 95 143 190 145 69 1 114 -25 144 -83 12 -24 22 -40 23 -35 1 6 4 -1
9 -15 l7 -25 7 30 c4 17 11 39 16 50 7 17 9 16 9 -10 2 -49 21 -8 21 45 1 42
2 44 15 26 8 -11 18 -35 21 -53 5 -29 1 -42 -25 -76 -73 -98 -130 -241 -175
-441 -14 -59 -26 -109 -28 -111 -2 -1 -29 -23 -62 -49 -59 -48 -119 -79 -214
-110 -44 -15 -58 -16 -89 -5 -73 23 -206 94 -252 133 -32 28 -38 31 -18 10 15
-17 27 -33 27 -37 0 -17 -120 -38 -265 -46 -159 -10 -242 -26 -280 -56 -13
-10 -5 -8 25 5 48 21 105 27 95 10 -3 -5 -1 -10 5 -10 6 0 9 -4 5 -9 -3 -5 3
-12 14 -16 26 -8 34 -30 32 -95 l-1 -55 26 30 26 30 -21 -37 c-12 -20 -28 -56
-36 -80 l-14 -43 5 45 c6 53 -19 107 -59 130 -24 13 -28 13 -51 -9 -56 -53
-114 -204 -117 -306 l-1 -40 -10 40 c-6 26 -6 65 2 114 5 41 9 76 7 78 -2 2
-12 -18 -22 -44 -33 -89 -46 -112 -68 -115 -24 -3 -35 -41 -38 -138 l-1 -55
-8 40 c-11 49 5 198 26 262 24 71 72 158 117 211 l41 47 -43 -40 c-48 -46
-111 -163 -141 -266 -17 -56 -27 -74 -53 -90 -24 -16 -26 -19 -9 -14 21 6 23
5 13 -13 -6 -12 -11 -63 -11 -114 l-1 -93 -19 37 c-11 20 -24 39 -29 43 -15 8
-31 -28 -25 -56 5 -22 4 -21 -11 5 -16 27 -16 31 4 66 27 49 27 66 -1 38 -13
-13 -23 -25 -23 -28 -1 -3 -8 -19 -17 -36 -10 -17 -13 -35 -9 -40 4 -5 0 -17
-10 -27 -11 -9 -19 -15 -19 -12 0 3 -28 -18 -62 -47 -35 -30 -79 -65 -98 -79
-19 -14 -128 -94 -242 -178 -114 -84 -212 -150 -217 -147 -16 10 -51 -92 -55
-161 -4 -69 12 -153 24 -133 6 10 68 -113 75 -150 2 -8 4 -17 5 -20 1 -3 2 -8
1 -13 0 -4 4 -7 9 -7 6 0 10 5 10 11 0 6 12 9 27 7 25 -3 29 -9 36 -51 9 -56
43 -114 97 -167 27 -27 35 -41 28 -48 -8 -8 -5 -9 11 -5 37 10 23 -7 -24 -27
-24 -10 -65 -38 -90 -61 l-46 -42 7 54 c7 67 -11 248 -27 263 -9 8 -10 0 -3
-34 8 -42 14 -390 6 -390 -1 0 -17 7 -35 16 -38 19 -32 13 51 -56 34 -28 78
-58 97 -66 l34 -14 -15 35 c-19 46 -18 48 16 40 16 -4 38 -4 49 0 17 5 19 10
11 31 -6 14 -10 37 -10 51 0 25 2 25 54 21 70 -6 106 -29 106 -68 0 -49 -16
-78 -49 -85 -39 -8 -46 -18 -65 -91 -25 -98 -18 -105 25 -22 49 92 80 128 111
128 46 0 54 15 25 50 -30 35 -26 56 15 84 25 18 90 21 118 6 17 -9 20 -6 26
17 14 64 27 94 47 108 32 22 74 19 91 -8 18 -28 46 -133 49 -187 1 -22 6 -40
11 -40 5 0 3 -7 -4 -15 -7 -8 -27 -15 -46 -15 -40 0 -52 19 -64 99 -17 118
-50 146 -50 43 0 -68 -4 -75 -50 -96 -19 -9 -26 -14 -15 -10 11 3 36 8 56 11
l37 5 66 -137 c36 -76 66 -143 66 -149 0 -6 -4 -5 -9 3 -7 10 -9 7 -8 -12 1
-14 5 -23 10 -20 13 8 7 -15 -9 -31 -8 -9 -29 -16 -45 -16 -28 0 -33 7 -82
107 -29 59 -56 115 -62 125 -12 22 -30 24 -22 3 4 -8 1 -17 -5 -21 -7 -5 -8
-2 -4 7 4 8 -1 3 -12 -11 -11 -13 -18 -29 -15 -34 3 -5 1 -6 -5 -2 -7 4 -12 2
-12 -3 0 -6 -9 -11 -20 -11 -13 0 -20 -7 -20 -19 0 -12 -8 -21 -22 -24 -13 -2
7 -5 44 -6 53 -1 72 -5 88 -21 11 -11 20 -24 20 -29 0 -5 3 -16 6 -25 4 -11 0
-16 -13 -16 -12 0 -25 -11 -32 -26 l-11 -26 -31 26 c-21 18 -42 26 -70 26
l-39 0 0 -51 c0 -37 5 -55 18 -67 10 -10 27 -37 36 -62 10 -25 22 -53 27 -62
5 -10 9 -28 9 -40 0 -17 3 -19 9 -10 6 11 10 10 15 -4 3 -9 4 -19 1 -22 -3 -3
-5 -1 -5 4 0 11 -55 12 -66 1 -4 -4 -2 -7 4 -7 6 0 19 -15 28 -32 l17 -33 -21
18 c-19 17 2 -26 63 -133 28 -48 -22 -46 885 -48 597 -2 849 1 845 8 -4 6 -16
8 -27 4 -40 -12 -147 125 -241 311 -39 78 -66 106 -99 102 -17 -1 -32 15 -74
80 l-53 82 36 22 37 23 53 -59 c29 -32 82 -108 116 -167 34 -60 82 -140 107
-178 47 -74 178 -228 195 -229 5 -1 -9 18 -31 42 -67 71 -73 84 -20 47 27 -19
62 -47 78 -62 28 -26 36 -28 107 -27 l76 2 -60 7 c-75 9 -119 26 -109 42 4 7
3 8 -4 4 -12 -7 -38 39 -33 58 1 5 -5 6 -14 2 -9 -3 -13 -2 -10 4 4 6 -33 48
-81 95 -48 47 -85 88 -81 91 3 3 21 -9 39 -28 65 -65 200 -143 334 -193 74
-28 240 -75 292 -82 57 -9 34 4 -40 22 -109 26 -319 122 -438 199 -141 92
-229 166 -345 288 l-97 103 41 8 c43 9 85 -6 128 -46 13 -11 26 -18 29 -14 7
6 -77 63 -107 72 -15 5 -16 10 -7 31 13 29 48 40 76 25 11 -6 22 -8 26 -6 3 3
4 2 1 -1 -2 -4 7 -20 21 -36 13 -17 47 -69 76 -117 77 -131 133 -205 196 -259
71 -61 132 -103 142 -97 4 2 38 -2 76 -10 76 -16 306 -19 389 -5 28 4 52 6 53
5 2 -2 -38 -17 -90 -34 -93 -30 -104 -44 -12 -16 27 8 57 12 68 9 10 -3 16 -2
13 3 -9 15 222 95 298 103 l70 7 -55 1 c-49 2 -140 -14 -195 -34 -13 -4 -10 1
10 18 17 13 50 43 74 66 24 23 52 44 62 47 11 4 19 10 19 15 0 4 16 11 36 14
19 4 37 13 40 21 3 8 18 17 34 20 16 3 34 13 41 21 6 8 19 14 28 14 9 1 27 7
40 14 l23 13 -21 6 c-30 7 -114 -1 -184 -18 -88 -22 -202 -79 -295 -146 -46
-34 -114 -77 -150 -96 -64 -33 -70 -35 -138 -29 -92 8 -199 38 -275 77 -33 16
-65 27 -71 23 -6 -4 -8 -3 -4 4 3 6 2 14 -4 17 -6 4 -10 3 -9 -2 4 -24 -4 -24
-31 2 -16 15 -27 32 -24 37 3 5 0 7 -6 6 -16 -4 -220 297 -225 331 -1 8 -16
19 -33 23 -31 8 -32 9 -16 32 17 27 71 56 103 56 39 0 97 -46 120 -94 11 -25
21 -51 21 -58 0 -9 3 -9 11 -1 7 7 8 19 3 30 -4 10 -9 32 -10 48 -5 75 -13
135 -19 144 -15 25 31 42 62 23 7 -4 35 -75 63 -157 73 -213 110 -268 200
-300 80 -28 150 -30 231 -5 61 18 81 30 128 77 l56 56 -58 -52 c-32 -28 -62
-51 -66 -51 -5 0 -22 28 -39 63 -17 34 -43 74 -57 90 -14 15 -23 32 -20 37 4
6 -1 7 -11 3 -12 -4 -15 -2 -12 8 3 8 13 13 22 13 19 -2 22 12 4 19 -7 2 -2 5
12 6 39 1 75 7 86 13 13 8 93 1 130 -10 23 -7 36 -7 44 1 10 9 11 3 6 -28 -4
-28 -3 -34 4 -20 12 28 12 110 -1 179 -14 77 -3 102 73 162 33 27 64 57 70 67
9 17 15 13 61 -39 109 -124 166 -163 239 -164 51 0 77 12 132 59 47 40 48 41
125 41 85 0 85 0 202 -101 72 -62 88 -66 153 -36 106 49 156 125 156 240 0 56
-15 76 -76 96 -45 15 -49 19 -52 51 -4 41 16 60 65 60 49 0 73 29 73 90 0 53
-23 126 -48 150 -14 13 -15 13 -6 0 6 -8 15 -27 22 -42 11 -26 10 -27 -8 -16
-11 7 -20 16 -20 20 0 4 -7 5 -15 2 -13 -5 -17 1 -14 22 0 4 -4 10 -11 14 -6
4 -12 14 -14 22 -1 9 -8 23 -15 32 -12 14 -6 28 39 99 117 181 118 183 124
260 16 219 26 387 26 421 0 38 0 39 -20 21 -16 -15 -22 -16 -35 -5 -35 29 -45
68 -45 169 0 55 -3 107 -6 115 -6 15 -7 15 -18 0 -11 -14 -17 -6 -43 52 -17
38 -34 80 -38 94 -4 14 -17 36 -29 49 -20 23 -20 24 -1 17 12 -4 7 5 -15 23
-19 17 -39 31 -45 31 -18 1 -75 86 -75 112 0 14 8 32 18 39 15 13 16 12 4 -3
-8 -9 -12 -25 -9 -35 4 -15 5 -15 6 3 1 24 19 44 39 44 25 0 212 -170 212
-192 0 -8 19 -52 41 -99 l42 -84 -1 -115 c-1 -63 1 -108 5 -100 3 8 23 56 43
105 48 112 97 320 106 445 10 147 -21 381 -52 387 -8 2 -7 -20 4 -67 14 -65
14 -71 -2 -89 -17 -19 -17 -19 3 -14 24 6 25 3 9 -32 -8 -18 -14 -22 -20 -13
-4 8 -8 -3 -8 -28 0 -41 -43 -127 -87 -176 -17 -19 -18 -17 -30 65 -12 85 -26
130 -84 271 -39 93 -101 166 -185 216 -33 18 -76 47 -96 62 -91 70 -262 126
-402 132 -293 12 -603 -174 -731 -438 -78 -159 -109 -337 -86 -486 16 -99 55
-222 92 -286 19 -35 26 -55 19 -59 -15 -9 -47 21 -77 72 -29 50 -51 58 -27 11
21 -42 50 -79 56 -73 3 3 5 -2 5 -10 0 -8 -3 -13 -5 -10 -3 3 -11 -3 -19 -13
-13 -15 -14 -15 -9 0 3 9 -2 19 -11 22 -9 4 -13 9 -10 13 4 3 13 0 22 -7 8 -6
-2 13 -23 44 -20 31 -38 52 -40 47 -2 -6 6 -24 17 -40 12 -16 21 -32 21 -36 0
-14 -31 19 -46 48 -9 16 -18 27 -20 24 -10 -9 41 -94 54 -89 17 5 27 -27 12
-41 -10 -10 -12 -8 -7 6 4 9 4 17 2 17 -6 0 -36 -58 -34 -66 0 -3 -2 -8 -5
-11 -2 -3 -2 10 0 28 3 19 6 39 6 44 2 15 -52 98 -59 91 -3 -3 7 -26 21 -51
16 -27 25 -53 21 -64 -7 -23 -32 -35 -32 -16 0 17 -64 117 -70 111 -3 -3 6
-26 21 -52 14 -25 23 -50 20 -55 -3 -5 3 -6 12 -2 13 5 15 3 8 -8 -4 -8 -9
-21 -9 -29 0 -8 -5 -15 -12 -15 -6 0 -15 -4 -20 -9 -4 -5 -3 -6 3 -3 7 4 14
-2 17 -14 4 -15 2 -19 -9 -15 -8 3 -13 2 -9 -3 3 -5 0 -11 -6 -13 -7 -2 -3
-17 11 -41 27 -46 14 -48 -22 -5 -15 18 -28 28 -28 23 0 -6 17 -28 39 -50 33
-34 71 -93 71 -109 0 -3 -15 0 -32 5 -19 6 -58 37 -90 72 -32 34 -58 56 -58
50 0 -7 4 -14 10 -18 5 -3 19 -20 32 -38 l23 -32 -29 23 c-59 45 -161 174
-200 250 -17 32 -17 35 0 53 21 23 12 26 -10 3 -15 -14 -17 -14 -22 1 -4 10 1
22 12 30 11 8 14 15 9 15 -6 0 -16 -5 -22 -11 -9 -9 -16 -2 -27 26 -9 21 -14
40 -11 43 3 3 -1 12 -8 21 -47 56 -92 409 -54 424 10 4 10 6 0 6 -16 1 -17 41
-2 41 8 0 8 4 -1 15 -9 10 -9 34 -1 97 9 77 55 246 70 258 6 5 9 14 17 55 15
78 153 277 271 393 23 23 40 42 35 42 -4 0 4 9 18 20 23 18 26 18 45 2 20 -17
20 -17 2 4 -17 21 -17 22 30 59 27 21 53 43 58 49 17 17 -49 -25 -72 -47 l-23
-20 -54 59 c-31 32 -55 62 -56 67 0 12 51 8 104 -8 27 -8 52 -12 55 -9 9 10
-81 83 -116 95 -38 12 -37 9 -17 74 10 32 16 87 16 153 1 113 -15 156 -26 75
-8 -54 -46 -139 -61 -136 -5 2 -11 22 -13 45 -7 120 -23 173 -82 278 -33 58
-64 112 -69 120 -7 11 -10 -5 -11 -55 -2 -90 -12 -157 -25 -162 -5 -1 -23 22
-39 52 -15 30 -47 74 -70 97 -34 36 -271 215 -299 227 -4 1 19 -50 52 -115 56
-107 70 -144 56 -144 -3 0 -31 13 -63 29 -81 41 -213 86 -312 106 -101 21
-274 79 -311 106 -27 19 -39 23 -39 14z m798 -957 l34 -36 -49 -26 -50 -25
-24 102 c-13 56 -25 109 -27 117 -3 8 15 -10 38 -40 24 -30 58 -72 78 -92z
m102 -2 c0 -8 -12 -17 -27 -21 -28 -7 -39 2 -65 50 -10 18 -10 19 6 6 15 -13
14 -8 -4 40 l-20 54 55 -58 c30 -32 55 -64 55 -71z m1379 -368 c9 -8 11 -9 7
-1 -8 15 91 16 100 1 4 -7 9 -5 15 3 7 11 12 12 28 2 15 -10 20 -10 24 0 3 9
8 9 21 -2 9 -8 19 -11 23 -8 3 4 14 2 24 -4 14 -7 18 -16 13 -34 -4 -16 -2
-25 6 -25 6 0 9 4 6 9 -8 12 3 41 15 41 6 0 24 -14 40 -32 27 -27 30 -28 24
-9 -6 20 -5 22 13 12 11 -6 22 -21 26 -34 5 -22 36 -34 36 -15 0 12 49 -23 96
-67 22 -21 33 -39 28 -46 -4 -7 -3 -9 3 -6 24 15 125 -147 164 -263 28 -82 33
-112 36 -215 2 -72 0 -112 -5 -100 -5 11 -10 49 -11 85 -1 36 -6 83 -11 105
-5 22 -11 54 -14 71 -9 51 -32 98 -41 84 -4 -7 -3 -15 2 -19 25 -16 46 -232
24 -246 -4 -2 -36 24 -71 57 -113 104 -143 115 -172 61 -30 -56 -19 -100 41
-157 23 -22 31 -39 32 -65 1 -21 3 -28 6 -17 8 31 42 -50 42 -99 l0 -40 -17
32 c-10 18 -71 87 -136 153 -98 98 -125 120 -148 120 -69 0 -103 -98 -55 -157
43 -53 78 -113 84 -146 3 -17 9 -36 13 -42 9 -11 13 -45 11 -83 -1 -22 -4 -21
-50 20 -41 35 -48 45 -38 58 9 12 9 13 -3 2 -12 -10 -25 -1 -79 50 -61 60 -62
60 -19 11 25 -28 75 -78 112 -109 36 -32 105 -104 152 -161 47 -56 107 -119
133 -140 60 -48 58 -45 66 -120 5 -45 3 -68 -6 -79 -10 -12 -9 -13 3 -9 12 5
19 -6 28 -45 14 -58 19 -242 7 -282 -7 -26 -11 -28 -55 -28 -26 1 -65 7 -87
15 -43 16 -63 12 -21 -4 33 -13 34 -20 2 -14 -49 10 -77 62 -101 188 -16 86
-17 115 -5 130 7 9 10 18 7 22 -4 3 -2 12 4 20 16 19 -10 17 -76 -6 -46 -16
-56 -17 -66 -5 -8 10 -26 12 -69 7 l-58 -6 -21 41 c-25 48 -28 92 -7 92 26 0
29 21 6 45 -12 13 -20 30 -17 37 7 22 -22 67 -49 74 -17 4 -31 1 -44 -11 -11
-10 -20 -13 -20 -8 0 14 20 29 47 35 41 11 81 -27 119 -110 l35 -77 81 0 c79
0 81 -1 109 -35 16 -19 29 -29 29 -23 0 25 116 -6 135 -37 15 -24 22 -6 13 33
-12 48 -36 80 -54 73 -7 -3 -43 27 -80 67 -36 40 -70 72 -75 72 -4 0 -14 6
-21 14 -11 11 -11 13 1 6 9 -5 12 -3 9 6 -3 8 -12 13 -21 11 -12 -2 -15 2 -10
14 5 13 3 15 -7 9 -9 -6 -11 -4 -6 4 9 14 -21 51 -41 51 -7 0 -13 6 -13 13 0
16 -54 49 -65 39 -5 -4 -5 -1 -1 6 4 6 3 12 -2 12 -16 0 -102 81 -117 111 -20
39 -19 59 7 86 12 13 16 23 10 23 -15 0 -40 -39 -42 -65 -4 -42 1 -57 38 -98
52 -57 79 -104 87 -153 9 -58 -25 -114 -38 -64 -3 11 -9 20 -14 19 -4 -1 -21
1 -36 6 -38 10 -68 -5 -97 -50 -24 -35 -27 -36 -70 -31 -60 8 -150 46 -150 64
0 9 -6 12 -16 8 -21 -8 -70 24 -52 35 9 6 7 9 -9 9 -12 0 -25 5 -28 10 -3 6 1
10 9 10 9 0 16 4 16 9 0 5 -9 7 -19 4 -31 -8 -115 90 -124 144 -1 10 -5 23 -9
28 -3 6 -11 28 -17 50 -17 61 -23 65 -92 73 -59 7 -64 9 -65 32 -1 14 -2 27
-3 30 -10 22 -7 40 6 40 15 0 15 2 0 18 -30 33 3 222 60 335 13 26 28 47 34
47 5 0 8 4 4 10 -7 11 31 73 74 119 17 18 31 35 31 38 0 3 10 13 23 23 17 14
25 16 37 7 13 -10 13 -10 2 4 -10 13 -9 19 3 29 9 7 18 10 22 6 3 -3 11 4 18
17 6 12 17 21 25 19 7 -2 19 7 27 18 8 12 21 19 28 16 7 -2 16 2 19 9 3 9 12
12 22 8 12 -4 15 -3 10 5 -5 8 0 12 13 12 12 0 21 5 21 11 0 6 9 8 21 4 15 -5
19 -4 15 4 -7 10 6 16 28 12 4 -1 14 3 21 9 7 6 20 8 29 4 9 -4 16 -1 16 6 0
8 11 11 30 8 17 -3 30 -1 30 4 0 12 14 10 29 -4z m-404 -130 c-51 -41 -143
-133 -178 -178 -35 -45 -23 -9 16 48 32 48 30 66 -5 36 -20 -18 -21 -18 -15 0
6 14 3 17 -8 12 -25 -9 -2 26 41 63 39 35 52 35 34 1 -11 -20 -8 -20 26 6 l39
29 -18 -27 c-26 -41 -21 -43 21 -10 36 28 72 51 82 52 2 0 -13 -14 -35 -32z
m-1851 -83 l31 -40 -52 45 c-29 25 -52 51 -53 59 0 18 30 -8 74 -64z m117
-182 c13 -15 12 -15 -8 -4 -24 12 -29 21 -14 21 5 0 15 -7 22 -17z m779 -511
c7 -37 17 -75 22 -85 5 -10 8 -21 6 -23 -8 -8 -170 -35 -176 -30 -3 3 5 6 17
6 14 0 20 4 15 11 -4 7 0 9 14 5 26 -9 40 23 17 40 -10 8 -12 14 -6 19 6 3 11
1 11 -5 0 -6 4 -8 10 -5 6 4 5 11 -3 19 -6 8 -14 11 -17 7 -10 -14 -129 -83
-167 -96 -21 -8 -58 -14 -83 -15 -33 0 -58 -8 -88 -27 -62 -41 -37 -55 35 -19
50 24 74 29 197 37 78 5 159 13 181 19 54 13 51 14 65 -20 10 -23 10 -33 1
-44 -9 -11 -9 -16 0 -22 7 -4 9 -3 5 4 -3 6 -2 13 3 16 5 3 11 -3 14 -14 6
-22 -16 -45 -33 -35 -6 4 -9 1 -8 -7 2 -7 -3 -12 -10 -10 -6 1 -11 -1 -10 -5
2 -5 -1 -9 -6 -10 -5 -1 -12 -7 -16 -13 -4 -7 -63 -44 -131 -84 -84 -48 -128
-80 -137 -98 -12 -26 -67 -51 -132 -62 -19 -3 -25 -9 -23 -27 1 -13 -1 -18 -3
-12 -4 10 -11 10 -27 1 -25 -13 -130 -37 -164 -38 -14 0 -23 6 -23 15 0 8 -7
15 -15 15 -20 0 -19 5 10 99 14 44 41 103 60 132 41 60 41 77 0 23 -31 -41
-95 -179 -95 -206 0 -22 -16 -24 -24 -3 -3 8 -11 14 -17 13 -7 -2 -21 19 -31
46 -18 48 -18 49 2 83 28 48 25 77 -15 161 -47 96 -61 170 -45 240 6 28 15 52
19 52 13 0 147 -152 165 -187 20 -41 26 -41 23 -4 -1 16 -5 27 -8 25 -3 -2
-12 9 -18 24 l-13 27 23 -20 23 -20 -24 40 c-13 22 -27 44 -32 50 -4 5 -8 26
-8 47 0 33 6 42 53 79 40 32 53 38 55 26 2 -9 -2 -25 -7 -36 -14 -25 -14 -31
-1 -31 17 0 50 81 50 123 0 45 15 41 25 -6 21 -97 105 -174 158 -145 12 7 25
11 30 10 4 -1 7 3 7 8 0 6 7 10 16 10 9 0 25 11 36 25 11 14 26 25 34 25 8 0
14 4 14 8 0 5 12 13 28 20 25 11 26 11 2 7 l-25 -5 23 12 c14 7 21 17 17 26
-5 13 -3 13 11 2 13 -12 17 -11 25 1 5 8 7 20 4 27 -3 9 1 11 15 7 11 -4 20
-2 20 4 0 6 5 11 11 11 16 0 39 26 40 47 1 10 5 -35 9 -100 4 -65 13 -148 20
-185z m-720 274 c0 -2 -7 -7 -16 -10 -8 -3 -12 -2 -9 4 6 10 25 14 25 6z m-45
-36 c-3 -5 -12 -10 -18 -10 -7 0 -6 4 3 10 19 12 23 12 15 0z m2537 -133 c63
-67 125 -143 138 -167 12 -25 40 -70 60 -101 21 -31 55 -88 75 -125 19 -38 44
-83 55 -99 18 -28 18 -34 4 -75 -25 -77 -96 -230 -104 -225 -9 6 -22 66 -25
121 -1 22 -6 50 -9 62 -10 32 17 39 50 13 15 -12 29 -19 32 -16 11 11 -133
255 -161 272 -7 4 -5 -3 4 -17 9 -14 14 -31 11 -39 -6 -17 -65 88 -64 114 1
14 -1 16 -7 6 -6 -9 -14 -4 -30 22 -26 42 -27 54 -3 36 15 -13 16 -12 3 3 -7
10 -17 16 -21 13 -4 -2 -18 7 -31 21 -20 21 -21 27 -9 34 14 9 7 14 -12 11 -5
0 -7 5 -5 12 1 6 -4 11 -11 9 -8 -1 -11 1 -8 6 3 5 -8 22 -24 37 -17 16 -30
36 -30 46 0 9 -7 19 -14 22 -8 3 -22 20 -31 38 -16 30 -16 32 7 57 l23 27 -24
-20 c-13 -11 -27 -29 -32 -40 -7 -18 -8 -17 -8 7 -1 30 30 58 64 58 14 0 60
-41 137 -123z m-2592 76 c-41 -46 -66 -103 -75 -168 -11 -71 -19 -78 -26 -20
-5 38 -1 60 13 92 21 46 93 133 110 133 5 0 -5 -17 -22 -37z m-147 -18 c-3 -9
-8 -14 -10 -11 -3 3 -2 9 2 15 9 16 15 13 8 -4z m3126 -9 c7 -9 9 -39 4 -91
l-6 -78 -19 36 c-14 29 -17 48 -12 92 7 57 13 65 33 41z m-248 -23 c13 -16 12
-17 -3 -4 -17 13 -22 21 -14 21 2 0 10 -8 17 -17z m-1211 -137 c0 -2 -7 -6
-15 -10 -8 -3 -15 -1 -15 4 0 6 7 10 15 10 8 0 15 -2 15 -4z m0 -57 c0 -11 -4
-17 -10 -14 -5 3 -10 13 -10 21 0 8 5 14 10 14 6 0 10 -9 10 -21z m-783 -35
c-3 -3 -12 -4 -19 -1 -8 3 -5 6 6 6 11 1 17 -2 13 -5z m788 -4 c3 -5 2 -10 -4
-10 -5 0 -13 5 -16 10 -3 6 -2 10 4 10 5 0 13 -4 16 -10z m3 -45 c-3 -3 -9 2
-12 12 -6 14 -5 15 5 6 7 -7 10 -15 7 -18z m-661 -153 c-10 -10 -14 -22 -10
-27 5 -4 3 -5 -4 -1 -6 3 -16 -2 -22 -11 -5 -10 -12 -17 -15 -15 -3 1 -6 -1
-5 -4 0 -3 -46 -34 -102 -68 -83 -49 -105 -67 -112 -91 -11 -37 -30 -394 -29
-533 1 -150 19 -281 58 -414 39 -136 92 -248 137 -289 17 -16 27 -29 21 -29
-16 0 -89 82 -112 125 -57 108 -95 228 -113 355 -12 90 -13 168 -1 579 l7 254
120 64 c66 35 136 77 155 93 40 33 50 38 27 12z m644 -19 c13 -16 12 -17 -3
-4 -17 13 -22 21 -14 21 2 0 10 -8 17 -17z m-1592 -39 c12 -15 21 -41 21 -60
0 -31 -3 -34 -30 -34 -17 0 -37 -9 -49 -21 l-19 -21 -11 20 c-20 37 -13 91 14
117 31 32 48 31 74 -1z m1376 -33 c-3 -12 -11 -19 -16 -15 -6 4 -6 11 1 19 7
8 8 20 4 27 -5 10 -4 10 6 2 7 -7 9 -21 5 -33z m915 -21 c27 -27 25 -43 -9
-63 -29 -17 -30 -17 -45 5 -21 29 -20 55 2 67 24 15 29 14 52 -9z m-1677 -133
c3 10 5 -1 6 -24 1 -39 -1 -42 -31 -48 -18 -4 -36 -13 -40 -19 -6 -8 -8 -7 -8
2 0 6 -5 12 -11 12 -6 0 -8 -9 -4 -20 3 -11 2 -20 -4 -20 -5 0 -16 -3 -25 -6
-11 -4 -16 0 -16 12 0 14 -6 11 -21 -13 -17 -27 -24 -31 -39 -23 -26 14 -33
12 -26 -6 4 -11 -1 -18 -14 -21 -18 -5 -24 -15 -21 -36 1 -4 -5 -10 -13 -13
-8 -3 -12 -12 -9 -20 3 -8 -1 -14 -11 -14 -9 0 -16 -4 -16 -10 0 -18 -15 -11
-25 13 -6 12 -16 21 -23 20 -7 -2 -12 3 -12 10 0 7 -9 18 -20 25 -11 7 -20 19
-20 28 0 8 -4 12 -10 9 -6 -4 -7 1 -3 10 3 9 7 26 8 38 1 12 3 29 4 37 1 12 6
10 19 -5 23 -28 52 -39 52 -20 0 8 9 15 21 15 11 0 17 -4 14 -10 -3 -5 3 -10
14 -10 12 0 21 5 21 11 0 5 -5 7 -12 3 -7 -4 -8 -3 -4 5 4 6 11 9 16 6 5 -3
11 -1 15 5 4 6 11 8 16 4 5 -3 16 0 24 6 8 6 19 9 24 6 5 -4 13 -1 17 5 4 8 9
7 15 -2 6 -10 9 -11 9 -1 0 6 7 12 15 12 8 0 15 7 15 15 0 24 29 17 42 -10 6
-14 16 -25 22 -25 6 0 5 5 -2 12 -16 16 -16 42 0 32 7 -5 9 -2 5 9 -8 21 15
29 30 10 10 -12 12 -12 16 4z m-7 -338 c-8 -50 -19 -96 -25 -102 -6 -6 -30
-10 -55 -9 -25 1 -48 -3 -52 -10 -5 -8 -2 -9 12 -4 15 6 16 4 7 -5 -18 -19
-79 24 -93 66 -6 19 -8 40 -5 46 4 6 -2 21 -14 33 l-21 23 21 18 c18 17 18 21
5 30 -20 15 -10 52 16 61 11 3 36 17 55 30 20 13 43 24 52 24 9 0 36 14 61 31
l45 30 3 -85 c1 -46 -4 -126 -12 -177z m-551 230 c4 -5 -1 -19 -10 -29 -16
-17 -15 -18 14 -25 20 -4 28 -11 24 -21 -3 -8 -1 -14 5 -14 20 0 20 -40 -2
-62 -17 -20 -29 -23 -68 -20 -53 4 -54 5 -35 79 21 79 54 122 72 92z m135 -10
c0 -5 -4 -9 -8 -9 -5 0 -9 7 -9 15 0 8 4 12 9 9 4 -3 8 -9 8 -15z m-477 -21
c-4 -20 -2 -29 4 -25 11 7 11 -18 0 -43 -3 -8 -3 -30 1 -48 9 -43 -3 -265 -16
-288 -8 -14 -21 -17 -61 -15 -45 2 -54 -1 -81 -27 -27 -27 -30 -37 -30 -94 0
-106 -16 -131 -55 -88 -10 11 -28 20 -40 20 -12 0 -37 7 -55 16 -48 24 -155
15 -212 -19 l-43 -25 -49 25 -49 25 6 53 c3 31 1 57 -5 63 -6 6 -10 39 -10 74
l2 63 58 55 c176 168 443 304 609 309 31 1 32 0 26 -31z m189 -5 c12 -11 18
-30 18 -59 0 -44 -13 -66 -24 -38 -4 11 -14 14 -35 9 -24 -5 -30 -2 -36 14 -7
22 1 58 17 79 14 17 38 15 60 -5z m444 -137 c-10 -16 -12 -26 -5 -28 7 -2 6
-8 -3 -16 -13 -10 -15 -7 -16 18 0 18 6 34 16 40 25 14 26 12 8 -14z m2271
-41 c17 -67 16 -85 -4 -85 -19 0 -53 -28 -53 -43 0 -21 -34 -47 -59 -47 -14 1
-37 7 -51 15 -34 20 -108 18 -149 -3 -48 -24 -70 -58 -76 -117 -4 -36 -3 -44
4 -30 9 19 10 19 10 -3 1 -34 30 -91 53 -103 14 -7 32 -6 68 6 64 21 138 17
156 -10 10 -16 10 -27 -1 -58 -17 -48 -13 -45 -69 -56 -26 -5 -59 -19 -73 -32
-15 -13 -23 -19 -19 -12 3 6 2 14 -4 18 -6 4 -8 11 -5 16 8 12 -67 12 -99 -1
-19 -7 -26 -6 -28 3 0 6 -2 19 -3 27 -1 8 4 22 11 30 6 8 15 25 18 37 10 31
-4 94 -19 91 -6 -2 -23 11 -37 27 -41 49 -159 238 -155 250 2 5 44 13 93 17
49 4 107 11 129 16 127 31 236 63 275 80 25 12 51 20 59 19 9 -1 20 -23 28
-52z m-2382 -42 c11 -18 25 -32 32 -33 15 0 53 -80 53 -113 0 -15 5 -27 10
-27 6 0 10 -13 10 -30 0 -22 5 -30 18 -30 19 0 47 -26 74 -71 15 -24 15 -28
-3 -55 -11 -16 -26 -44 -34 -63 l-15 -33 -84 3 c-52 3 -79 1 -69 -5 9 -5 61
-6 117 -4 78 4 111 10 144 27 31 16 43 18 46 9 2 -7 13 -53 25 -103 11 -49 39
-127 61 -173 l39 -82 -8 -98 c-4 -53 -6 -119 -3 -147 4 -49 -13 -99 -46 -134
-11 -12 -11 -16 0 -23 10 -8 9 -9 -4 -5 -9 3 -30 -5 -47 -17 -30 -22 -33 -23
-66 -7 -28 13 -36 23 -41 54 -4 20 -10 37 -14 37 -4 0 -22 -37 -40 -82 -18
-46 -38 -88 -44 -95 -8 -9 -44 -9 -151 -2 -178 14 -182 15 -190 42 -13 45 -28
77 -36 77 -4 0 -13 -18 -19 -40 -6 -22 -12 -40 -13 -40 -2 0 -46 13 -97 30
-52 16 -105 30 -118 30 -26 0 -56 43 -74 105 -12 41 -28 69 -28 47 0 -7 -5
-12 -12 -12 -6 0 -9 3 -5 6 3 3 2 17 -3 30 -11 27 1 32 23 10 9 -10 18 -11 24
-5 6 6 19 6 37 -1 42 -15 81 -12 108 10 30 23 72 106 62 122 -5 7 -2 8 6 3 10
-6 12 -1 8 18 -3 16 -1 24 4 20 6 -3 9 15 7 46 l-4 52 30 -6 30 -5 -28 11
c-25 10 -28 15 -23 43 14 84 19 159 8 152 -7 -4 -9 5 -5 30 5 29 2 40 -13 52
-18 13 -17 14 11 7 29 -6 29 -6 12 13 -14 15 -15 21 -5 25 10 4 8 10 -6 21
-25 20 -8 20 18 1 22 -17 81 -21 71 -5 -3 6 -13 10 -22 10 -9 0 -22 8 -30 18
-8 9 -12 11 -8 5 3 -7 1 -13 -5 -13 -7 0 -10 6 -7 13 2 6 11 11 20 11 9 -1 18
9 22 23 3 13 9 22 14 19 4 -3 8 0 9 7 0 7 3 30 7 52 3 22 5 69 5 105 -2 103
19 136 87 143 15 2 39 10 53 19 74 46 86 47 115 1z m1254 -109 c28 -37 51 -70
51 -74 0 -4 -39 -10 -87 -13 -49 -4 -112 -9 -140 -13 -55 -7 -67 2 -33 24 11
7 27 30 36 52 19 47 66 90 99 90 16 0 37 -19 74 -66z m1175 9 c16 -20 23 -33
16 -28 -10 6 -12 4 -7 -9 4 -10 7 -22 7 -27 0 -5 5 -9 11 -9 5 0 7 6 3 13 -5
7 -1 6 10 -3 16 -13 16 -15 2 -20 -9 -3 -28 -29 -41 -59 -28 -60 -29 -61 -15
-61 5 0 21 23 35 50 24 47 41 69 29 35 -5 -11 -1 -14 12 -9 18 5 18 5 2 -6
-19 -11 -26 -46 -8 -35 6 3 10 -1 10 -9 0 -9 -6 -13 -14 -10 -8 3 -16 -3 -19
-16 -3 -12 -10 -19 -15 -16 -6 4 -8 -3 -5 -15 4 -12 0 -25 -8 -30 -12 -7 -12
-9 0 -9 11 0 11 -3 1 -15 -12 -14 -7 -20 15 -15 6 1 7 -2 3 -5 -4 -4 -3 -17 3
-29 9 -18 8 -18 -9 3 -13 16 -21 20 -26 12 -4 -7 -3 -18 4 -26 7 -9 8 -15 0
-20 -5 -3 -10 -1 -10 6 0 7 -2 10 -5 7 -11 -11 7 -36 24 -33 10 2 18 -3 18
-11 0 -10 -4 -11 -14 -3 -9 9 -13 8 -13 0 0 -7 -5 -9 -12 -5 -8 5 -9 2 -5 -10
5 -14 3 -17 -8 -12 -10 3 -15 -1 -15 -14 0 -10 -4 -22 -10 -25 -5 -3 -10 -12
-10 -18 1 -7 10 -1 20 12 11 13 20 20 20 16 0 -12 -53 -70 -59 -65 -3 3 -7 -5
-9 -16 -3 -23 -64 -84 -83 -84 -17 0 -7 119 11 130 8 5 30 11 49 15 50 9 61
22 61 69 0 53 -25 102 -73 140 -32 25 -47 30 -92 30 -30 0 -55 2 -55 4 0 2 41
47 91 100 50 54 103 114 117 134 15 21 29 38 32 38 3 0 18 -17 34 -37z m-2794
-48 c5 -12 2 -34 -6 -53 -11 -27 -16 -31 -36 -23 -30 11 -36 56 -12 82 22 24
44 21 54 -6z m2870 -7 c0 -5 -9 -4 -20 2 -11 6 -20 12 -20 14 0 2 9 2 20 -1
11 -3 20 -9 20 -15z m-2235 2 c3 -6 -1 -7 -9 -4 -18 7 -21 14 -7 14 6 0 13 -4
16 -10z m-772 -239 c-9 -40 -22 -49 -39 -27 -19 26 -18 45 3 68 16 18 18 18
30 2 7 -10 10 -28 6 -43z m806 -4 c-2 -2 -17 -7 -33 -11 -26 -6 -28 -5 -22 16
3 13 6 30 6 38 0 10 9 6 27 -12 15 -15 25 -29 22 -31z m1183 -43 c26 -38 47
-73 48 -77 0 -5 -19 -7 -42 -5 -50 4 -63 23 -70 106 -7 68 4 64 64 -24z m488
-28 c0 -3 -4 -8 -10 -11 -5 -3 -10 -1 -10 4 0 6 5 11 10 11 6 0 10 -2 10 -4z
m302 -73 c-20 -8 -44 -62 -52 -118 l-8 -50 -1 42 -1 41 -36 -10 c-52 -14 -52
-4 -2 26 24 14 55 37 68 51 13 14 28 25 34 24 6 0 5 -3 -2 -6z m-1557 -193
c65 -70 69 -75 21 -30 -64 60 -103 101 -125 134 -14 21 -14 21 6 1 10 -11 55
-58 98 -105z m-1149 -87 c-5 -22 -16 -33 -42 -42 -44 -16 -96 -17 -121 -2 -15
9 -10 10 25 11 23 0 60 9 81 20 21 10 41 16 45 13 3 -4 6 4 6 17 0 13 3 21 6
17 3 -3 3 -19 0 -34z m1211 -280 c-3 -10 -5 -4 -5 12 0 17 2 24 5 18 2 -7 2
-21 0 -30z m-1691 -10 c-9 -10 -35 -13 -40 -4 -3 4 7 8 21 9 15 1 23 -1 19 -5z
m291 -82 c72 -45 210 -98 318 -122 65 -15 142 -22 280 -26 151 -4 194 -8 208
-21 9 -8 17 -20 17 -27 0 -27 -142 -75 -225 -75 -36 0 -46 -3 -35 -10 8 -5 26
-10 40 -11 69 -4 -122 -29 -237 -32 -73 -2 -136 -7 -140 -11 -12 -13 250 1
350 19 49 9 132 32 185 51 77 28 102 33 119 25 13 -6 23 -15 23 -21 0 -19
-100 -58 -218 -86 -62 -14 -111 -28 -109 -31 5 -4 145 21 191 34 35 10 6 -15
-61 -53 -61 -34 -76 -38 -168 -44 -55 -3 -118 -5 -140 -4 -22 1 -98 5 -170 9
-109 6 -142 12 -205 36 -117 45 -233 131 -246 184 -10 39 0 40 43 6 44 -35
153 -86 203 -95 23 -4 14 2 -26 17 -76 28 -156 75 -149 87 3 6 -1 7 -10 4 -11
-4 -14 -2 -9 9 3 8 -2 30 -11 47 l-17 33 59 -45 c32 -25 69 -50 83 -57 l25
-12 -25 18 c-63 46 -81 66 -69 74 8 4 19 3 26 -3 10 -8 17 -6 27 8 13 17 17
17 57 4 24 -8 68 -24 97 -37 73 -32 78 -28 9 8 -32 16 -55 34 -52 38 3 5 -18
24 -46 41 -49 32 -89 89 -89 126 0 16 2 15 23 -2 12 -11 45 -35 74 -53z m880
-43 c12 -13 44 -62 71 -109 67 -114 172 -252 283 -371 89 -96 97 -108 58 -88
-13 7 -19 7 -19 0 0 -5 -22 -10 -48 -10 -48 0 -49 0 -99 68 -64 86 -175 252
-243 366 -30 48 -60 90 -67 93 -7 3 -21 -5 -31 -17 -10 -12 -25 -21 -34 -19
-12 3 -7 15 24 57 44 59 71 66 105 30z m-1287 -137 c-6 -12 -15 -19 -21 -16
-13 9 -11 43 4 48 20 7 30 -9 17 -32z m120 -55 c5 13 9 14 14 5 6 -9 11 -9 21
-1 10 8 15 3 24 -21 6 -18 10 -33 9 -34 -2 -2 -18 -10 -35 -19 -18 -9 -33 -24
-33 -33 0 -27 -11 -7 -21 39 -5 24 -12 52 -16 63 -5 18 -5 18 13 1 17 -18 18
-18 24 0z m-80 -71 c7 -9 8 -15 2 -15 -5 0 -12 7 -16 15 -3 8 -4 15 -2 15 2 0
9 -7 16 -15z m156 -32 c3 -16 7 -32 9 -38 1 -5 -11 -10 -28 -10 -25 0 -32 5
-38 27 -5 21 -3 30 9 38 28 16 41 11 48 -17z m1644 -85 c19 -12 80 -45 135
-75 55 -29 97 -53 94 -53 -31 -1 -211 89 -259 129 -33 27 -14 27 30 -1z m-476
3 c3 -5 -31 -19 -77 -31 -45 -11 -86 -23 -92 -24 -5 -2 31 -2 80 1 87 4 89 3
57 -11 -67 -31 -200 -49 -312 -41 -125 8 -226 20 -298 35 -84 19 -53 23 38 6
45 -9 105 -15 134 -15 43 2 38 3 -29 10 -168 16 -161 25 25 33 100 4 216 15
270 25 104 21 196 26 204 12z m-1263 -37 c10 -16 20 -45 23 -64 l7 -35 -18 28
c-15 23 -23 26 -45 21 -33 -7 -37 9 -7 29 15 11 17 16 7 21 -11 5 -11 7 1 12
11 5 11 8 0 16 -11 8 -11 9 1 5 8 -2 22 -17 31 -33z m445 -142 c-6 -5 -143 75
-151 88 -3 6 30 -11 74 -37 44 -26 79 -49 77 -51z m-448 45 c2 -15 -1 -27 -6
-27 -17 0 -34 29 -28 46 9 23 31 11 34 -19z"/>
<path d="M3870 3636 c0 -2 7 -9 15 -16 13 -11 14 -10 9 4 -5 14 -24 23 -24 12z"/>
<path d="M4050 3621 c0 -6 4 -13 10 -16 6 -3 7 1 4 9 -7 18 -14 21 -14 7z"/>
<path d="M4040 3524 c0 -6 7 -19 16 -30 14 -18 14 -18 3 6 -14 31 -19 36 -19
24z"/>
<path d="M4100 3515 c0 -5 5 -17 10 -25 5 -8 10 -10 10 -5 0 6 -5 17 -10 25
-5 8 -10 11 -10 5z"/>
<path d="M4161 3490 c0 -8 4 -24 9 -35 5 -13 9 -14 9 -5 0 8 -4 24 -9 35 -5
13 -9 14 -9 5z"/>
<path d="M4320 3485 c0 -8 4 -15 10 -15 5 0 7 7 4 15 -4 8 -8 15 -10 15 -2 0
-4 -7 -4 -15z"/>
<path d="M4206 3465 c8 -37 14 -45 14 -19 0 10 -5 26 -10 34 -8 11 -9 7 -4
-15z"/>
<path d="M4351 3464 c0 -11 3 -14 6 -6 3 7 2 16 -1 19 -3 4 -6 -2 -5 -13z"/>
<path d="M4262 3440 c0 -14 2 -19 5 -12 2 6 2 18 0 25 -3 6 -5 1 -5 -13z"/>
<path d="M4302 3425 c0 -16 2 -22 5 -12 2 9 2 23 0 30 -3 6 -5 -1 -5 -18z"/>
<path d="M4352 3395 c0 -16 2 -22 5 -12 2 9 2 23 0 30 -3 6 -5 -1 -5 -18z"/>
<path d="M4382 3370 c0 -14 2 -19 5 -12 2 6 2 18 0 25 -3 6 -5 1 -5 -13z"/>
<path d="M4412 3330 c0 -14 2 -19 5 -12 2 6 2 18 0 25 -3 6 -5 1 -5 -13z"/>
<path d="M4482 3280 c0 -14 2 -19 5 -12 2 6 2 18 0 25 -3 6 -5 1 -5 -13z"/>
<path d="M4437 3261 c-4 -17 -3 -21 5 -13 5 5 8 16 6 23 -3 8 -7 3 -11 -10z"/>
<path d="M4465 3240 c-3 -5 -1 -10 4 -10 6 0 11 5 11 10 0 6 -2 10 -4 10 -3 0
-8 -4 -11 -10z"/>
<path d="M3819 3143 c-13 -16 -12 -17 4 -4 16 13 21 21 13 21 -2 0 -10 -8 -17
-17z"/>
<path d="M4175 3110 c-3 -5 -1 -10 4 -10 6 0 11 5 11 10 0 6 -2 10 -4 10 -3 0
-8 -4 -11 -10z"/>
<path d="M4261 2924 c0 -11 3 -14 6 -6 3 7 2 16 -1 19 -3 4 -6 -2 -5 -13z"/>
<path d="M4300 2910 c0 -5 5 -10 11 -10 5 0 7 5 4 10 -3 6 -8 10 -11 10 -2 0
-4 -4 -4 -10z"/>
<path d="M4260 2890 c0 -5 5 -10 10 -10 6 0 10 5 10 10 0 6 -4 10 -10 10 -5 0
-10 -4 -10 -10z"/>
<path d="M4320 2880 c0 -5 5 -10 11 -10 5 0 7 5 4 10 -3 6 -8 10 -11 10 -2 0
-4 -4 -4 -10z"/>
<path d="M3854 2715 c-9 -14 -15 -27 -13 -30 3 -2 12 10 21 26 21 36 15 39 -8
4z"/>
<path d="M3874 2643 c16 -18 32 -31 34 -28 3 3 3 6 1 8 -2 1 -17 13 -34 27
l-30 25 29 -32z"/>
<path d="M3945 2640 c-16 -17 -16 -20 -3 -15 9 4 19 13 22 21 7 19 2 18 -19
-6z"/>
<path d="M3365 2590 c3 -5 10 -10 16 -10 5 0 9 5 9 10 0 6 -7 10 -16 10 -8 0
-12 -4 -9 -10z"/>
<path d="M3378 2553 c6 -2 18 -2 25 0 6 3 1 5 -13 5 -14 0 -19 -2 -12 -5z"/>
<path d="M3410 2510 c0 -5 7 -10 16 -10 8 0 12 5 9 10 -3 6 -10 10 -16 10 -5
0 -9 -4 -9 -10z"/>
<path d="M3720 2389 c0 -5 5 -7 10 -4 6 3 10 8 10 11 0 2 -4 4 -10 4 -5 0 -10
-5 -10 -11z"/>
<path d="M4195 2039 c-4 -6 -5 -12 -2 -15 2 -3 7 2 10 11 7 17 1 20 -8 4z"/>
<path d="M2406 2742 c-2 -4 4 -8 14 -8 10 0 16 4 14 8 -3 4 -9 8 -14 8 -5 0
-11 -4 -14 -8z"/>
<path d="M4156 2938 c10 -14 21 -24 23 -22 3 3 -6 15 -18 27 l-24 22 19 -27z"/>
<path d="M2158 2183 c7 -3 16 -2 19 1 4 3 -2 6 -13 5 -11 0 -14 -3 -6 -6z"/>
<path d="M1870 1979 c0 -5 5 -7 10 -4 6 3 10 8 10 11 0 2 -4 4 -10 4 -5 0 -10
-5 -10 -11z"/>
<path d="M3880 1420 c28 -39 42 -47 31 -18 -4 13 -6 29 -4 36 3 7 -5 12 -22
12 l-26 0 21 -30z"/>
<path d="M1672 1610 c0 -19 2 -27 5 -17 2 9 2 25 0 35 -3 9 -5 1 -5 -18z"/>
<path d="M1667 1529 c3 -24 7 -46 9 -48 9 -10 3 65 -5 78 -6 10 -8 -1 -4 -30z"/>
<path d="M1625 1460 c-13 -6 -15 -9 -5 -9 8 0 22 4 30 9 18 12 2 12 -25 0z"/>
<path d="M1568 1443 c6 -2 18 -2 25 0 6 3 1 5 -13 5 -14 0 -19 -2 -12 -5z"/>
<path d="M1700 1445 c0 -6 56 -35 67 -35 4 0 -7 9 -25 20 -33 20 -42 24 -42
15z"/>
<path d="M1630 1360 c-13 -27 -22 -52 -19 -53 2 -2 16 20 30 50 14 29 23 53
19 53 -4 0 -17 -22 -30 -50z"/>
<path d="M2005 1325 c15 -44 17 -96 5 -135 -4 -14 -8 -19 -9 -12 -2 24 -18 11
-44 -37 -18 -35 -23 -51 -14 -54 12 -4 -9 -15 -83 -43 -34 -13 -34 -13 -7 -14
15 0 44 7 64 15 19 8 36 15 37 15 1 0 3 -16 4 -37 3 -32 1 -35 -13 -23 -13 11
-14 10 -9 -4 3 -9 10 -16 14 -16 4 0 12 -17 18 -37 10 -38 10 -38 11 20 1 62
20 103 55 117 19 8 18 9 -8 9 -24 1 -28 4 -22 24 31 118 31 193 1 233 -12 16
-12 13 0 -21z"/>
<path d="M1601 1274 c0 -11 3 -14 6 -6 3 7 2 16 -1 19 -3 4 -6 -2 -5 -13z"/>
<path d="M1601 1123 c-1 -18 4 -33 9 -33 12 0 12 17 0 45 -7 17 -9 15 -9 -12z"/>
<path d="M1540 1090 c0 -5 9 -10 20 -10 11 0 20 5 20 10 0 6 -9 10 -20 10 -11
0 -20 -4 -20 -10z"/>
<path d="M1630 1085 c0 -6 56 -35 67 -35 4 0 -7 9 -25 20 -33 20 -42 24 -42
15z"/>
<path d="M1597 1063 c-11 -11 -8 -23 6 -23 8 0 14 7 14 15 0 16 -9 19 -20 8z"/>
<path d="M1987 860 c9 -53 24 -83 17 -35 -4 22 -10 47 -15 55 -5 9 -6 1 -2
-20z"/>
<path d="M1543 845 c0 -22 2 -30 4 -17 2 12 2 30 0 40 -3 9 -5 -1 -4 -23z"/>
<path d="M2034 778 l-29 -33 33 29 c30 28 37 36 29 36 -2 0 -16 -15 -33 -32z"/>
<path d="M1070 521 c0 -5 7 -12 16 -15 14 -5 15 -4 4 9 -14 17 -20 19 -20 6z"/>
<path d="M1360 466 c14 -7 36 -16 50 -20 14 -3 7 3 -15 13 -45 22 -73 27 -35
7z"/>
<path d="M1508 413 c7 -3 16 -2 19 1 4 3 -2 6 -13 5 -11 0 -14 -3 -6 -6z"/>
<path d="M1548 403 c7 -3 16 -2 19 1 4 3 -2 6 -13 5 -11 0 -14 -3 -6 -6z"/>
<path d="M1598 393 c6 -2 18 -2 25 0 6 3 1 5 -13 5 -14 0 -19 -2 -12 -5z"/>
<path d="M1280 380 c8 -5 22 -9 30 -9 10 0 8 3 -5 9 -27 12 -43 12 -25 0z"/>
<path d="M1678 383 c12 -2 30 -2 40 0 9 3 -1 5 -23 4 -22 0 -30 -2 -17 -4z"/>
<path d="M1328 333 c12 -2 32 -2 45 0 12 2 2 4 -23 4 -25 0 -35 -2 -22 -4z"/>
<path d="M1798 163 c12 -2 32 -2 45 0 12 2 2 4 -23 4 -25 0 -35 -2 -22 -4z"/>
<path d="M3620 4290 c0 -5 10 -10 23 -10 18 0 19 2 7 10 -19 13 -30 13 -30 0z"/>
<path d="M3868 4223 c6 -2 18 -2 25 0 6 3 1 5 -13 5 -14 0 -19 -2 -12 -5z"/>
<path d="M3950 4204 c56 -17 62 -17 30 1 -14 8 -36 14 -50 14 -18 0 -12 -4 20
-15z"/>
<path d="M3653 4203 c9 -2 25 -2 35 0 9 3 1 5 -18 5 -19 0 -27 -2 -17 -5z"/>
<path d="M3908 4173 c7 -3 16 -2 19 1 4 3 -2 6 -13 5 -11 0 -14 -3 -6 -6z"/>
<path d="M4152 4165 c10 -8 100 -55 106 -55 4 0 -6 9 -21 19 -16 10 -27 22
-25 26 2 4 -12 9 -30 10 -18 2 -32 2 -30 0z"/>
<path d="M3638 4123 c7 -3 16 -2 19 1 4 3 -2 6 -13 5 -11 0 -14 -3 -6 -6z"/>
<path d="M4154 4121 c7 -11 46 -35 46 -28 0 3 -12 12 -26 22 -15 9 -23 12 -20
6z"/>
<path d="M3678 4053 c7 -3 16 -2 19 1 4 3 -2 6 -13 5 -11 0 -14 -3 -6 -6z"/>
<path d="M4120 3990 c8 -5 20 -10 25 -10 6 0 3 5 -5 10 -8 5 -19 10 -25 10 -5
0 -3 -5 5 -10z"/>
<path d="M2834 3848 l-19 -23 23 19 c21 18 27 26 19 26 -2 0 -12 -10 -23 -22z"/>
<path d="M2352 3748 c-19 -19 -14 -45 10 -62 19 -13 25 -14 43 -2 25 16 31 42
15 61 -15 18 -52 19 -68 3z"/>
<path d="M1857 3729 c7 -7 15 -10 18 -7 3 3 -2 9 -12 12 -14 6 -15 5 -6 -5z"/>
<path d="M2556 3662 c-10 -30 -56 -72 -101 -94 -37 -18 -38 -19 -8 -13 46 9
52 -12 8 -31 -21 -8 -44 -13 -51 -10 -19 7 -18 -8 1 -24 10 -8 15 -9 15 -1 0
15 70 43 89 36 9 -3 12 -3 8 1 -4 4 3 18 15 31 24 26 14 32 -13 7 -10 -9 -23
-13 -28 -9 -7 4 1 16 19 32 31 26 66 81 57 90 -3 2 -8 -4 -11 -15z"/>
<path d="M1940 3636 c5 -14 11 -73 12 -130 3 -99 4 -106 26 -115 28 -13 52
-14 52 -3 0 5 -11 14 -25 20 -24 11 -25 15 -25 104 0 92 -12 137 -38 146 -9 3
-10 -2 -2 -22z"/>
<path d="M4660 3640 c0 -5 5 -10 11 -10 5 0 7 5 4 10 -3 6 -8 10 -11 10 -2 0
-4 -4 -4 -10z"/>
<path d="M1760 3625 c-26 -32 13 -81 48 -59 34 22 22 74 -18 74 -10 0 -23 -7
-30 -15z"/>
<path d="M4666 3578 c11 -23 22 -34 30 -31 16 6 17 13 4 33 -8 12 -10 12 -10
1 0 -8 -8 -4 -20 10 l-20 24 16 -37z"/>
<path d="M2270 3581 c14 -11 30 -21 35 -21 11 0 -7 14 -40 31 -13 7 -12 3 5
-10z"/>
<path d="M4655 3545 c9 -22 21 -44 27 -50 5 -5 2 8 -7 30 -9 22 -21 45 -26 50
-6 6 -3 -8 6 -30z"/>
<path d="M2328 3553 c7 -3 16 -2 19 1 4 3 -2 6 -13 5 -11 0 -14 -3 -6 -6z"/>
<path d="M2609 3495 c-11 -25 -19 -50 -17 -55 2 -4 13 16 24 46 26 66 21 72
-7 9z"/>
<path d="M1868 3495 c-21 -19 -34 -35 -30 -35 5 0 23 16 42 35 44 45 36 45
-12 0z"/>
<path d="M4601 3515 c0 -18 28 -61 29 -44 0 8 -7 24 -15 35 -8 10 -14 15 -14
9z"/>
<path d="M2480 3486 c0 -23 -83 -90 -154 -125 -111 -54 -210 -74 -350 -69 -71
2 -131 9 -144 17 -41 22 -39 1 3 -36 68 -59 138 -86 230 -89 l80 -3 -72 9
c-94 10 -161 34 -204 70 l-34 30 45 -8 c81 -13 240 -5 321 16 87 23 176 66
233 111 21 17 40 31 42 31 8 0 -22 -57 -31 -60 -12 -3 -95 -62 -95 -67 0 -6
20 6 58 34 51 38 37 9 -20 -41 -60 -53 -120 -84 -193 -102 -27 -7 -40 -13 -27
-13 41 -2 132 37 198 84 70 51 104 94 134 174 20 51 20 51 0 51 -11 0 -20 -6
-20 -14z"/>
<path d="M2641 3469 c-6 -18 -9 -34 -7 -36 2 -2 9 10 15 28 6 18 9 34 7 36 -2
2 -9 -10 -15 -28z"/>
<path d="M4586 3470 c3 -14 11 -32 16 -40 6 -10 7 -7 2 10 -3 14 -11 32 -16
40 -6 10 -7 7 -2 -10z"/>
<path d="M1783 3453 c9 -2 23 -2 30 0 6 3 -1 5 -18 5 -16 0 -22 -2 -12 -5z"/>
<path d="M4560 3455 c0 -5 5 -17 10 -25 5 -8 10 -10 10 -5 0 6 -5 17 -10 25
-5 8 -10 11 -10 5z"/>
<path d="M4701 3385 c0 -11 6 -33 14 -50 l15 -30 -6 35 c-8 44 -23 75 -23 45z"/>
<path d="M4680 3367 c0 -11 -5 -15 -11 -11 -7 4 -9 0 -6 -12 4 -11 9 -31 13
-46 3 -16 13 -28 21 -28 13 0 14 8 9 42 -8 48 -25 85 -26 55z m7 -49 c-3 -8
-6 -5 -6 6 -1 11 2 17 5 13 3 -3 4 -12 1 -19z"/>
<path d="M1570 3366 c0 -2 8 -10 18 -17 15 -13 16 -12 3 4 -13 16 -21 21 -21
13z"/>
<path d="M4642 3330 c0 -14 4 -36 8 -50 8 -24 8 -24 8 5 0 17 -3 39 -8 50 -8
18 -9 18 -8 -5z"/>
<path d="M4620 3317 c0 -14 5 -29 10 -32 7 -4 8 3 4 22 -9 38 -14 42 -14 10z"/>
<path d="M4591 3314 c0 -11 3 -14 6 -6 3 7 2 16 -1 19 -3 4 -6 -2 -5 -13z"/>
<path d="M2546 3305 c-9 -26 -7 -32 5 -12 6 10 9 21 6 23 -2 3 -7 -2 -11 -11z"/>
<path d="M2581 3244 c0 -11 3 -14 6 -6 3 7 2 16 -1 19 -3 4 -6 -2 -5 -13z"/>
<path d="M2532 3230 c0 -14 2 -19 5 -12 2 6 2 18 0 25 -3 6 -5 1 -5 -13z"/>
<path d="M2622 3230 c0 -14 2 -19 5 -12 2 6 2 18 0 25 -3 6 -5 1 -5 -13z"/>
<path d="M2711 3234 c0 -11 3 -14 6 -6 3 7 2 16 -1 19 -3 4 -6 -2 -5 -13z"/>
<path d="M1965 3230 c19 -8 103 -14 94 -6 -2 2 -29 6 -59 9 -34 3 -47 2 -35
-3z"/>
<path d="M2662 3205 c0 -16 2 -22 5 -12 2 9 2 23 0 30 -3 6 -5 -1 -5 -18z"/>
<path d="M2791 3204 c0 -11 3 -14 6 -6 3 7 2 16 -1 19 -3 4 -6 -2 -5 -13z"/>
<path d="M2295 3188 c-58 -30 -130 -48 -205 -49 -54 0 -61 -2 -40 -11 62 -25
239 17 280 67 16 19 13 19 -35 -7z"/>
<path d="M2571 3194 c0 -11 3 -14 6 -6 3 7 2 16 -1 19 -3 4 -6 -2 -5 -13z"/>
<path d="M2702 3185 c0 -16 2 -22 5 -12 2 9 2 23 0 30 -3 6 -5 -1 -5 -18z"/>
<path d="M2565 3025 c-3 -26 -4 -49 -2 -51 3 -3 8 16 12 41 3 26 4 49 2 51 -3
3 -8 -16 -12 -41z"/>
<path d="M2623 3025 c0 -22 2 -30 4 -17 2 12 2 30 0 40 -3 9 -5 -1 -4 -23z"/>
<path d="M2512 2985 c0 -16 2 -22 5 -12 2 9 2 23 0 30 -3 6 -5 -1 -5 -18z"/>
<path d="M2742 2980 c0 -14 2 -19 5 -12 2 6 2 18 0 25 -3 6 -5 1 -5 -13z"/>
<path d="M2510 2900 c0 -5 4 -10 9 -10 6 0 13 5 16 10 3 6 -1 10 -9 10 -9 0
-16 -4 -16 -10z"/>
<path d="M2586 2795 c4 -27 8 -52 10 -54 8 -9 2 65 -7 84 -6 13 -7 4 -3 -30z"/>
<path d="M2532 2810 c0 -14 2 -19 5 -12 2 6 2 18 0 25 -3 6 -5 1 -5 -13z"/>
<path d="M2540 2754 c0 -16 5 -36 10 -44 6 -10 7 -2 3 25 -7 49 -13 58 -13 19z"/>
<path d="M3050 2617 c0 -13 39 -85 50 -92 16 -10 12 11 -5 25 -8 7 -15 18 -15
24 -1 12 -30 54 -30 43z"/>
<path d="M2910 2530 c0 -13 31 -62 44 -72 21 -14 17 1 -10 41 -28 43 -34 48
-34 31z"/>
<path d="M2860 2463 c11 -24 25 -43 30 -43 17 0 11 13 -21 50 l-30 35 21 -42z"/>
<path d="M2819 2452 c11 -21 27 -44 36 -52 9 -7 2 10 -16 38 -38 61 -47 68
-20 14z"/>
<path d="M2772 2440 c14 -24 31 -46 38 -48 7 -3 0 13 -15 34 -44 59 -51 64
-23 14z"/>
<path d="M840 2413 c-40 -42 -46 -50 -21 -32 31 23 90 89 79 89 -2 0 -28 -26
-58 -57z"/>
<path d="M2656 2428 c25 -49 66 -109 71 -104 5 4 -76 136 -83 136 -3 0 3 -15
12 -32z"/>
<path d="M2739 2423 c11 -23 26 -45 33 -49 6 -4 1 10 -12 32 -33 56 -46 66
-21 17z"/>
<path d="M4642 2440 c0 -14 2 -19 5 -12 2 6 2 18 0 25 -3 6 -5 1 -5 -13z"/>
<path d="M2690 2446 c0 -16 40 -83 60 -101 16 -14 11 -2 -15 40 -43 69 -45 71
-45 61z"/>
<path d="M687 2281 c-89 -69 -114 -91 -87 -76 45 26 198 149 178 144 -2 0 -42
-31 -91 -68z"/>
<path d="M2828 2253 c11 -16 37 -44 58 -63 34 -32 33 -29 -12 27 -48 61 -84
89 -46 36z"/>
<path d="M176 1888 c-9 -43 -2 -45 11 -3 6 19 8 35 3 35 -4 0 -10 -14 -14 -32z"/>
<path d="M221 1590 c0 -8 4 -24 9 -35 5 -13 9 -14 9 -5 0 8 -4 24 -9 35 -5 13
-9 14 -9 5z"/>
<path d="M269 1398 c-3 -20 -2 -35 2 -32 9 5 22 -64 14 -76 -3 -5 -2 -18 4
-27 12 -22 7 82 -7 137 l-9 35 -4 -37z"/>
<path d="M342 1400 c0 -14 2 -19 5 -12 2 6 2 18 0 25 -3 6 -5 1 -5 -13z"/>
<path d="M260 1335 c0 -5 5 -17 10 -25 5 -8 10 -10 10 -5 0 6 -5 17 -10 25 -5
8 -10 11 -10 5z"/>
<path d="M292 1180 c0 -19 2 -27 5 -17 2 9 2 25 0 35 -3 9 -5 1 -5 -18z"/>
<path d="M276 1079 c-4 -33 -9 -68 -12 -77 -5 -15 -4 -15 4 -2 11 17 28 140
20 140 -3 0 -9 -27 -12 -61z"/>
<path d="M1013 945 c-3 -9 -3 -18 -1 -21 3 -3 8 4 11 16 6 23 -1 27 -10 5z"/>
<path d="M817 855 c-15 -14 -39 -25 -52 -25 -13 0 -26 -4 -29 -9 -13 -20 69 9
93 33 32 33 25 33 -12 1z"/>
<path d="M695 800 c-10 -11 -13 -20 -7 -20 6 0 16 9 22 20 6 11 9 20 7 20 -2
0 -12 -9 -22 -20z"/>
<path d="M522 663 c-1 -23 3 -45 8 -48 6 -3 10 -13 10 -21 0 -8 11 -32 25 -52
33 -48 32 -34 -2 31 -16 29 -31 70 -34 92 l-6 40 -1 -42z"/>
<path d="M654 692 c-6 -4 -18 -21 -27 -38 -15 -28 -15 -33 -2 -44 13 -11 15
-8 15 19 0 18 9 40 20 51 20 20 16 27 -6 12z"/>
<path d="M2425 680 c10 -11 20 -20 22 -20 2 0 -2 9 -9 20 -7 11 -17 20 -22 20
-5 0 -1 -9 9 -20z"/>
<path d="M2490 625 c13 -14 26 -25 28 -25 3 0 -5 11 -18 25 -13 14 -26 25 -28
25 -3 0 5 -11 18 -25z"/>
<path d="M2610 635 c0 -5 5 -17 10 -25 5 -8 10 -10 10 -5 0 6 -5 17 -10 25 -5
8 -10 11 -10 5z"/>
<path d="M3337 607 l-18 -32 21 21 c13 12 21 27 19 33 -2 6 -12 -4 -22 -22z"/>
<path d="M2630 586 c0 -5 16 -38 36 -74 26 -48 31 -63 18 -58 -14 5 -15 4 -5
-8 9 -11 7 -15 -8 -19 -15 -4 -18 -1 -13 12 5 13 3 14 -10 3 -20 -16 -52 9
-103 82 -45 65 -56 73 -24 17 60 -108 173 -191 279 -206 l45 -7 -30 20 c-50
32 -92 83 -140 167 -25 44 -45 75 -45 71z"/>
<path d="M3830 554 c25 -14 54 -33 65 -42 l20 -17 -20 24 c-11 13 -37 32 -57
42 -55 28 -60 23 -8 -7z"/>
<path d="M3372 524 c-34 -25 -62 -48 -62 -50 0 -4 97 61 139 93 2 2 0 3 -5 3
-6 0 -38 -21 -72 -46z"/>
<path d="M622 495 c0 -16 2 -22 5 -12 2 9 2 23 0 30 -3 6 -5 -1 -5 -18z"/>
<path d="M3921 470 c14 -31 19 -36 19 -24 0 6 -7 19 -16 30 -14 18 -14 18 -3
-6z"/>
<path d="M657 410 c3 -11 9 -22 13 -25 5 -3 6 4 3 15 -3 11 -9 22 -13 25 -5 3
-6 -4 -3 -15z"/>
<path d="M681 365 c0 -5 8 -26 19 -45 11 -19 19 -30 19 -25 0 6 -8 26 -19 45
-11 19 -19 31 -19 25z"/>
<path d="M3028 344 c-3 -3 -43 -9 -89 -14 l-84 -9 85 4 c47 2 96 8 110 14 22
9 23 10 4 10 -11 1 -23 -2 -26 -5z"/>
<path d="M2830 185 c0 -7 81 -47 86 -43 2 3 -17 14 -41 26 -25 12 -45 20 -45
17z"/>
<path d="M4018 143 c17 -2 47 -2 65 0 17 2 3 4 -33 4 -36 0 -50 -2 -32 -4z"/>
<path d="M4125 141 c-10 -10 -42 -19 -245 -70 -185 -47 -195 -51 -135 -47 28
1 91 15 140 31 166 51 220 66 290 80 l70 13 -55 1 c-31 1 -60 -3 -65 -8z"/>
<path d="M3014 100 c38 -17 71 -29 73 -26 2 2 -10 10 -27 17 l-31 14 43 6 c41
6 40 6 -17 8 -33 1 -71 4 -85 7 -14 3 6 -9 44 -26z"/>
<path d="M4451 107 c2 -1 13 -9 24 -17 19 -14 19 -14 6 3 -7 9 -18 17 -24 17
-6 0 -8 -1 -6 -3z"/>
<path d="M3100 69 c0 -8 121 -40 170 -45 49 -5 29 2 -77 29 -51 13 -93 20 -93
16z"/>
</g>
</svg>
