<?xml version="1.0" standalone="no"?>
<!DOCTYPE svg PUBLIC "-//W3C//DTD SVG 20010904//EN" "http://www.w3.org/TR/2001/REC-SVG-20010904/DTD/svg10.dtd">
<svg version="1.0" xmlns="http://www.w3.org/2000/svg" width="400.000000pt" height="624.000000pt"
    viewBox="0 0 400.000000 624.000000" preserveAspectRatio="xMidYMid meet">

    <g transform="translate(0.000000,624.000000) scale(0.100000,-0.100000)" fill="#000000" stroke="none">
        <path d="M1795 6219 c-212 -14 -317 -39 -435 -100 -147 -76 -278 -201 -363
-344 -48 -82 -123 -261 -132 -317 -11 -62 -25 -40 -29 43 -5 125 -59 234 -137
274 -37 19 -102 19 -140 -1 -25 -12 -37 -13 -65 -4 -44 15 -83 6 -133 -31 -28
-20 -53 -29 -79 -29 -38 0 -112 -40 -112 -61 0 -5 -15 -16 -32 -24 -80 -33
-118 -108 -119 -228 -2 -136 50 -266 141 -358 72 -72 133 -107 211 -120 35 -6
68 -15 73 -20 5 -4 -16 -35 -49 -71 -138 -149 -198 -251 -220 -377 -7 -42 -23
-110 -34 -151 -12 -41 -21 -84 -21 -96 0 -78 101 -262 200 -364 92 -95 529
-288 728 -322 85 -14 90 -19 149 -144 36 -76 36 -77 21 -118 -9 -22 -71 -207
-139 -411 -112 -337 -128 -378 -178 -454 -30 -47 -69 -118 -87 -159 -29 -68
-31 -77 -19 -106 27 -63 73 -105 168 -150 51 -25 105 -58 121 -75 l29 -30 -41
-183 c-23 -101 -51 -235 -61 -298 -42 -244 -86 -374 -153 -448 -37 -41 -38
-43 -24 -70 18 -35 33 -47 67 -55 21 -5 31 -19 48 -67 38 -104 121 -141 216
-96 20 10 40 14 45 9 31 -34 40 -165 14 -214 -18 -35 -149 -124 -203 -138 -20
-6 -66 -17 -103 -25 -37 -8 -94 -28 -125 -43 -55 -27 -70 -43 -109 -121 -9
-17 4 -78 19 -90 23 -18 111 -21 451 -14 l339 7 20 26 c19 27 19 27 -4 104
-12 43 -35 93 -52 113 -64 79 -81 150 -52 219 18 42 106 183 114 183 3 -1 17
-7 31 -15 36 -20 90 -18 125 5 24 16 40 19 80 14 62 -7 102 7 136 48 l26 31
57 -22 c31 -11 75 -30 96 -41 47 -24 85 -25 124 -5 44 23 56 19 56 -19 0 -21
18 -70 45 -124 53 -106 58 -152 21 -228 -13 -28 -29 -70 -36 -95 -6 -24 -18
-61 -26 -82 -20 -53 -18 -94 5 -107 13 -6 148 -10 370 -10 402 0 388 -3 378
81 -3 27 -14 60 -23 74 -21 32 -119 79 -229 109 -221 62 -277 142 -230 330 27
104 33 116 69 116 17 0 48 4 69 9 42 10 42 10 72 -64 26 -61 72 -135 85 -135
5 0 15 12 22 28 17 35 53 39 123 13 113 -42 146 -24 161 88 9 70 36 100 93
108 41 6 46 4 72 -28 l28 -34 1 33 c0 18 -7 61 -16 96 -14 56 -14 67 -1 92 24
47 37 126 27 168 -15 69 -158 283 -379 571 -97 126 -105 141 -117 203 -20 102
-19 106 27 126 55 24 119 106 119 152 0 35 -42 155 -148 420 -83 209 -97 258
-128 438 -14 88 -33 178 -40 200 l-15 41 62 123 c33 67 71 129 82 137 12 7 76
28 142 45 132 35 224 78 300 141 27 22 68 50 90 61 91 46 240 166 292 235 85
112 98 149 98 278 0 101 -4 121 -42 245 -23 74 -52 167 -63 207 -11 39 -36 95
-55 123 -19 29 -35 60 -35 69 0 29 33 51 76 51 94 1 198 59 278 156 74 89 108
164 110 236 1 73 -23 109 -81 121 -33 6 -43 14 -54 39 -14 35 -62 68 -101 68
-19 0 -31 9 -46 33 -22 37 -75 67 -120 67 -16 0 -49 9 -73 20 -62 28 -124 26
-188 -6 -71 -36 -100 -82 -115 -181 -11 -73 -15 -81 -60 -127 -48 -49 -76 -98
-76 -136 0 -11 -4 -20 -10 -20 -9 0 -12 11 -30 139 -20 140 -112 318 -250 482
-99 118 -177 180 -315 249 -119 59 -247 97 -370 110 -100 11 -139 11 -300 -1z
m436 -44 c116 -29 310 -119 394 -183 27 -21 92 -87 143 -147 73 -86 106 -136
153 -230 32 -65 59 -124 59 -130 0 -5 -5 -2 -11 8 -6 9 -15 15 -20 11 -13 -7
8 -34 26 -34 14 0 31 -57 21 -67 -3 -4 -6 1 -6 9 0 20 -27 31 -34 15 -3 -9 -5
-8 -5 1 -1 7 6 15 14 18 14 6 13 8 -2 19 -15 12 -22 10 -42 -8 l-25 -22 17 28
c10 15 13 27 7 27 -6 0 -9 13 -8 30 2 27 3 28 20 13 10 -9 18 -11 18 -5 0 6
-5 14 -10 17 -6 4 -8 11 -5 16 4 5 -1 9 -10 9 -10 0 -15 6 -12 13 3 8 2 19 -2
25 -4 7 -8 -20 -9 -58 -1 -38 -8 -97 -16 -130 -8 -35 -10 -62 -5 -66 5 -3 9 3
9 13 0 15 2 15 9 3 6 -8 8 -17 5 -21 -6 -11 53 -32 67 -23 7 4 10 3 5 -4 -3
-6 3 -16 14 -22 13 -7 20 -7 20 0 0 5 -4 10 -10 10 -5 0 -7 7 -4 15 4 8 2 15
-4 15 -5 0 -13 7 -16 16 -5 14 -4 15 8 5 12 -10 13 -9 9 8 -3 12 -1 21 6 21 6
0 11 -10 11 -22 0 -13 3 -40 7 -61 l6 -38 -69 35 c-38 19 -105 50 -150 69 -44
18 -103 51 -131 72 l-50 37 -7 83 c-6 89 -13 115 -28 115 -5 0 -6 -34 -2 -87
l7 -87 -44 26 c-24 14 -45 32 -46 40 -1 7 -5 39 -8 71 -4 38 -11 57 -20 57
-10 0 -12 -14 -8 -60 6 -65 6 -65 -30 -51 -21 8 -25 18 -31 78 -7 82 -15 113
-28 113 -5 0 -6 -34 -2 -85 l7 -85 -54 24 c-51 22 -54 25 -59 66 -7 59 -30 66
-30 10 0 -36 -3 -41 -17 -35 -47 18 -137 36 -225 46 -112 12 -224 2 -367 -34
-101 -26 -103 -25 -80 42 6 18 8 35 4 39 -11 12 -34 -28 -40 -73 -6 -36 -11
-43 -42 -54 -19 -7 -37 -10 -41 -7 -3 4 2 31 13 61 10 30 15 58 11 62 -13 13
-33 -34 -51 -119 -4 -19 -17 -34 -45 -48 -21 -11 -42 -20 -46 -20 -4 0 -4 29
-1 65 4 37 2 65 -3 65 -15 0 -30 -71 -24 -110 5 -33 3 -39 -33 -65 -21 -15
-55 -44 -75 -63 l-37 -35 -6 24 c-3 14 -2 45 4 69 6 27 6 49 1 54 -16 16 -30
-42 -30 -124 l0 -79 -55 -20 c-31 -12 -60 -21 -65 -21 -4 0 -8 20 -7 44 1 24
6 42 10 39 5 -3 5 12 0 34 -9 46 -9 187 1 226 4 18 3 26 -3 23 -19 -12 48 111
95 173 85 113 249 231 384 276 194 66 558 79 761 30z m-1553 -409 c90 -47 151
-178 137 -291 l-6 -50 -57 -21 c-31 -12 -68 -24 -82 -27 l-25 -6 3 108 c5 122
-8 166 -67 233 -34 39 -32 45 23 59 45 10 45 10 74 -5z m-147 -43 c62 -56 86
-106 93 -193 6 -78 -5 -152 -24 -158 -6 -2 -23 -14 -38 -27 -22 -19 -31 -21
-54 -13 -25 9 -28 15 -28 53 0 57 -26 177 -49 230 -10 23 -33 52 -51 65 -35
25 -32 35 25 64 48 25 81 20 126 -21z m2964 -27 l30 -13 -34 -17 c-19 -10 -47
-32 -63 -50 -33 -35 -78 -117 -78 -142 0 -13 -5 -15 -27 -8 -16 4 -45 7 -66 6
l-39 -2 7 53 c4 28 17 70 29 92 41 76 159 116 241 81z m-3147 -26 c18 -11 41
-34 52 -52 27 -45 50 -153 50 -236 0 -87 -15 -105 -86 -100 l-48 3 -17 83
c-20 92 -56 178 -96 231 l-27 34 34 29 c41 34 90 37 138 8z m621 -26 c-10 -13
-10 -17 1 -24 10 -6 11 -12 3 -22 -11 -14 -10 -73 1 -125 5 -21 2 -35 -8 -46
-14 -13 -14 -16 -1 -27 8 -7 15 -17 15 -22 0 -5 -13 2 -30 15 -16 14 -38 28
-49 32 -18 5 -18 9 -6 56 8 28 18 55 23 62 6 7 10 16 10 20 0 18 46 120 50
108 2 -6 -2 -19 -9 -27z m2699 -10 l35 -35 -50 -29 c-63 -36 -121 -102 -164
-185 l-33 -63 -19 31 c-11 18 -31 44 -45 59 -23 26 -24 30 -14 67 31 103 130
190 216 191 30 0 45 -7 74 -36z m-3471 -78 c62 -91 105 -290 71 -324 -16 -16
-66 -15 -98 1 -14 7 -30 28 -36 47 -12 36 -34 53 -34 26 0 -29 28 -84 47 -94
59 -32 143 -18 157 26 5 14 14 17 46 14 47 -5 95 12 114 40 21 30 63 15 70
-26 10 -54 75 -96 148 -96 45 0 160 55 159 75 -1 15 -10 12 -81 -24 -60 -31
-68 -32 -107 -22 -22 6 -52 21 -65 32 l-23 20 33 -18 c37 -20 57 -13 82 30 12
21 12 32 3 57 -9 24 -9 30 2 30 7 0 37 11 67 25 61 28 104 31 153 10 42 -17
56 -49 45 -98 -15 -69 -47 -103 -146 -163 -110 -66 -164 -112 -164 -142 0 -12
39 -122 86 -244 145 -377 165 -430 159 -436 -3 -3 -33 -7 -68 -9 -34 -2 -70
-4 -79 -5 -10 -1 -24 -16 -33 -33 -8 -17 -15 -23 -15 -13 0 9 -3 25 -6 35 -4
13 -3 14 3 5 8 -10 12 -10 23 3 10 13 -5 65 -95 323 -108 311 -128 358 -146
347 -5 -4 -8 -1 -7 6 3 12 -157 76 -202 82 -8 1 -19 6 -25 10 -5 4 -37 25 -70
46 -60 38 -72 55 -102 136 -36 98 -33 246 5 307 21 32 71 70 87 65 6 -2 25
-25 42 -51z m3614 -15 c16 -16 29 -35 29 -43 0 -7 -20 -21 -45 -31 -24 -10
-58 -34 -74 -52 -30 -34 -69 -125 -78 -182 -8 -49 -44 -77 -90 -70 -51 8 -73
38 -73 96 0 127 155 311 263 311 29 0 46 -7 68 -29z m-1989 -12 c40 -9 75 -9
144 0 78 10 101 10 160 -4 38 -9 106 -20 151 -25 55 -6 105 -19 153 -40 43
-19 99 -34 143 -39 77 -9 129 -29 360 -141 121 -58 129 -64 146 -103 31 -72
74 -106 185 -148 38 -14 56 -26 56 -38 0 -30 -159 -337 -182 -352 -5 -3 -10
-10 -10 -15 -1 -17 -25 -44 -33 -36 -4 4 -5 0 -3 -8 3 -8 -4 -32 -15 -52 -43
-79 -79 -43 -198 197 -64 130 -110 187 -219 272 -157 122 -280 182 -461 224
-224 51 -466 61 -622 25 -31 -7 -57 -9 -57 -5 0 5 11 9 25 9 16 0 25 6 25 15
0 8 5 15 11 15 5 0 7 -6 3 -12 -6 -10 -5 -10 7 -1 9 8 33 11 60 8 24 -2 46 -1
49 3 3 4 55 5 115 2 61 -3 143 -5 182 -5 40 0 73 -3 73 -6 0 -11 105 -28 114
-18 13 12 47 11 66 -2 11 -8 7 -9 -17 -4 -22 4 -33 3 -33 -5 0 -6 5 -8 10 -5
6 4 18 1 27 -7 9 -7 17 -11 17 -9 2 5 90 -21 103 -32 7 -5 17 -6 23 -2 5 3 17
-1 26 -9 8 -9 22 -16 30 -16 8 0 14 -5 14 -11 0 -6 7 -8 16 -5 8 3 12 2 9 -4
-3 -6 2 -10 12 -10 11 0 24 -5 30 -11 9 -9 19 -6 39 10 25 20 25 21 5 21 -11
0 -21 -4 -21 -9 0 -4 -10 -6 -23 -4 -14 3 -23 12 -23 23 0 17 2 18 16 5 22
-20 36 -19 20 0 -10 12 -10 19 -2 27 9 9 12 8 12 -2 0 -8 25 -28 54 -43 59
-31 90 -29 60 4 -23 26 0 25 26 -1 11 -11 29 -20 40 -20 29 0 24 15 -6 16 -14
1 -31 10 -38 20 -8 10 -20 15 -29 11 -20 -8 -97 24 -97 41 0 6 5 12 11 12 5 0
7 5 3 12 -4 6 -3 9 2 6 5 -3 17 4 26 17 15 19 15 25 4 34 -8 7 -18 11 -22 9
-5 -1 -19 3 -31 10 -12 6 -68 21 -125 31 -148 28 -163 30 -263 36 -49 3 -117
7 -150 10 -33 3 -132 1 -220 -4 -113 -7 -161 -7 -166 1 -7 11 -83 4 -126 -13
-39 -14 -28 -32 15 -24 20 4 60 9 88 11 49 3 51 2 46 -22 -2 -13 -11 -24 -18
-24 -17 0 -18 12 -1 29 10 11 4 12 -33 5 -25 -5 -72 -9 -105 -10 -33 0 -73 -2
-90 -4 l-30 -2 30 -8 c30 -8 30 -8 3 -9 -14 0 -35 -4 -45 -7 -15 -5 -16 -4 -3
6 13 9 12 10 -5 6 -11 -3 -32 -8 -47 -12 -16 -3 -28 -10 -28 -16 0 -5 4 -6 10
-3 5 3 7 0 4 -8 -3 -8 0 -18 6 -22 6 -3 9 -1 8 6 -2 6 3 14 10 16 7 3 11 -1
10 -8 -2 -10 7 -13 27 -12 28 2 29 2 5 -6 -24 -7 -24 -8 -4 -14 12 -4 29 -5
38 -1 19 7 22 -12 4 -19 -10 -4 -9 -8 2 -16 20 -14 23 -14 46 4 15 12 16 16 5
24 -11 7 -9 10 8 16 13 4 25 4 28 1 3 -3 18 1 34 10 16 8 29 10 29 5 0 -13
-58 -31 -77 -24 -15 6 -16 5 -3 -9 11 -11 19 -13 28 -6 7 6 15 8 19 5 3 -4 -5
-11 -18 -16 -13 -5 -44 -18 -69 -29 -33 -13 -53 -16 -69 -10 -18 6 -29 4 -42
-8 -28 -25 -23 -39 7 -20 14 10 29 16 34 14 5 -2 -30 -28 -78 -58 -98 -61
-177 -132 -230 -205 -51 -72 -110 -132 -164 -167 -27 -16 -48 -37 -48 -44 0
-12 -4 -12 -20 -4 -25 13 -26 34 -2 28 10 -3 23 1 30 9 10 10 10 13 -3 13 -9
0 -13 5 -10 10 4 6 15 8 26 5 23 -8 44 5 44 25 0 8 8 14 17 14 25 -2 90 69 82
90 -5 14 -9 15 -15 4 -5 -7 -9 -8 -9 -3 0 6 4 16 9 24 7 11 10 8 16 -10 l8
-23 18 23 c11 13 19 30 19 38 0 8 5 11 10 8 20 -12 9 13 -12 29 -13 9 -17 14
-10 11 6 -3 12 -1 12 4 0 6 -7 11 -16 11 -12 0 -15 -6 -11 -21 3 -12 0 -28 -9
-36 -8 -8 -14 -10 -14 -4 0 19 -20 12 -21 -6 0 -17 -1 -17 -7 0 -7 16 -10 15
-36 -12 -15 -16 -26 -32 -24 -35 1 -3 -13 -22 -32 -43 -19 -20 -30 -34 -23
-30 6 4 18 4 27 1 13 -5 14 -10 5 -20 -6 -7 -8 -18 -4 -24 3 -5 2 -10 -4 -10
-18 0 -23 21 -9 37 11 14 11 15 -7 6 -16 -9 -25 -7 -43 7 -13 11 -18 21 -12
25 5 3 10 12 10 18 0 8 -3 7 -9 -2 -7 -11 -11 -9 -21 9 -10 18 -10 21 2 14 19
-12 38 -14 38 -3 0 5 -8 9 -17 10 -16 0 -15 2 2 10 15 7 10 8 -20 5 l-40 -5
28 17 c27 17 37 34 15 29 -6 -1 -15 9 -19 23 -4 14 -7 19 -8 12 -1 -7 -5 -10
-11 -7 -5 3 -10 -1 -10 -9 0 -8 5 -18 11 -22 12 -7 -6 -24 -26 -24 -6 0 -5 4
1 8 14 9 13 54 -1 65 -5 5 1 5 15 1 22 -6 23 -5 11 9 -7 9 -17 14 -22 11 -13
-8 -11 10 3 26 7 7 1 5 -14 -6 -30 -21 -34 -34 -15 -53 9 -11 9 -13 0 -7 -9 5
-13 0 -13 -14 0 -12 4 -18 10 -15 6 4 10 3 9 -2 -4 -15 13 -63 21 -58 4 2 5
-6 3 -19 -3 -12 2 -29 9 -37 8 -8 13 -20 10 -28 -3 -8 0 -11 7 -7 7 5 9 1 5
-9 -5 -11 -2 -14 10 -9 18 7 21 20 6 29 -5 3 -10 11 -10 18 0 6 6 3 13 -6 6
-9 23 -21 37 -27 22 -9 22 -10 3 -6 -13 2 -26 -1 -30 -7 -17 -28 -11 -103 8
-92 5 4 9 -2 9 -12 0 -15 2 -16 10 -3 9 13 10 13 10 0 0 -9 -6 -22 -12 -29
-11 -11 -10 -12 1 -6 11 6 13 4 8 -8 -4 -10 -2 -16 5 -14 6 1 13 -4 16 -12 3
-8 0 -11 -7 -7 -6 4 -11 2 -11 -3 0 -6 8 -11 18 -11 11 0 13 -3 5 -8 -8 -5 -4
-11 11 -18 19 -9 25 -8 34 6 7 11 7 21 0 31 -8 11 -9 11 -4 -3 3 -10 1 -20 -4
-23 -10 -6 -7 36 4 53 4 7 2 12 -4 12 -6 0 -15 -10 -20 -22 -5 -13 -9 -17 -9
-9 -1 8 -8 23 -18 33 -10 11 -12 18 -5 19 26 3 31 4 38 12 4 4 -2 7 -14 7 -12
0 -22 4 -22 10 0 6 9 6 26 0 14 -6 39 -10 56 -10 27 0 30 -2 24 -25 -13 -51
-48 -135 -58 -141 -7 -5 -9 -2 -6 8 4 8 -2 20 -13 26 -23 15 -24 9 -3 -24 10
-15 13 -29 8 -34 -9 -9 -192 450 -201 506 -5 30 -2 33 83 85 49 29 96 52 106
52 10 -1 17 1 16 5 -1 4 15 25 35 46 20 22 44 59 53 82 14 38 23 45 84 72 37
17 105 45 151 63 46 17 103 43 126 56 30 18 51 23 71 19 34 -8 231 34 292 62
54 24 64 25 132 11z m2122 -84 c63 -63 -4 -238 -134 -351 -30 -27 -46 -38 -36
-26 l20 23 -45 -20 c-24 -12 -56 -21 -70 -21 -47 0 -89 -12 -89 -26 0 -7 8
-15 18 -17 10 -3 7 -5 -10 -6 -20 -1 -26 3 -22 14 13 32 -63 7 -99 -32 -21
-24 -99 -252 -90 -266 3 -5 2 -7 -4 -4 -5 3 -21 -30 -36 -76 -14 -45 -52 -161
-85 -257 l-59 -175 -36 1 c-51 2 -67 18 -67 70 0 24 3 44 8 44 18 0 72 63 72
85 0 25 -51 75 -76 75 -8 0 -14 2 -14 5 0 3 25 47 55 98 73 120 180 333 192
377 15 56 7 67 -67 95 -124 47 -180 108 -180 196 0 90 131 214 207 194 32 -8
123 -95 123 -117 0 -11 -7 -14 -25 -11 -33 7 -85 -44 -85 -84 0 -48 11 -55 79
-51 64 3 72 -3 44 -34 -46 -51 -178 14 -212 105 -6 15 -15 27 -21 27 -31 0 11
-81 65 -124 79 -65 139 -74 186 -27 28 29 30 29 64 15 46 -19 78 -18 106 5 23
19 24 19 53 -6 33 -27 75 -26 107 3 19 17 99 151 99 166 0 26 -29 -6 -67 -72
-47 -81 -56 -90 -95 -90 -51 0 -62 62 -27 155 26 70 62 113 114 136 49 23 118
25 139 4z m-1032 -37 c-7 -7 -12 -8 -12 -2 0 14 12 26 19 19 2 -3 -1 -11 -7
-17z m41 -12 c-3 -4 -9 -2 -14 5 -13 22 -11 31 5 17 8 -7 12 -17 9 -22z
m-1075 -23 c-16 -2 -40 -2 -55 0 -16 2 -3 4 27 4 30 0 43 -2 28 -4z m159 1
c-3 -3 -12 -4 -19 -1 -8 3 -5 6 6 6 11 1 17 -2 13 -5z m202 -11 c3 -2 -19 -3
-48 -2 -28 1 -47 6 -40 10 11 7 78 1 88 -8z m701 -13 c5 0 10 6 13 13 3 6 4 2
4 -10 -1 -17 -4 -20 -19 -12 -10 5 -17 17 -17 27 1 16 2 16 6 0 2 -10 8 -18
13 -18z m-1207 13 c-7 -2 -19 -2 -25 0 -7 3 -2 5 12 5 14 0 19 -2 13 -5z m583
-17 c3 -8 15 -11 32 -8 30 5 29 4 -10 -21 -18 -11 -26 -13 -23 -5 8 20 -33 42
-51 27 -8 -6 -18 -9 -21 -5 -4 4 -1 11 7 16 22 14 60 12 66 -4z m-1665 -20
c15 -32 4 -76 -19 -76 -9 1 -30 12 -47 26 l-30 25 28 24 c35 31 54 32 68 1z
m1562 17 c-7 -2 -19 -2 -25 0 -7 3 -2 5 12 5 14 0 19 -2 13 -5z m-743 -23 c0
-5 -5 -10 -11 -10 -5 0 -7 5 -4 10 3 6 8 10 11 10 2 0 4 -4 4 -10z m83 3 c-7
-2 -21 -2 -30 0 -10 3 -4 5 12 5 17 0 24 -2 18 -5z m973 -18 c18 -11 24 -13
19 -4 -6 11 -5 12 5 2 16 -15 13 -18 -17 -27 -19 -6 -22 -4 -16 11 6 16 5 17
-13 3 -18 -14 -18 -14 -5 3 14 18 2 24 -14 8 -15 -15 -95 -1 -95 16 0 21 100
12 136 -12z m-1016 5 c8 -5 11 -10 5 -10 -5 0 -17 5 -25 10 -8 5 -10 10 -5 10
6 0 17 -5 25 -10z m708 -1 c-12 -7 -24 -7 -35 0 -15 9 -12 10 17 10 29 0 32
-1 18 -10z m-608 -9 c0 -5 -12 -10 -27 -9 l-28 1 25 8 c14 4 26 8 28 9 1 1 2
-3 2 -9z m-110 -10 c11 -8 7 -9 -15 -4 -37 8 -45 14 -19 14 10 0 26 -5 34 -10z
m860 0 c-20 -13 -33 -13 -25 0 3 6 14 10 23 10 15 0 15 -2 2 -10z m224 1 c3
-5 -2 -15 -12 -22 -15 -12 -16 -12 -5 2 7 9 10 19 6 22 -3 4 -4 7 0 7 3 0 8
-4 11 -9z m-349 -11 c5 -8 11 -7 20 0 8 7 22 10 32 7 14 -3 12 -6 -10 -15 -16
-7 -34 -9 -39 -5 -6 3 -25 10 -42 14 l-31 7 32 1 c17 1 35 -4 38 -9z m1205 -9
c23 -44 13 -59 -41 -66 -54 -8 -73 3 -62 34 18 50 82 70 103 32z m-2010 -6
c-7 -8 -17 -12 -23 -8 -6 4 -3 9 9 14 27 11 28 11 14 -6z m47 9 c-3 -3 -12 -4
-19 -1 -8 3 -5 6 6 6 11 1 17 -2 13 -5z m640 0 c-3 -3 -12 -4 -19 -1 -8 3 -5
6 6 6 11 1 17 -2 13 -5z m193 -14 c-8 -5 -19 -10 -25 -10 -5 0 -3 5 5 10 8 5
20 10 25 10 6 0 3 -5 -5 -10z m235 -10 c3 -5 1 -10 -4 -10 -6 0 -11 5 -11 10
0 6 2 10 4 10 3 0 8 -4 11 -10z m-155 -10 c0 -5 -4 -10 -10 -10 -5 0 -10 5
-10 10 0 6 5 10 10 10 6 0 10 -4 10 -10z m-55 -10 c13 -5 14 -9 5 -9 -8 0 -24
4 -35 9 -13 5 -14 9 -5 9 8 0 24 -4 35 -9z m-412 -7 c-35 -3 -43 -9 -52 -31
-5 -16 -10 -20 -10 -10 -2 38 10 48 58 46 l46 -1 -42 -4z m578 -23 c5 0 9 7 9
15 0 8 5 15 10 15 14 0 13 -13 -2 -28 -19 -19 -38 -14 -37 11 1 16 2 18 6 5 2
-10 9 -18 14 -18z m-838 -49 c7 -87 51 -257 87 -338 15 -33 47 -82 71 -108 36
-39 44 -44 56 -32 12 12 12 22 2 58 -14 51 -13 317 1 406 6 32 10 59 10 61 0
1 12 2 28 2 28 0 39 -9 81 -68 15 -22 27 -30 33 -24 11 11 -9 49 -25 50 -5 0
-12 4 -15 8 -4 4 -1 4 7 -1 9 -5 12 -3 9 6 -3 8 -12 13 -19 11 -8 -2 -11 0 -7
4 4 4 3 13 -4 21 -8 10 -8 12 3 8 8 -3 19 -13 25 -23 5 -9 21 -35 34 -56 13
-22 19 -36 13 -33 -14 9 -27 -9 -18 -23 5 -8 11 -8 20 0 11 9 23 -6 59 -72 24
-46 48 -92 51 -103 4 -11 -17 24 -46 77 -29 54 -56 92 -60 86 -8 -12 112 -218
124 -211 4 2 7 2 7 -1 0 -2 3 -13 6 -23 5 -15 4 -15 -5 -3 -7 10 -11 11 -11 3
0 -7 9 -22 20 -33 11 -11 18 -20 15 -20 -3 0 6 -20 20 -45 l27 -45 -26 -10
c-38 -14 -33 -32 7 -25 28 5 34 2 50 -25 22 -41 39 -34 53 21 10 42 13 45 74
67 34 12 64 21 64 20 51 -87 73 -118 85 -123 29 -11 30 3 7 195 l-7 55 21 -40
c22 -41 80 -198 84 -225 1 -9 5 -20 8 -25 3 -6 9 -54 13 -107 4 -53 12 -104
19 -114 12 -15 14 -14 33 10 12 14 23 26 25 26 13 0 -17 -140 -52 -253 -51
-160 -137 -331 -202 -403 -116 -126 -410 -203 -670 -175 -212 23 -285 52 -431
171 -10 8 -46 49 -80 90 -200 247 -247 621 -114 910 l26 55 -6 -114 c-6 -107
-5 -113 13 -110 12 3 33 32 59 84 22 44 45 83 50 87 7 5 7 8 0 8 -5 0 -2 5 8
11 15 9 51 0 168 -41 134 -47 181 -57 153 -31 -5 5 -67 29 -139 54 -165 58
-165 57 -165 69 0 5 5 6 10 3 9 -6 11 -2 14 32 2 17 109 233 114 229 2 -2 -20
-50 -49 -107 -76 -154 -46 -111 46 64 64 122 85 153 103 155 27 4 24 26 -5 30
-15 2 -27 -11 -53 -63 -18 -36 -34 -65 -36 -65 -7 0 18 55 42 98 20 34 30 42
53 42 28 0 28 -1 34 -69z m732 59 c3 -5 1 -10 -4 -10 -6 0 -11 5 -11 10 0 6 2
10 4 10 3 0 8 -4 11 -10z m-758 -16 c-3 -3 -12 -4 -19 -1 -8 3 -5 6 6 6 11 1
17 -2 13 -5z m813 -4 c-13 -8 -12 -10 3 -10 9 0 17 -4 17 -10 0 -13 -3 -13
-35 4 -26 14 -20 24 15 25 13 1 13 0 0 -9z m-589 -162 c-1 -67 -4 -124 -7
-127 -2 -2 -4 56 -4 129 0 73 3 131 6 127 4 -3 6 -61 5 -129z m-1668 37 c4 3
5 2 2 -2 -3 -3 1 -13 8 -22 6 -8 -1 -5 -17 7 -16 13 -36 33 -44 45 -12 17 -9
16 15 -6 16 -15 32 -25 36 -22z m3542 -28 c-33 -23 -55 -28 -49 -12 3 8 12 11
19 9 7 -3 16 -1 20 5 3 6 11 11 18 11 6 0 3 -6 -8 -13z m-3495 -27 c0 -5 -2
-10 -4 -10 -3 0 -8 5 -11 10 -3 6 -1 10 4 10 6 0 11 -4 11 -10z m3425 0 c3 -6
-4 -10 -17 -10 -18 0 -20 2 -8 10 19 12 18 12 25 0z m-1292 -76 c-2 -6 9 -26
26 -44 17 -19 27 -39 23 -48 -3 -8 -1 -13 4 -10 5 3 16 -10 26 -29 l16 -35
-41 -19 c-72 -32 -74 -31 -80 74 -4 50 -9 115 -13 142 l-6 50 25 -35 c13 -19
23 -40 20 -46z m-2084 55 c-11 -7 -10 -9 4 -9 9 0 17 -5 17 -10 0 -6 -13 -4
-30 5 -37 19 -37 23 -4 23 18 0 22 -3 13 -9z m3235 3 c3 -5 -1 -9 -9 -9 -8 0
-12 4 -9 9 3 4 7 8 9 8 2 0 6 -4 9 -8z m-26 -59 c-27 -47 -28 -49 -28 -37 0
11 38 74 45 74 2 0 -5 -17 -17 -37z m-3080 18 c12 -1 31 -10 41 -20 11 -11 23
-16 27 -13 4 4 4 1 0 -6 -6 -11 -12 -9 -27 7 -14 15 -32 21 -59 21 -22 0 -40
4 -40 9 0 5 8 8 18 6 9 -2 27 -4 40 -4z m607 -30 c-3 -6 -11 -11 -17 -11 -6 0
-6 6 2 15 14 17 26 13 15 -4z m-65 -21 c0 -5 -9 -8 -19 -7 -15 1 -17 4 -9 14
11 13 28 9 28 -7z m-460 -45 c0 -5 -5 -3 -10 5 -5 8 -10 20 -10 25 0 6 5 3 10
-5 5 -8 10 -19 10 -25z m2958 -16 c-12 -27 -15 -30 -21 -16 -4 11 -3 16 3 12
9 -6 14 11 13 44 -1 8 2 10 9 3 6 -6 4 -21 -4 -43z m-2696 16 c3 -14 1 -25 -3
-25 -5 0 -9 11 -9 25 0 14 2 25 4 25 2 0 6 -11 8 -25z m2775 -8 c32 -47 50
-94 78 -206 14 -54 34 -119 44 -143 25 -55 45 -205 38 -279 -13 -148 -159
-316 -381 -439 -35 -19 -79 -49 -99 -67 -20 -17 -56 -43 -81 -58 -54 -32 -180
-69 -184 -55 -2 5 -8 10 -13 10 -4 0 -6 -7 -3 -15 4 -10 0 -15 -12 -15 -11 0
-15 3 -9 8 16 11 12 37 -5 37 -8 0 -14 -8 -14 -17 1 -14 -2 -16 -17 -7 -13 7
-19 6 -19 -1 0 -6 9 -14 20 -18 17 -6 14 -10 -22 -19 -33 -9 -40 -9 -28 0 8 7
16 18 18 26 6 28 63 101 74 95 7 -4 8 -2 4 5 -14 23 175 248 197 234 6 -3 7
-1 4 4 -4 6 20 36 52 66 43 39 70 56 98 61 21 3 48 9 61 12 16 5 22 2 22 -9 0
-8 6 -17 13 -20 24 -9 -3 -19 -30 -12 -21 6 -23 9 -10 12 29 7 19 20 -13 15
-16 -2 -30 -8 -30 -12 0 -4 14 -13 30 -19 17 -5 30 -12 30 -15 0 -7 -51 12
-66 24 -7 7 -11 5 -11 -5 0 -8 5 -15 10 -15 5 0 3 -7 -4 -17 -13 -15 -12 -15
11 -4 22 11 23 10 8 -2 -10 -8 -18 -19 -18 -26 0 -6 -8 -11 -17 -11 -16 -1
-16 -2 2 -12 33 -20 55 -20 56 0 0 15 1 15 8 -2 7 -18 9 -17 27 10 23 34 54
100 54 115 0 6 -9 8 -20 4 -11 -3 -20 -3 -20 2 0 5 20 15 45 22 25 7 50 22 55
32 15 27 12 93 -5 115 -8 10 -15 38 -15 62 0 28 -4 41 -11 37 -6 -4 -8 -14 -5
-24 5 -13 4 -13 -8 2 -10 13 -15 15 -18 5 -3 -7 5 -21 16 -30 12 -10 -5 -4
-36 14 -51 29 -57 35 -51 57 10 43 16 43 27 1 6 -20 5 -22 -4 -10 -9 13 -10
12 -7 -5 2 -11 9 -19 15 -17 7 1 12 -3 12 -9 0 -8 5 -7 15 1 9 7 13 21 10 30
-3 9 1 30 10 46 12 24 15 25 15 8 0 -11 -5 -25 -11 -31 -6 -6 -8 -17 -3 -24 5
-9 10 -6 15 10 9 24 0 141 -11 141 -3 0 -4 14 -2 31 3 23 1 30 -7 25 -8 -6
-10 0 -6 21 10 47 98 303 104 303 3 0 16 -15 28 -33z m-3066 -25 c10 -36 9
-41 -40 -123 -51 -84 -75 -159 -53 -159 6 0 15 15 20 34 6 18 29 66 52 107
l43 72 12 -34 c9 -27 9 -40 -3 -63 -12 -25 -16 -27 -23 -14 -12 21 0 56 12 36
6 -9 9 -6 9 11 0 19 -2 21 -15 11 -21 -17 -28 -46 -16 -69 12 -21 5 -51 -11
-51 -5 0 -7 13 -3 30 9 40 -10 39 -24 -1 -14 -40 -14 -42 2 -33 7 4 9 3 4 -2
-5 -5 -14 -9 -19 -9 -14 0 -61 -133 -54 -151 3 -8 1 -14 -4 -14 -6 0 -10 -9
-10 -20 0 -23 10 -26 29 -7 10 10 11 9 6 -5 -5 -11 -18 -18 -35 -18 -25 0 -28
-4 -34 -46 -7 -56 1 -94 21 -94 11 0 13 7 9 25 -3 13 -3 43 0 65 5 30 11 40
25 40 12 0 19 -7 19 -17 0 -15 -2 -16 -10 -3 -16 25 -22 4 -24 -79 -2 -62 1
-81 11 -81 16 0 17 12 2 27 -8 8 -8 13 0 17 6 4 11 0 11 -8 0 -11 7 -15 23
-12 12 3 26 5 30 5 5 1 5 6 2 11 -4 6 -16 8 -28 5 -15 -4 -18 -3 -9 3 11 7 9
10 -7 15 -17 4 -21 13 -20 44 0 30 2 34 9 18 l9 -20 1 20 c1 20 1 20 15 1 8
-11 15 -27 14 -35 0 -11 -2 -12 -6 -3 -6 16 -33 15 -33 -2 0 -18 38 -28 62
-15 10 5 18 17 18 26 0 14 -2 14 -16 -3 -8 -10 -12 -13 -8 -5 3 7 0 18 -7 23
-11 7 -11 11 -1 15 18 7 15 24 -4 21 -10 -2 -19 3 -22 11 -3 11 0 12 14 6 11
-4 27 -7 37 -7 9 0 17 -5 17 -11 0 -7 5 -4 11 6 5 9 8 21 5 25 -2 4 5 9 16 9
27 2 66 -28 60 -46 -3 -8 0 -11 6 -7 13 8 -29 -76 -43 -86 -5 -4 -14 -8 -19
-8 -6 0 -1 6 10 14 10 8 15 18 11 22 -4 5 -12 2 -17 -6 -18 -28 -11 12 10 58
10 23 17 42 15 42 -2 0 -10 3 -18 6 -11 4 -21 -10 -36 -51 -12 -31 -21 -63
-21 -73 0 -15 -75 -69 -90 -65 -26 7 21 -135 60 -181 5 -7 8 -15 5 -18 -3 -3
4 -13 15 -23 11 -10 20 -13 20 -7 0 6 -5 14 -10 17 -16 10 -1 25 18 18 18 -7
17 -5 -12 17 -13 10 -17 10 -12 3 4 -8 2 -13 -4 -13 -7 0 -10 6 -7 13 3 7 -4
19 -15 26 -11 7 -18 15 -15 18 9 8 117 -80 117 -95 0 -7 4 -11 9 -8 5 3 34 -5
64 -18 30 -14 100 -39 157 -56 l102 -32 -23 -24 c-28 -30 -17 -32 12 -3 l21
21 39 -38 c21 -21 36 -40 32 -43 -3 -3 -8 -1 -10 5 -2 6 -15 9 -28 6 -14 -2
-25 0 -25 5 0 5 -8 9 -17 10 -10 0 -33 4 -50 8 -26 6 -33 4 -33 -7 0 -15 111
-58 150 -58 11 0 20 -4 20 -8 0 -12 -83 -14 -113 -3 -23 9 -27 8 -27 -8 0 -23
58 -46 96 -38 29 5 31 -4 5 -20 -15 -10 -20 -10 -24 0 -3 9 -9 9 -30 0 -27
-13 -61 -8 -52 7 3 5 1 11 -5 15 -6 4 -8 11 -5 16 3 5 0 6 -8 3 -8 -3 -18 -1
-22 5 -3 6 0 9 8 5 8 -3 18 -1 22 5 3 6 -2 11 -12 11 -17 1 -17 1 1 12 13 7
29 7 56 -1 69 -21 66 -11 -5 13 -38 13 -73 22 -77 19 -5 -2 -8 6 -8 19 0 13
-9 34 -20 48 -11 14 -20 33 -20 43 0 12 -6 17 -18 15 -11 -2 -26 3 -36 11 -9
8 -19 11 -23 7 -4 -3 2 -13 13 -21 10 -8 17 -15 14 -15 -39 -9 -53 -9 -41 -1
11 7 10 13 -5 35 -11 14 -25 26 -31 26 -19 0 -16 -9 8 -29 20 -16 20 -17 3
-31 -17 -14 -18 -14 -5 3 7 9 10 17 6 17 -5 0 -17 -8 -28 -17 -11 -10 -17 -13
-14 -6 5 7 -16 26 -55 49 -35 21 -71 49 -82 62 -14 17 -21 21 -30 12 -8 -8 1
-22 35 -53 82 -74 105 -87 162 -89 22 -1 25 -3 13 -10 -20 -11 -20 -24 -2 -31
10 -4 13 -1 9 9 -3 7 0 14 6 14 6 0 11 -5 11 -11 0 -7 8 -18 18 -25 29 -23
-57 4 -106 33 -24 14 -46 22 -49 19 -12 -11 31 -46 91 -75 69 -33 108 -60 87
-61 -7 0 -76 32 -153 72 -116 59 -147 80 -186 125 -80 93 -141 191 -163 265
l-22 70 26 101 c14 56 31 129 37 163 12 68 36 124 85 197 37 55 157 195 167
196 4 1 12 -16 19 -37z m429 18 c0 -5 -4 -10 -10 -10 -5 0 -10 5 -10 10 0 6 5
10 10 10 6 0 10 -4 10 -10z m-374 -43 c2 -15 9 -39 15 -54 6 -16 6 -23 1 -18
-8 9 -42 100 -42 114 0 15 21 -20 26 -42z m412 23 c-7 -10 -14 -18 -15 -16 -6
6 9 36 18 36 5 0 4 -9 -3 -20z m2483 -81 c-11 -30 -20 -49 -20 -43 -1 15 30
106 35 101 2 -2 -5 -28 -15 -58z m-2815 -206 c-5 -5 -56 150 -56 168 1 8 14
-26 30 -75 17 -49 28 -91 26 -93z m2776 87 c-15 -44 -20 -50 -24 -32 -4 12 -3
20 1 17 5 -2 14 14 20 36 7 23 14 39 17 37 2 -3 -4 -29 -14 -58z m-2838 -24
c6 -23 -20 -103 -30 -93 -3 3 -1 14 5 25 14 27 14 28 -8 29 -13 1 -18 -3 -15
-12 3 -7 1 -15 -4 -19 -14 -8 -7 25 13 66 20 40 29 41 39 4z m2842 -123 c-19
-39 -5 -65 18 -32 9 13 16 18 16 12 0 -6 -7 -16 -15 -23 -17 -14 -21 -35 -5
-25 6 3 10 4 10 1 0 -17 -20 -12 -34 8 -14 22 -14 29 1 78 12 38 18 47 21 31
2 -12 -3 -35 -12 -50z m-2816 7 c-7 -4 -9 -13 -5 -20 5 -8 4 -11 -3 -6 -16 10
-25 -13 -12 -29 10 -11 10 -15 1 -15 -7 0 -10 -4 -6 -9 8 -13 -10 -22 -29 -15
-9 3 -13 11 -9 18 4 7 2 7 -7 -1 -11 -10 -11 -15 0 -28 16 -19 3 -20 -16 -1
-9 10 -10 17 -4 21 6 4 8 11 5 16 -4 5 -1 9 4 9 6 0 11 5 11 11 0 5 -4 8 -8 5
-14 -8 -8 30 7 44 12 12 14 11 9 -8 -6 -22 11 -82 22 -82 13 0 8 39 -6 44 -19
7 -18 26 2 26 8 0 20 14 26 31 9 27 12 29 21 14 6 -12 6 -20 -3 -25z m-153 -2
c-3 -7 -5 -2 -5 12 0 14 2 19 5 13 2 -7 2 -19 0 -25z m76 17 c-3 -9 -8 -14
-10 -11 -3 3 -2 9 2 15 9 16 15 13 8 -4z m135 -16 c-3 -8 -7 -3 -11 10 -4 17
-3 21 5 13 5 -5 8 -16 6 -23z m-231 -1 c-3 -8 -6 -5 -6 6 -1 11 2 17 5 13 3
-3 4 -12 1 -19z m2932 -27 c-7 -23 -14 -39 -16 -37 -3 2 1 23 8 45 7 23 14 39
16 37 3 -2 -1 -23 -8 -45z m78 14 c-15 -16 -19 -13 -11 9 3 9 10 13 15 10 5
-3 3 -11 -4 -19z m-2796 -72 l17 -52 -26 -17 -27 -17 19 22 c11 11 16 24 12
28 -4 5 -12 0 -17 -10 -6 -9 -15 -17 -21 -17 -6 0 -8 3 -5 6 3 4 2 15 -3 25
-6 10 -6 20 -1 23 4 3 12 25 16 48 4 24 10 36 13 28 3 -8 13 -38 23 -67z m26
45 c-3 -8 -6 -5 -6 6 -1 11 2 17 5 13 3 -3 4 -12 1 -19z m-250 -10 c-3 -8 -6
-5 -6 6 -1 11 2 17 5 13 3 -3 4 -12 1 -19z m282 -83 c0 -11 -7 0 -15 25 -17
56 -17 64 1 25 8 -16 14 -39 14 -50z m2621 -20 c-11 -33 -17 -46 -14 -30 10
54 27 110 30 100 2 -5 -5 -37 -16 -70z m-2326 13 c-4 -14 -2 -18 5 -14 6 4 11
2 11 -3 0 -22 -28 -10 -34 14 -7 27 -23 34 -23 10 0 -8 4 -15 9 -15 4 0 8 -4
8 -10 0 -21 -19 -9 -28 19 -9 25 -8 30 6 34 29 6 54 -12 46 -35z m-524 22 c0
-5 -2 -10 -4 -10 -3 0 -8 5 -11 10 -3 6 -1 10 4 10 6 0 11 -4 11 -10z m2830
-107 c-8 -3 -24 -10 -35 -16 -18 -9 -19 -9 -6 6 7 10 23 17 35 16 14 0 16 -2
6 -6z m-417 -83 c-3 -11 -13 -20 -23 -20 -38 0 -108 -95 -95 -128 5 -15 9 -13
25 8 19 25 19 25 17 3 -1 -21 -13 -28 -44 -24 -7 1 -13 -7 -13 -19 0 -11 5
-20 11 -20 5 0 7 6 3 13 -4 6 -4 9 1 5 4 -4 14 -3 22 3 7 6 13 7 13 3 0 -13
-39 -36 -49 -30 -5 3 -16 -3 -26 -14 -14 -16 -15 -20 -4 -21 22 -2 22 -2 54 5
l30 6 -33 -30 c-33 -31 -100 -44 -89 -17 3 6 24 57 47 112 32 79 51 109 87
143 49 46 74 54 66 22z m-2093 -48 c0 -2 -5 0 -12 4 -8 5 -9 2 -5 -10 4 -10 7
-23 8 -29 0 -7 4 -3 9 8 7 17 9 15 9 -12 1 -46 -13 -41 -28 8 -7 23 -15 48
-18 56 -5 12 -1 11 15 -3 12 -10 22 -20 22 -22z m376 6 c12 -10 27 -38 34 -61
7 -23 28 -72 46 -109 19 -37 34 -69 34 -72 0 -8 -71 12 -85 24 -23 19 -18 31
9 20 23 -8 36 -5 36 11 0 4 -17 13 -37 20 -21 6 -41 17 -45 23 -11 16 -10 38
2 31 6 -4 8 -10 5 -15 -6 -10 34 -35 42 -26 9 9 -8 26 -20 19 -7 -4 -7 0 1 10
12 14 10 23 -10 59 -13 24 -36 49 -51 56 -34 16 -38 47 -4 37 12 -4 31 -16 43
-27z m1689 -25 c-2 -10 -4 -21 -4 -25 -1 -5 -5 -8 -10 -8 -10 0 -9 19 2 38 11
17 16 15 12 -5z m-1717 -38 c-3 -3 -9 2 -12 12 -6 14 -5 15 5 6 7 -7 10 -15 7
-18z m2250 -85 c-7 -11 -15 -15 -17 -9 -2 6 3 15 10 20 20 12 21 11 7 -11z
m-56 -32 c-7 -7 -12 -8 -12 -2 0 6 3 14 7 17 3 4 9 5 12 2 2 -3 -1 -11 -7 -17z
m-2000 -133 c21 -22 38 -45 38 -50 0 -6 9 -16 21 -23 31 -20 16 -26 -20 -8
-37 20 -41 20 -41 1 0 -8 17 -24 38 -35 20 -12 29 -19 20 -16 -11 3 -18 0 -18
-8 0 -10 8 -11 38 -3 32 8 42 7 73 -14 20 -13 45 -29 55 -35 16 -10 15 -11
-11 -7 -66 10 -77 14 -71 28 7 20 -7 26 -43 19 l-30 -6 34 -33 c24 -24 47 -36
79 -40 49 -8 81 -1 71 15 -3 5 16 0 42 -12 26 -12 71 -28 98 -35 50 -13 49
-13 -37 -7 -72 4 -88 2 -88 -9 0 -19 31 -27 107 -27 71 0 102 8 81 21 -10 7
-9 9 5 9 9 0 17 -7 17 -15 0 -8 -6 -15 -14 -15 -7 0 -20 -7 -27 -16 -18 -22
-89 -13 -180 22 -63 23 -95 44 -70 44 5 0 13 -5 16 -10 4 -6 12 -7 18 -3 12 8
41 12 87 14 23 0 23 1 5 8 -11 5 -24 6 -28 4 -5 -3 -36 -6 -69 -8 l-61 -2 -69
66 c-63 59 -138 152 -166 207 -10 19 -8 20 26 20 30 -1 44 -9 74 -41z m1388
-8 c-41 -58 -128 -143 -136 -134 -4 4 -2 7 5 7 7 0 9 5 5 13 -4 6 -4 9 0 5 15
-13 47 27 39 48 -6 17 -5 17 10 5 15 -12 17 -11 17 2 0 9 -6 22 -14 29 -12 11
-12 17 0 41 13 23 20 27 60 27 l45 0 -31 -43z m-2053 -29 c-3 -7 -5 -2 -5 12
0 14 2 19 5 13 2 -7 2 -19 0 -25z m1949 -23 c-14 -21 -14 -24 -1 -19 8 4 15 1
15 -5 0 -6 -4 -11 -10 -11 -19 0 -25 -2 -37 -12 -7 -6 -13 -19 -13 -29 0 -11
-5 -19 -11 -19 -5 0 -7 6 -4 13 4 6 0 5 -7 -3 -7 -8 -22 -20 -33 -26 -25 -14
-31 -34 -9 -34 26 0 -23 -35 -98 -70 -79 -36 -118 -46 -118 -30 0 7 7 10 18 5
13 -5 12 -1 -5 14 -23 22 -43 27 -43 12 0 -6 5 -13 10 -16 6 -3 10 -13 10 -21
0 -12 -9 -15 -34 -13 -19 2 -38 0 -42 -4 -11 -11 -24 3 -24 27 0 19 9 24 64
37 42 11 63 12 60 5 -2 -6 5 -17 17 -24 12 -8 18 -9 14 -3 -4 7 5 11 24 11 33
0 101 28 101 42 0 4 7 8 15 8 8 0 15 5 15 10 0 13 3 13 -70 -10 -34 -11 -70
-20 -79 -19 -17 0 104 50 127 51 6 1 12 4 12 8 0 3 20 21 45 40 25 18 57 51
71 72 29 42 46 53 20 13z m-1852 0 c3 -8 2 -14 -2 -12 -14 4 -54 -41 -47 -53
5 -8 10 -7 18 4 10 13 15 13 30 1 10 -7 14 -16 9 -19 -6 -3 -13 2 -16 11 -6
15 -8 15 -16 3 -10 -16 7 -43 21 -34 9 5 62 -26 55 -33 -6 -6 -105 38 -105 46
3 22 -15 49 -29 44 -12 -5 -12 -1 4 19 12 16 27 25 42 23 12 -1 22 2 22 6 0
14 7 11 14 -6z m43 -51 c-3 -3 -12 -4 -19 -1 -8 3 -5 6 6 6 11 1 17 -2 13 -5z
m253 -81 c30 -42 56 -79 58 -83 6 -15 -222 40 -237 56 -5 6 8 4 77 -11 17 -4
21 -2 16 6 -10 17 -13 69 -4 69 5 0 10 -8 13 -17 3 -15 4 -14 4 2 1 44 3 55
11 55 4 0 32 -35 62 -77z m380 29 c0 -5 -7 -9 -15 -9 -8 0 -12 4 -9 9 3 4 9 8
15 8 5 0 9 -4 9 -8z m438 -129 c-10 -2 -26 -2 -35 0 -10 3 -2 5 17 5 19 0 27
-2 18 -5z m272 -22 c0 -16 2 -44 5 -62 4 -29 3 -30 -4 -9 -5 14 -9 39 -10 57
-1 24 -6 33 -23 36 -20 4 -19 4 5 6 23 1 27 -3 27 -28z m-102 12 c-26 -2 -71
-2 -100 0 -29 2 -8 3 47 3 55 0 79 -1 53 -3z m-227 -55 c-7 -24 -12 -47 -11
-52 1 -5 -4 -13 -12 -18 -18 -12 29 -51 54 -45 9 3 16 0 15 -6 -3 -16 61 -36
119 -36 64 -1 115 9 108 20 -3 5 1 7 8 4 21 -7 69 41 62 62 -5 17 -5 17 6 1
16 -26 44 -23 37 3 -4 15 -2 19 9 15 8 -3 14 -1 14 4 0 12 70 13 89 1 9 -6 -5
-8 -35 -5 -51 3 -44 -1 19 -11 43 -7 48 -25 13 -52 -34 -27 -55 -75 -63 -140
l-6 -58 -114 -100 c-63 -55 -128 -111 -144 -123 l-29 -24 -73 62 c-39 34 -112
94 -160 133 -73 59 -87 75 -82 92 4 11 9 45 12 75 4 47 2 58 -16 74 -34 31
-27 52 23 65 57 14 52 15 76 -11 l21 -23 19 22 c10 13 24 45 31 73 7 27 15 48
17 45 3 -2 -1 -24 -7 -47z m-37 27 c-4 -8 -13 -15 -21 -15 -13 0 -13 3 -3 15
7 8 16 15 21 15 5 0 6 -7 3 -15z m229 -172 c-7 -2 -19 -2 -25 0 -7 3 -2 5 12
5 14 0 19 -2 13 -5z m-489 -39 c24 -9 21 -61 -4 -69 -35 -11 -60 3 -60 35 0
35 26 49 64 34z m141 -165 c19 -17 47 -41 64 -53 16 -11 72 -58 125 -103 67
-57 101 -80 114 -76 11 2 77 56 148 118 71 63 132 115 137 115 4 0 7 -10 7
-23 0 -15 -33 -56 -105 -127 -58 -58 -105 -109 -105 -115 0 -6 55 -87 123
-181 68 -93 127 -176 132 -184 5 -8 -63 54 -151 137 -102 98 -167 153 -180
153 -14 0 -72 -51 -175 -155 -84 -85 -156 -155 -161 -155 -4 0 47 78 114 173
67 94 123 179 125 187 3 10 -48 66 -130 148 -105 103 -134 137 -130 152 7 26
7 26 48 -11z m-197 -46 c2 -24 -1 -33 -17 -38 -36 -11 -61 3 -61 35 0 31 12
40 50 37 20 -2 26 -8 28 -34z m261 -117 l123 -124 -94 -133 c-53 -74 -114
-163 -137 -198 -39 -61 -52 -101 -32 -101 18 0 134 105 259 234 l123 127 97
-90 c53 -50 140 -131 192 -181 89 -84 120 -104 120 -79 0 19 -22 53 -163 247
l-140 194 100 100 99 99 61 -168 c34 -92 64 -179 68 -193 4 -14 15 -38 25 -55
9 -16 29 -83 44 -148 25 -105 29 -117 44 -105 12 10 14 10 8 1 -7 -12 5 -18
27 -14 5 1 6 -3 2 -9 -3 -5 -2 -10 3 -10 6 0 13 -8 16 -17 6 -14 2 -12 -17 5
-37 35 -107 23 -107 -18 0 -24 6 -24 -55 -1 -166 63 -449 65 -710 7 -38 -9
-117 -20 -175 -26 -58 -5 -115 -12 -127 -16 -20 -6 -21 -4 -12 33 28 116 39
179 34 192 -3 9 -3 12 1 8 14 -13 54 92 89 234 34 140 95 329 105 329 3 0 61
-56 129 -124z m-324 -42 c32 -32 0 -72 -48 -60 -46 11 -29 74 20 76 6 0 19 -7
28 -16z m-51 -186 c23 -37 -35 -76 -70 -48 -19 17 -18 47 4 59 24 15 53 9 66
-11z m1156 -151 c13 -5 13 -6 -1 -6 -8 -1 -24 6 -35 15 -19 15 -19 15 1 6 11
-5 27 -12 35 -15z m45 -43 c9 -50 1 -52 -12 -4 -5 22 -7 40 -3 40 4 0 11 -16
15 -36z m-1187 -11 c-10 -2 -18 -12 -18 -20 0 -9 -3 -14 -6 -10 -12 11 5 37
23 36 17 -1 17 -2 1 -6z m-36 -81 c-6 -16 -7 -47 -2 -70 5 -28 4 -39 -3 -35
-6 4 -8 0 -4 -10 4 -11 2 -14 -8 -10 -9 3 -18 -4 -24 -18 -11 -31 -4 -42 19
-29 10 5 25 10 32 10 7 0 -7 -9 -31 -20 -24 -11 -45 -20 -46 -20 -11 0 23 78
38 89 13 9 18 23 16 50 -3 38 9 106 18 97 3 -3 1 -18 -5 -34z m1247 -12 c0 -9
-4 -8 -9 5 -5 11 -9 27 -9 35 0 9 4 8 9 -5 5 -11 9 -27 9 -35z m21 -94 c0 -6
-7 2 -15 18 -8 15 -15 33 -15 40 0 6 7 -2 15 -18 8 -15 15 -33 15 -40z m-295
-20 c89 -21 196 -75 212 -107 7 -13 13 -61 13 -106 l0 -82 -157 0 c-242 0
-523 -35 -946 -118 -130 -25 -240 -43 -244 -39 -4 4 -1 19 7 33 14 25 26 28
205 60 270 47 863 162 908 175 20 6 37 17 37 25 0 17 -57 17 -285 -2 -298 -24
-805 -54 -820 -48 -9 3 -15 18 -15 34 0 24 8 35 45 58 25 16 78 39 117 52 68
22 88 24 273 23 113 -1 305 -10 442 -23 133 -11 251 -21 262 -21 28 0 27 18
-1 25 -32 7 -498 45 -561 45 -75 1 -40 16 63 29 120 14 360 7 445 -13z m237
-3 c9 -10 22 -37 29 -60 15 -52 44 -61 34 -10 -4 17 -8 37 -9 42 -2 15 47 18
65 3 10 -8 25 -61 42 -149 27 -139 61 -249 78 -249 14 0 11 21 -11 90 -23 72
-64 269 -57 276 11 12 40 -12 57 -48 24 -51 48 -168 99 -480 44 -269 98 -468
128 -468 8 0 13 6 10 13 -32 83 -72 234 -88 331 -11 67 -21 129 -23 139 -2 9
-3 17 -1 17 6 0 229 -292 287 -375 30 -44 79 -119 108 -167 58 -97 65 -133 41
-218 l-13 -45 -14 55 c-8 30 -29 78 -46 105 -18 28 -52 88 -76 133 -28 53 -48
80 -54 74 -12 -12 29 -105 86 -190 37 -55 51 -90 81 -203 37 -143 41 -165 24
-136 -13 23 -73 23 -119 -1 -38 -19 -59 -52 -67 -110 -6 -49 -22 -90 -36 -95
-7 -2 -43 6 -82 19 -94 31 -128 31 -154 -2 l-20 -25 -40 79 c-82 163 -213 600
-247 823 -14 91 -14 142 -4 406 12 327 13 318 -41 381 -16 18 -29 39 -29 47 0
21 43 19 62 -2z m-462 -199 c-36 -8 -247 -48 -469 -90 -419 -78 -420 -78 -421
-34 0 9 12 30 28 47 27 32 28 32 162 42 74 6 252 18 395 27 143 9 262 18 264
20 2 2 27 4 55 3 l51 -1 -65 -14z m-870 -30 c0 -3 -11 -19 -25 -36 -26 -31
-32 -67 -16 -97 13 -24 -2 -45 -26 -37 -20 6 -43 45 -43 71 0 18 82 105 98
105 7 0 12 -3 12 -6z m1139 -88 c-7 -7 -294 -65 -422 -86 -122 -20 -275 -25
-312 -11 -43 17 433 83 714 100 13 0 22 -1 20 -3z m136 -266 c0 -127 -4 -200
-10 -200 -5 0 -5 -4 2 -8 7 -4 13 -38 15 -79 2 -39 5 -69 7 -67 5 5 15 -29 62
-214 17 -68 29 -125 27 -127 -1 -2 -15 -1 -30 2 l-27 5 21 18 c15 11 18 19 10
24 -7 4 -12 1 -12 -8 0 -16 -31 -24 -105 -27 -27 -1 -60 -8 -71 -15 -17 -10
-29 -10 -51 -2 -21 8 -48 8 -91 1 -34 -5 -59 -6 -56 -2 2 4 -1 11 -7 15 -7 4
-9 3 -6 -3 6 -10 -30 -51 -36 -42 -8 11 -97 252 -97 264 0 7 -11 47 -25 88
-34 100 -55 215 -45 241 8 22 11 18 40 -59 4 -11 13 -33 19 -48 6 -16 8 -33 5
-39 -4 -6 -2 -8 3 -5 6 4 34 -45 67 -121 68 -154 72 -160 86 -146 7 7 7 26 1
59 -5 27 -6 55 -3 63 3 9 1 13 -5 9 -6 -4 -13 6 -16 22 -3 16 -9 40 -13 55 -9
36 4 33 80 -19 37 -25 70 -45 75 -45 5 0 14 -7 21 -15 15 -18 40 -20 40 -4 0
17 -97 133 -179 213 -38 38 -68 73 -65 78 3 5 1 7 -5 6 -7 -2 -29 29 -50 68
l-39 72 77 -5 c81 -4 162 6 168 22 7 24 -16 36 -73 37 l-59 1 70 22 c39 12 88
30 110 39 83 36 131 57 145 66 8 5 17 9 20 9 3 1 5 -89 5 -199z m-653 62 c-4
-10 -22 -45 -41 -79 -33 -58 -37 -61 -68 -58 -18 1 -30 -1 -27 -6 3 -5 10 -7
15 -4 25 16 -1 -17 -103 -131 -62 -69 -115 -130 -117 -136 -2 -6 3 -14 10 -19
19 -12 57 -11 61 0 5 16 128 141 128 131 0 -4 -9 -29 -19 -54 -11 -25 -23 -61
-27 -81 -3 -19 -10 -33 -14 -30 -5 3 -11 1 -15 -5 -4 -6 6 -9 27 -8 19 2 32
-1 31 -8 -1 -6 4 -11 12 -11 8 0 12 8 9 20 -2 13 21 56 63 116 61 89 98 137
78 102 -5 -10 -4 -12 4 -7 6 4 9 12 6 17 -4 5 1 19 9 30 l15 22 7 -27 c14 -59
-36 -368 -82 -500 -19 -55 -34 -101 -34 -102 0 -1 -16 2 -37 8 -23 6 -44 6
-57 0 -71 -32 -92 -33 -226 -17 -27 3 -31 2 -20 -6 12 -9 10 -10 -8 -6 -12 3
-20 2 -17 -3 6 -10 -30 -20 -71 -20 -20 0 -39 9 -54 25 -29 30 -108 54 -179
52 -29 0 -46 -3 -37 -7 13 -4 11 -8 -11 -21 -32 -19 -93 -8 -93 15 0 32 12 46
35 40 13 -3 26 0 30 7 5 8 4 10 -4 5 -7 -4 -18 -5 -26 -2 -12 4 -10 17 11 73
15 37 30 79 34 93 9 26 9 26 15 -4 5 -27 22 -41 20 -16 -1 11 -8 28 -17 36
-13 14 -14 24 -2 77 7 34 15 88 19 119 4 32 11 56 15 53 4 -2 5 7 2 20 -3 20
9 38 66 95 43 43 83 95 103 136 38 73 30 71 149 39 36 -9 69 -20 73 -25 5 -4
-13 -16 -40 -26 -26 -10 -60 -26 -75 -36 -14 -10 -30 -18 -36 -18 -5 0 -15 -6
-22 -14 -6 -8 -17 -13 -25 -10 -7 3 -15 1 -18 -3 -3 -5 37 -9 89 -9 52 1 88 3
82 5 -7 2 23 13 67 23 44 10 105 31 136 47 43 21 60 26 69 17 9 -8 11 -7 8 4
-2 8 3 14 10 13 6 -2 12 2 12 7 0 13 -17 13 -25 -1 -5 -7 -11 -5 -18 4 -7 8
-33 20 -59 27 -34 9 -45 16 -41 27 4 11 15 13 38 9 21 -4 36 -2 43 6 7 9 34
12 91 10 70 -3 79 -5 73 -20z m-618 -12 c-3 -8 -11 -27 -16 -42 -5 -16 -14
-28 -20 -28 -5 0 -7 -3 -5 -7 3 -5 -13 -28 -35 -53 -25 -28 -38 -37 -34 -25 3
11 8 32 12 48 6 25 15 32 37 28 5 -1 6 3 2 9 -3 6 -11 7 -17 4 -7 -5 -8 5 -3
32 9 51 9 51 50 50 27 -1 34 -4 29 -16z m752 -642 c18 -143 19 -167 6 -192
l-14 -29 -24 25 -25 24 10 145 c6 79 11 154 11 167 0 12 4 22 8 22 4 0 17 -73
28 -162z m608 -134 c34 -10 65 -21 70 -25 13 -12 77 -201 70 -208 -3 -3 -44
-6 -90 -7 -71 0 -89 -4 -115 -23 -25 -19 -38 -22 -72 -17 -109 17 -143 17
-187 1 -67 -25 -107 -29 -133 -13 -12 8 -52 27 -90 42 -66 28 -67 29 -62 60 3
17 7 45 9 61 4 46 22 72 56 84 26 8 38 7 68 -9 l36 -20 31 29 c53 52 123 66
171 35 21 -15 28 -15 52 -3 67 33 102 36 186 13z m-1401 -50 c18 -9 45 -27 60
-40 34 -29 85 -31 170 -9 37 9 77 13 115 9 38 -4 71 -2 100 8 40 13 50 13 110
-4 81 -22 118 -23 157 -2 28 14 31 14 47 -6 23 -28 23 -47 -2 -113 -30 -80
-48 -92 -134 -92 -52 0 -79 -5 -99 -17 -33 -22 -100 -24 -117 -3 -16 20 -44
19 -61 -1 -11 -13 -25 -15 -82 -9 -38 3 -84 14 -103 22 -30 15 -38 15 -91 1
-32 -9 -72 -21 -89 -28 -61 -26 -132 19 -159 100 -17 50 -45 80 -76 80 -9 0
-24 11 -33 25 -16 24 -15 27 6 55 25 35 22 34 51 16 42 -26 71 -27 118 -1 53
29 70 30 112 9z m1383 -241 c-10 -10 -19 5 -10 18 6 11 8 11 12 0 2 -7 1 -15
-2 -18z m-26 -1 c0 -14 -48 -32 -84 -32 -19 0 -49 7 -67 16 -21 9 -24 12 -9 8
57 -15 115 -15 135 0 24 18 25 19 25 8z m-203 -9 c-13 -3 -17 -12 -15 -31 3
-24 8 -28 58 -35 74 -11 163 0 156 19 -3 8 0 14 5 14 7 0 9 -11 5 -27 -3 -16
-9 -60 -12 -100 -9 -95 15 -147 89 -196 29 -19 59 -36 67 -39 10 -4 4 -8 -15
-13 -70 -18 -156 -81 -170 -126 -5 -14 -15 -19 -43 -18 -37 1 -99 16 -74 18 9
1 4 15 -13 46 l-27 45 26 56 c38 83 35 126 -19 243 -51 112 -57 152 -22 150
17 -1 18 -2 4 -6z m-1007 -33 c11 -8 8 -9 -13 -4 -25 6 -27 5 -18 -17 6 -18
19 -26 52 -32 88 -15 118 -15 130 0 10 12 8 13 -14 9 -15 -2 -29 -2 -31 2 -2
4 11 8 30 9 19 1 34 0 34 -1 0 -2 -16 -30 -35 -62 -71 -118 -71 -179 0 -288
25 -37 45 -77 45 -87 0 -25 -49 -47 -122 -54 -52 -6 -54 -5 -73 27 -23 37
-110 93 -170 109 -22 6 -46 13 -54 15 -8 3 19 24 61 49 80 47 134 99 144 141
7 29 -1 149 -11 177 -8 20 19 24 45 7z m83 -27 c-7 -2 -19 -2 -25 0 -7 3 -2 5
12 5 14 0 19 -2 13 -5z m-513 -391 c-8 -3 -28 -18 -44 -34 -20 -21 -27 -36
-23 -53 3 -21 0 -25 -18 -25 -34 0 -50 25 -37 56 7 13 20 27 29 30 10 3 36 14
58 24 22 9 42 15 45 12 3 -2 -2 -7 -10 -10z m230 -8 c77 -23 165 -83 147 -100
-3 -4 -76 -7 -162 -8 -128 -1 -157 2 -165 14 -14 22 -13 28 15 55 13 14 36 25
50 25 14 0 28 7 31 15 8 19 18 19 84 -1z m1555 -4 c-6 -18 -2 -20 35 -20 30 0
47 -6 65 -25 14 -13 25 -28 25 -33 0 -13 -112 -21 -199 -14 l-70 5 19 27 c11
16 43 40 72 54 62 31 61 31 53 6z m239 -11 c64 -30 101 -63 90 -81 -3 -4 -22
-8 -43 -8 -33 0 -38 3 -46 32 -12 38 -54 71 -85 66 -21 -3 -19 -5 16 -28 49
-31 54 -65 10 -65 -20 0 -30 5 -32 18 -1 10 -9 28 -17 41 -14 21 -14 25 1 40
22 22 30 21 106 -15z m-571 -20 c-4 -12 0 -25 8 -31 12 -8 11 -9 -1 -5 -9 2
-16 18 -18 36 -2 20 1 31 6 27 6 -3 8 -15 5 -27z m-1427 -1 c-3 -13 -6 -33 -6
-45 0 -18 -6 -23 -24 -23 -14 0 -28 5 -31 11 -12 18 4 55 27 67 34 16 41 14
34 -10z m613 -85 c10 -35 -2 -63 -28 -63 -36 0 -42 53 -8 80 26 21 25 22 36
-17z m804 22 c22 -9 -1 -85 -26 -85 -17 0 -18 5 -12 37 10 54 12 57 38 48z
m-1577 -23 c6 -4 13 -22 16 -40 6 -40 -18 -45 -32 -6 -18 46 -11 64 16 46z
m1654 -16 c0 -37 -10 -56 -31 -56 -21 0 -22 3 -13 49 8 39 44 45 44 7z m-968
-17 c5 -34 -17 -53 -33 -28 -16 26 -11 59 10 59 13 0 20 -9 23 -31z m1044 9
c-3 -13 -6 -29 -6 -35 0 -7 -9 -13 -20 -13 -16 0 -20 7 -20 35 0 31 3 35 26
35 22 0 25 -3 20 -22z m64 -13 c0 -29 -4 -35 -21 -35 -17 0 -20 4 -15 23 3 12
6 28 6 35 0 6 7 12 15 12 10 0 15 -11 15 -35z m70 0 c0 -28 -4 -35 -20 -35
-21 0 -24 10 -14 48 10 36 34 27 34 -13z m68 3 c-2 -21 -8 -33 -18 -33 -10 0
-16 12 -18 33 -3 27 0 32 18 32 18 0 21 -5 18 -32z m62 -3 c0 -24 -5 -35 -15
-35 -10 0 -15 11 -15 35 0 24 5 35 15 35 10 0 15 -11 15 -35z m70 0 c0 -28 -4
-35 -20 -35 -15 0 -20 7 -20 28 0 32 7 42 27 42 8 0 13 -12 13 -35z m63 27
c10 -14 -6 -62 -19 -62 -9 0 -14 12 -14 35 0 24 5 35 14 35 8 0 17 -3 19 -8z
m137 -17 c0 -14 -8 -29 -20 -35 -18 -10 -20 -8 -20 19 0 20 6 31 18 34 9 3 18
5 20 6 1 0 2 -10 2 -24z m-2170 -19 c0 -29 -3 -33 -20 -29 -11 3 -20 8 -20 12
0 3 -3 16 -6 29 -5 19 -2 22 20 22 23 0 26 -4 26 -34z m64 18 c11 -29 6 -44
-14 -44 -16 0 -20 7 -20 30 0 32 23 42 34 14z m74 -17 c3 -22 -1 -27 -17 -27
-17 0 -21 6 -21 31 0 24 4 30 18 27 10 -2 18 -14 20 -31z m72 26 c0 -5 3 -18
6 -30 5 -20 2 -23 -20 -23 -22 0 -26 4 -26 30 0 23 4 30 20 30 11 0 20 -3 20
-7z m88 -25 c3 -24 0 -28 -22 -28 -22 0 -26 4 -26 31 0 26 3 30 23 27 16 -2
23 -11 25 -30z m64 2 c4 -24 1 -30 -14 -30 -13 0 -18 8 -18 30 0 40 26 40 32
0z m88 0 c0 -25 -4 -30 -25 -30 -14 0 -25 3 -25 8 0 4 -3 17 -6 30 -6 19 -3
22 25 22 28 0 31 -3 31 -30z m70 0 c0 -23 -4 -30 -20 -30 -16 0 -20 7 -20 30
0 23 4 30 20 30 16 0 20 -7 20 -30z m1580 6 c0 -26 -14 -41 -29 -32 -13 8 0
56 15 56 8 0 14 -10 14 -24z" />
        <path d="M2346 5932 c-2 -4 -1 -14 5 -22 5 -8 9 -32 9 -53 0 -26 4 -37 13 -35
17 6 20 42 7 83 -11 34 -23 44 -34 27z" />
        <path d="M1457 5893 c-12 -21 -18 -73 -8 -73 12 0 31 41 31 66 0 15 -16 19
-23 7z" />
        <path d="M1570 5865 c-12 -37 -9 -52 8 -41 15 9 24 58 14 68 -6 6 -14 -4 -22
-27z" />
        <path d="M1337 5863 c-10 -10 -8 -73 2 -73 7 0 21 46 21 71 0 11 -14 12 -23 2z" />
        <path d="M2465 5814 c8 -67 11 -72 26 -57 15 15 -1 105 -19 111 -11 3 -12 -8
-7 -54z" />
        <path d="M2920 5516 c0 -9 5 -16 10 -16 6 0 10 4 10 9 0 6 -4 13 -10 16 -5 3
-10 -1 -10 -9z" />
        <path d="M1000 5376 c0 -8 4 -17 9 -20 5 -4 7 3 4 14 -6 23 -13 26 -13 6z" />
        <path d="M944 5588 c-5 -13 -8 -25 -9 -28 0 -3 -7 -16 -14 -28 -11 -21 -10
-27 8 -46 12 -12 21 -28 21 -34 0 -7 5 -12 10 -12 12 0 13 27 2 34 -4 2 -7 34
-7 70 1 36 0 66 -1 66 -2 0 -6 -10 -10 -22z m1 -79 c11 -16 1 -19 -13 -3 -7 8
-8 14 -3 14 5 0 13 -5 16 -11z" />
        <path d="M903 5455 c0 -32 32 -40 35 -10 1 15 -5 25 -17 28 -14 3 -18 -1 -18
-18z m27 -5 c0 -5 -5 -10 -11 -10 -5 0 -7 5 -4 10 3 6 8 10 11 10 2 0 4 -4 4
-10z" />
        <path d="M1216 5325 c-38 -19 -75 -43 -82 -53 -7 -10 -31 -24 -54 -31 -22 -6
-38 -16 -35 -21 3 -6 -1 -7 -10 -4 -8 4 -27 -2 -43 -12 -15 -10 -30 -19 -34
-19 -10 0 -64 -58 -61 -65 1 -3 -23 -30 -53 -60 -61 -60 -72 -84 -51 -108 17
-20 31 -53 28 -66 -1 -5 5 -4 13 4 19 15 21 31 4 28 -8 -2 -12 6 -10 21 2 17
-2 22 -14 17 -22 -8 12 37 70 94 48 47 58 70 29 71 -14 0 -13 2 5 9 12 5 22
17 22 25 0 9 4 14 10 10 5 -3 6 -13 3 -22 -5 -12 -3 -14 7 -8 8 5 11 4 6 -3
-4 -6 -13 -9 -21 -5 -11 4 -13 1 -9 -11 3 -9 10 -13 15 -10 5 3 6 -2 3 -10 -3
-9 -9 -14 -12 -13 -4 1 -7 -2 -7 -8 0 -5 6 -9 12 -9 7 1 10 -3 6 -10 -14 -22
-11 -35 13 -50 13 -9 21 -22 18 -30 -3 -8 -1 -17 5 -21 7 -4 11 4 11 19 0 13
7 31 15 39 8 8 11 18 7 22 -4 5 -1 5 6 1 8 -5 21 -1 33 10 11 10 19 12 19 6 0
-7 -5 -12 -11 -12 -5 0 -7 -5 -4 -10 5 -8 11 -7 20 0 8 7 19 9 24 6 5 -4 12
-2 16 4 3 5 11 10 17 10 6 0 7 -5 2 -13 -5 -7 0 -3 11 10 12 13 26 23 33 23 7
0 12 4 12 10 0 5 -7 7 -15 4 -18 -7 -20 11 -3 22 6 4 17 -1 25 -11 11 -17 17
-14 14 7 0 4 7 4 17 1 14 -6 15 -4 4 9 -7 9 -21 14 -32 11 -11 -3 -20 0 -20 6
0 20 -20 11 -32 -14 -6 -14 -18 -25 -27 -24 -10 0 -12 2 -3 6 19 7 14 31 -8
38 -18 6 -15 11 29 46 27 21 54 39 60 39 15 0 44 47 36 60 -9 14 -25 13 -20
-2 2 -8 -15 -22 -40 -34 -24 -11 -43 -18 -42 -15 1 3 -2 6 -8 6 -5 0 -9 -5 -7
-12 1 -7 -11 -22 -27 -34 -24 -18 -28 -26 -20 -41 7 -13 6 -18 -4 -18 -14 0
-17 34 -4 46 18 18 4 23 -24 8 -28 -14 -33 -14 -46 -1 -13 12 -13 15 1 20 10
4 13 1 9 -9 -8 -22 16 -16 41 11 20 21 60 43 91 50 6 2 33 16 60 32 28 16 58
32 68 36 13 5 26 37 15 37 -2 0 -34 -16 -72 -35z m-218 -162 c5 -17 -10 -16
-33 1 -18 13 -18 13 5 12 13 0 25 -7 28 -13z m22 -23 c0 -5 -7 -10 -16 -10 -8
0 -12 5 -9 10 3 6 10 10 16 10 5 0 9 -4 9 -10z m30 -20 c0 -5 -5 -10 -11 -10
-5 0 -7 5 -4 10 3 6 8 10 11 10 2 0 4 -4 4 -10z m56 -17 c-10 -10 -19 5 -10
18 6 11 8 11 12 0 2 -7 1 -15 -2 -18z m-56 -33 c0 -5 -7 -10 -16 -10 -8 0 -12
5 -9 10 3 6 10 10 16 10 5 0 9 -4 9 -10z m105 0 c-3 -5 -12 -10 -20 -10 -7 0
-16 -6 -18 -12 -4 -10 -6 -10 -6 0 -1 7 9 17 22 22 29 12 29 12 22 0z m-150
-40 c0 -7 -7 -16 -15 -18 -13 -5 -13 -3 -1 11 16 20 2 23 -19 5 -12 -11 -12
-10 -1 5 15 20 36 18 36 -3z" />
        <path d="M2545 5351 c-6 -10 120 -81 143 -81 7 0 10 -5 7 -10 -4 -6 -16 -8
-27 -4 -18 5 -19 4 -7 -9 8 -8 20 -12 28 -9 9 3 12 1 7 -6 -3 -6 -2 -14 4 -17
6 -4 10 -3 9 2 -7 41 -1 42 75 15 63 -23 71 -28 53 -35 -14 -5 -25 -4 -32 6
-5 7 -19 16 -30 19 -11 3 -29 9 -39 14 -13 5 -17 4 -13 -4 4 -6 21 -13 37 -17
24 -5 30 -12 30 -33 -1 -45 -19 -59 -72 -57 -27 2 -48 -2 -48 -7 0 -6 -11 -8
-25 -6 -20 4 -23 3 -14 -8 7 -9 7 -14 1 -14 -12 0 -30 21 -30 35 -1 19 -19 15
-48 -11 -27 -24 -28 -25 -5 -19 14 4 21 3 17 -3 -3 -5 22 -29 55 -53 34 -24
80 -61 103 -81 22 -21 44 -38 49 -38 4 0 20 -21 36 -46 26 -40 30 -43 40 -27
7 12 11 13 11 4 0 -7 6 -11 15 -7 8 3 15 1 15 -3 0 -14 -28 -21 -34 -8 -2 7
-5 2 -5 -11 -1 -13 3 -21 8 -18 5 4 12 -8 16 -25 11 -48 31 -93 38 -82 3 5 -1
22 -9 38 -8 16 -13 33 -10 39 2 6 8 0 13 -13 6 -15 12 -20 17 -13 4 6 1 20 -5
30 -10 16 -8 24 13 47 18 19 32 26 44 21 14 -5 15 -4 5 8 -7 8 -10 20 -6 26 3
5 1 10 -5 10 -6 0 -9 4 -5 9 3 5 0 13 -6 17 -8 4 -9 3 -5 -4 4 -7 2 -12 -4
-12 -7 0 -10 6 -7 13 2 6 1 20 -2 29 -5 14 -9 14 -24 4 -22 -17 -13 -44 18
-52 15 -4 22 -11 18 -20 -4 -10 -13 -5 -33 19 -99 112 -99 112 -111 100 -9 -9
-3 -22 30 -59 22 -26 41 -51 41 -56 0 -6 11 -7 26 -4 17 5 23 3 19 -4 -9 -15
-52 -12 -69 6 -9 8 -14 19 -11 24 3 4 -2 13 -10 20 -12 10 -18 10 -30 0 -12
-10 -16 -9 -21 4 -3 9 -9 14 -13 12 -11 -7 -29 21 -21 34 5 8 9 9 14 1 4 -6 4
-11 0 -11 -10 0 28 -29 39 -30 12 0 8 18 -9 35 -15 14 -14 18 10 40 15 13 23
30 20 38 -3 8 0 18 6 22 7 4 9 -3 6 -22 -8 -44 53 -105 68 -68 3 8 1 17 -4 20
-6 4 -10 1 -10 -5 0 -6 -5 -8 -10 -5 -6 4 -7 11 -4 17 4 7 2 8 -4 4 -16 -10
-34 3 -25 17 4 7 8 18 9 25 3 18 3 18 44 26 24 4 30 3 20 -3 -8 -6 -12 -13 -8
-16 3 -4 15 -1 27 6 14 9 17 17 10 25 -7 9 -4 14 10 19 12 3 21 11 21 16 0 6
-3 8 -8 5 -4 -2 -16 2 -27 10 -10 8 -14 14 -8 14 7 0 15 -5 18 -10 4 -6 11 -8
16 -5 17 11 31 -6 18 -21 -6 -7 -9 -21 -5 -29 3 -9 2 -13 -3 -10 -5 3 -13 1
-16 -5 -4 -6 7 -15 23 -21 19 -7 36 -23 47 -45 9 -19 20 -32 26 -29 20 13 7
49 -30 86 -21 22 -33 39 -26 39 7 0 15 -5 17 -12 3 -8 9 -8 23 -1 16 10 14 13
-24 38 -75 46 -184 101 -251 125 -36 13 -76 33 -90 45 -20 18 -111 65 -126 65
-1 0 -5 -4 -9 -9z m338 -158 c4 -3 -9 -17 -29 -31 -44 -29 -53 -24 -20 11 25
27 37 32 49 20z m23 -44 c-13 -10 -27 -19 -30 -19 -11 0 -6 29 6 36 7 5 8 3 3
-6 -5 -8 -3 -11 6 -8 8 3 13 10 12 16 -2 6 4 9 12 6 12 -5 10 -10 -9 -25z
m-101 -19 c3 -5 1 -10 -4 -10 -6 0 -11 5 -11 10 0 6 2 10 4 10 3 0 8 -4 11
-10z m-206 -7 c-4 -22 4 -33 34 -52 17 -11 25 -21 17 -21 -8 0 0 -10 18 -21
18 -12 31 -24 28 -26 -2 -3 -22 7 -43 21 -20 14 -31 26 -23 26 8 1 -1 9 -20
20 -19 11 -31 19 -26 20 5 0 3 6 -3 14 -11 13 -8 17 17 25 1 1 1 -2 1 -6z
m275 -14 c9 -13 19 -18 28 -14 10 6 10 5 1 -5 -10 -11 -17 -9 -37 13 -14 15
-21 27 -16 27 5 0 16 -9 24 -21z m36 11 c0 -5 -4 -10 -10 -10 -5 0 -10 5 -10
10 0 6 5 10 10 10 6 0 10 -4 10 -10z m34 1 c3 -5 -1 -11 -9 -14 -9 -4 -12 -1
-8 9 6 16 10 17 17 5z m-225 -15 c-2 -2 -15 -9 -29 -16 -23 -12 -24 -12 -11 3
7 10 20 17 29 17 8 0 13 -2 11 -4z m131 -11 c7 -9 8 -15 2 -15 -5 0 -12 7 -16
15 -3 8 -4 15 -2 15 2 0 9 -7 16 -15z m-38 -32 c-3 -16 -7 -22 -10 -15 -4 13
4 42 11 42 2 0 2 -12 -1 -27z m-92 7 c0 -5 -7 -10 -15 -10 -8 0 -15 5 -15 10
0 6 7 10 15 10 8 0 15 -4 15 -10z m-14 -34 c3 -8 13 -12 22 -9 15 4 15 3 2 -6
-13 -10 -13 -12 0 -21 12 -7 12 -12 2 -22 -9 -9 -12 -8 -12 5 0 10 -11 29 -25
42 -17 18 -20 25 -9 25 8 0 17 -6 20 -14z m104 -16 c0 -5 -4 -10 -9 -10 -6 0
-13 5 -16 10 -3 6 1 10 9 10 9 0 16 -4 16 -10z m16 -115 c-3 -8 -1 -15 4 -15
6 0 10 -5 10 -12 0 -8 -6 -7 -16 4 -9 9 -13 21 -10 27 10 16 19 13 12 -4z m82
-85 c-12 -16 -23 -30 -25 -30 -7 0 3 25 17 42 24 30 32 20 8 -12z" />
        <path d="M1250 5285 c7 -9 15 -13 17 -11 7 7 -7 26 -19 26 -6 0 -6 -6 2 -15z" />
        <path d="M2625 5281 c3 -5 -1 -12 -7 -14 -8 -4 -7 -6 4 -6 23 -1 32 15 12 23
-8 3 -13 2 -9 -3z" />
        <path d="M1184 5264 c-18 -14 -18 -14 6 -3 31 14 36 19 24 19 -6 0 -19 -7 -30
-16z" />
        <path d="M1250 5234 c-13 -13 -31 -24 -38 -24 -7 0 -10 -4 -7 -10 3 -6 22 1
45 15 22 14 44 25 49 25 5 0 12 4 15 9 12 19 -41 7 -64 -15z" />
        <path d="M2590 5236 c0 -8 10 -18 21 -21 17 -6 19 -9 8 -17 -10 -7 -9 -8 6 -4
11 3 33 -3 50 -14 34 -22 55 -26 55 -9 0 14 -23 33 -72 59 -44 24 -68 26 -68
6z" />
        <path d="M1276 5217 c-22 -12 -50 -33 -63 -46 -13 -13 -23 -18 -23 -11 0 10
-4 9 -17 -1 -14 -12 -16 -12 -11 1 3 8 13 14 22 14 9 -1 16 2 16 7 0 16 -21
10 -51 -15 -30 -25 -20 -42 14 -24 12 6 23 6 32 -2 10 -8 26 -3 69 25 50 32
93 41 106 23 3 -4 12 -3 20 2 13 8 12 10 -2 10 -10 0 -22 9 -28 20 -14 25 -35
25 -84 -3z" />
        <path d="M1080 5220 c-12 -8 -9 -10 13 -10 15 0 27 5 27 10 0 13 -20 13 -40 0z" />
        <path d="M2566 5222 c-3 -6 1 -13 10 -16 23 -9 28 -2 10 13 -8 7 -17 8 -20 3z" />
        <path d="M2727 5202 c6 -4 17 -21 23 -37 12 -30 12 -30 23 -8 12 28 -5 53 -37
53 -13 0 -17 -3 -9 -8z m40 -34 c-3 -8 -6 -5 -6 6 -1 11 2 17 5 13 3 -3 4 -12
1 -19z" />
        <path d="M1253 5146 c-23 -13 -21 -26 4 -26 8 0 11 5 7 12 -5 7 -2 9 9 5 11
-4 14 -2 10 9 -3 7 -6 14 -7 13 0 -1 -11 -7 -23 -13z" />
        <path d="M850 5100 c0 -6 -4 -9 -9 -6 -5 3 -14 -1 -21 -9 -7 -8 -20 -15 -28
-15 -13 0 -12 -3 4 -15 16 -13 16 -14 2 -9 -16 6 -23 -4 -19 -28 0 -5 -3 -8
-9 -8 -5 0 -10 -4 -10 -10 0 -21 20 -9 26 15 3 14 10 23 14 20 4 -3 13 2 20
10 7 8 9 15 4 15 -5 0 4 9 19 19 18 11 25 21 18 25 -6 4 -11 2 -11 -4z" />
        <path d="M3052 5083 c-6 -2 -10 -9 -7 -13 3 -5 13 -6 22 -3 11 4 14 2 9 -5
-12 -20 4 -61 23 -57 10 2 24 -1 32 -7 11 -8 11 -9 -3 -4 -10 3 -23 -1 -30 -7
-18 -18 -43 -26 -54 -19 -5 4 -15 20 -22 36 -10 22 -15 26 -26 17 -10 -8 -16
-9 -21 -1 -3 5 -1 10 6 10 7 0 4 6 -6 14 -11 8 -25 11 -33 8 -7 -2 -10 -8 -5
-11 5 -3 16 -16 25 -29 14 -21 17 -22 32 -7 9 9 16 11 16 5 0 -6 -7 -13 -15
-16 -8 -4 -15 -10 -15 -16 0 -5 5 -6 12 -2 7 5 9 2 6 -8 -5 -11 0 -14 20 -11
26 3 26 3 5 -6 -13 -6 -23 -16 -23 -23 0 -9 3 -9 11 2 9 12 10 12 5 -4 -4 -11
-1 -23 6 -28 9 -5 10 -8 1 -8 -6 0 -15 5 -18 10 -8 12 -25 13 -25 2 0 -5 12
-14 26 -21 25 -11 29 -9 60 26 29 31 36 35 44 23 5 -8 10 -10 11 -5 0 6 2 18
4 28 4 21 -8 22 -25 2 -7 -8 -17 -15 -23 -15 -5 0 -15 -7 -22 -16 -10 -15 -12
-15 -12 -1 0 9 13 21 29 28 15 6 28 15 28 20 0 34 77 -32 102 -87 13 -28 17
-29 44 -10 18 14 18 15 -12 58 -16 24 -36 43 -44 43 -8 1 -14 6 -12 13 1 7 -4
11 -10 10 -7 -2 -12 2 -11 9 2 6 -16 28 -39 47 -43 37 -45 38 -66 29z m58 -43
c0 -5 -2 -10 -4 -10 -3 0 -8 5 -11 10 -3 6 -1 10 4 10 6 0 11 -4 11 -10z m115
-107 c14 -21 25 -42 25 -47 0 -7 -28 29 -54 72 -18 29 6 9 29 -25z" />
        <path d="M890 5042 c-14 -14 -18 -22 -10 -18 8 4 6 0 -4 -8 -11 -9 -24 -16
-29 -16 -4 0 -5 -4 -2 -10 3 -5 2 -10 -3 -10 -6 0 -9 -11 -8 -25 1 -24 16 -37
16 -14 0 6 7 8 16 5 10 -4 13 -2 8 6 -4 7 -3 8 4 4 8 -5 10 -1 5 10 -4 11 -3
15 5 10 7 -4 10 1 7 15 -3 17 -1 19 10 9 14 -12 27 0 32 30 1 12 -1 11 -11 -2
-7 -10 -16 -15 -20 -11 -3 3 1 14 10 24 25 28 1 30 -26 1z m-14 -58 c-3 -9 -6
-18 -6 -20 0 -2 -5 -4 -11 -4 -8 0 -9 4 0 13 6 8 8 17 4 20 -3 4 -1 7 6 7 8 0
11 -6 7 -16z" />
        <path d="M2870 5041 c0 -12 13 -27 30 -38 17 -10 40 -33 51 -52 14 -24 23 -31
31 -23 17 17 -29 87 -73 111 -38 22 -39 22 -39 2z" />
        <path d="M746 5034 c-9 -22 3 -32 14 -14 12 19 12 30 1 30 -5 0 -12 -7 -15
-16z" />
        <path d="M1044 5023 c-9 -3 -7 -13 4 -36 9 -18 17 -26 20 -18 2 7 -1 18 -7 24
-6 6 -11 15 -11 20 0 5 8 -1 18 -13 l17 -22 20 22 20 22 -25 -3 c-14 -2 -29
-1 -35 2 -5 4 -15 4 -21 2z" />
        <path d="M930 4989 c0 -6 -7 -8 -16 -5 -9 3 -12 2 -9 -5 9 -13 -25 -50 -38
-42 -6 3 -7 1 -3 -5 4 -6 -7 -30 -23 -53 -24 -33 -28 -45 -20 -60 5 -11 12
-19 15 -19 3 0 3 4 -1 9 -3 6 11 26 30 45 20 20 32 36 28 36 -4 0 8 16 27 35
18 19 36 33 39 31 3 -2 7 7 7 20 1 17 -3 24 -17 24 -10 0 -19 -5 -19 -11z" />
        <path d="M2915 4970 c6 -9 -8 -14 -28 -11 -5 1 -6 -3 -2 -9 4 -7 12 -7 26 0
17 9 19 30 3 30 -3 0 -2 -4 1 -10z" />
        <path d="M3127 4928 c-5 -16 32 -68 49 -68 6 0 11 -11 10 -25 -2 -35 -9 -31
-34 19 -24 51 -59 77 -68 51 -3 -8 -11 -12 -17 -8 -6 3 -7 1 -3 -6 4 -6 11 -9
16 -6 5 3 23 -17 41 -45 26 -41 37 -49 56 -46 20 4 22 2 13 -14 -6 -11 -17
-23 -26 -28 -9 -5 -17 -27 -19 -53 l-4 -44 34 60 c24 40 33 68 30 83 -4 18 -2
22 11 20 9 -2 20 6 25 19 6 17 5 21 -6 17 -8 -3 -11 -13 -8 -21 4 -11 2 -14
-5 -9 -7 4 -12 14 -12 22 0 8 -11 19 -25 24 -14 5 -25 17 -25 25 0 9 5 13 10
10 6 -4 8 -11 5 -16 -4 -5 -1 -9 4 -9 18 0 13 15 -12 38 -27 25 -34 27 -40 10z
m47 -203 c-4 -8 -8 -15 -10 -15 -2 0 -4 7 -4 15 0 8 4 15 10 15 5 0 7 -7 4
-15z" />
        <path d="M2986 4872 c-3 -6 -3 -12 2 -14 4 -1 25 -28 47 -58 21 -30 41 -57 43
-60 2 -3 11 4 19 15 15 20 15 20 10 -2 -4 -18 -1 -23 15 -23 17 0 18 2 8 15
-11 13 -10 14 3 10 8 -4 18 -1 23 6 4 7 3 10 -3 6 -10 -6 -18 10 -28 51 -8 34
-45 51 -45 21 0 -6 4 -8 9 -5 5 3 14 -1 20 -8 8 -10 9 -16 1 -21 -6 -3 -8 -11
-5 -16 4 -5 2 -9 -3 -9 -4 0 -19 15 -32 33 -23 31 -51 54 -59 48 -2 -1 -7 3
-11 9 -5 8 -10 9 -14 2z" />
        <path d="M3045 4869 c-4 -5 -1 -8 7 -7 7 2 12 -4 10 -14 -1 -9 1 -19 5 -21 5
-3 9 5 9 18 2 25 -21 42 -31 24z" />
        <path d="M2936 4814 c-15 -22 -16 -28 -5 -35 12 -7 12 -12 1 -29 -9 -14 -10
-26 -3 -38 7 -11 11 -12 11 -4 0 7 4 11 9 8 5 -4 11 -3 14 1 2 5 2 3 1 -4 -2
-6 2 -13 9 -16 8 -2 8 -5 -1 -11 -7 -4 -12 -2 -12 3 0 6 -5 11 -11 11 -6 0 -8
-7 -5 -16 5 -14 4 -15 -8 -5 -10 8 -16 9 -21 1 -3 -5 -1 -10 4 -10 6 0 11 -7
11 -16 0 -18 39 -71 48 -66 4 2 8 -2 11 -9 2 -7 -1 -9 -9 -4 -9 6 -9 3 0 -15
9 -17 14 -20 20 -9 8 12 -19 74 -28 64 -5 -5 -32 20 -32 30 0 3 5 3 10 0 6 -3
13 1 16 9 8 20 20 20 27 2 4 -10 1 -13 -7 -10 -8 3 -17 1 -21 -5 -3 -6 -3 -11
2 -12 4 0 16 -2 26 -4 9 -2 22 5 27 16 9 15 7 19 -6 19 -10 0 -14 5 -10 15 3
8 1 15 -4 15 -5 0 -6 8 -3 17 5 14 10 11 20 -16 11 -27 16 -31 28 -21 13 10
12 17 -1 48 -8 21 -23 51 -34 69 -10 17 -16 34 -12 36 4 2 2 2 -5 1 -7 -2 -15
1 -18 6 -10 15 -18 11 -39 -16z m37 -34 c10 -16 15 -30 10 -30 -4 0 -1 -5 7
-11 13 -9 13 -10 0 -6 -8 2 -16 9 -16 15 -3 25 -5 27 -15 12 -8 -12 -9 -10 -4
9 5 16 4 21 -4 17 -6 -4 -11 0 -11 8 0 25 14 19 33 -14z" />
        <path d="M3090 4814 c0 -8 5 -12 10 -9 6 4 8 11 5 16 -9 14 -15 11 -15 -7z" />
        <path d="M3015 4802 c3 -6 12 -24 20 -38 7 -14 15 -22 18 -17 3 4 -6 22 -20
38 -14 17 -22 24 -18 17z" />
        <path d="M3055 4730 c-3 -5 -1 -11 5 -15 5 -3 10 -3 10 2 0 10 20 -19 20 -30
0 -5 -4 -5 -10 -2 -5 3 -10 -1 -10 -9 0 -9 -5 -16 -10 -16 -6 0 -20 -11 -32
-25 -11 -13 -25 -22 -31 -18 -5 3 -7 0 -5 -8 3 -8 10 -13 16 -12 7 2 9 -4 5
-14 -5 -11 -3 -14 6 -9 8 6 7 -2 -3 -22 -12 -24 -13 -33 -3 -39 21 -13 36 -12
49 5 8 10 9 13 1 9 -6 -4 -14 -3 -18 3 -3 5 -1 10 5 10 14 0 35 21 36 38 2 28
4 33 13 27 15 -9 25 15 12 28 -9 9 -11 7 -6 -8 6 -16 5 -17 -4 -5 -9 12 -11
13 -11 1 0 -8 -3 -11 -6 -8 -4 4 -1 14 7 24 12 15 12 16 -5 10 -16 -6 -17 -5
-6 8 11 14 14 13 25 -2 17 -22 21 -18 28 30 3 22 2 37 -4 37 -6 0 -7 -4 -4
-10 3 -5 2 -10 -3 -10 -6 0 -12 6 -15 14 -6 16 -45 28 -52 16z m1 -150 c1 -16
-2 -27 -7 -24 -5 3 -7 10 -4 15 4 5 -1 16 -9 25 -9 9 -13 20 -10 26 10 16 28
-8 30 -42z m24 19 c0 -6 -4 -7 -10 -4 -5 3 -10 11 -10 16 0 6 5 7 10 4 6 -3
10 -11 10 -16z m-53 -71 c-3 -8 -6 -5 -6 6 -1 11 2 17 5 13 3 -3 4 -12 1 -19z" />
        <path d="M875 4640 c-4 -6 -11 -8 -16 -5 -5 3 -6 -1 -3 -9 5 -14 8 -14 21 0
14 13 17 13 28 -3 7 -9 11 -24 9 -33 -3 -8 1 -5 8 8 9 19 9 25 -1 32 -11 6
-11 9 0 13 8 3 2 6 -13 6 -15 1 -30 -4 -33 -9z" />
        <path d="M2439 5309 c18 -6 37 -7 42 -2 4 4 -11 9 -34 10 l-42 2 34 -10z" />
        <path d="M1440 4588 c-49 -30 -120 -106 -120 -129 0 -17 29 -9 35 11 3 10 28
39 55 64 99 88 205 84 296 -11 28 -29 54 -53 58 -53 32 0 -64 106 -119 131
-66 30 -141 25 -205 -13z" />
        <path d="M2343 4601 c-64 -24 -105 -52 -134 -92 -33 -47 -13 -47 34 -1 76 74
181 102 260 68 30 -12 78 -59 103 -102 14 -24 28 -13 19 15 -11 34 -55 80 -97
102 -58 30 -123 33 -185 10z" />
        <path d="M1520 4441 c-15 -29 -12 -46 10 -66 42 -38 106 17 74 64 -20 27 -69
28 -84 2z" />
        <path d="M2352 4448 c-33 -33 6 -96 52 -84 29 7 45 49 29 75 -13 20 -64 26
-81 9z" />
        <path d="M1993 4358 c3 -40 7 -84 9 -98 2 -16 -2 -25 -11 -25 -8 0 -16 -6 -18
-12 -6 -18 42 -16 57 2 9 11 9 22 1 46 -6 18 -11 50 -11 73 0 51 -9 86 -22 86
-6 0 -8 -27 -5 -72z" />
        <path d="M1340 4325 c0 -19 80 -71 130 -85 65 -18 142 -12 197 15 52 26 91 61
80 71 -3 4 -27 -8 -54 -25 -71 -47 -112 -57 -185 -43 -35 6 -78 23 -102 39
-66 45 -66 45 -66 28z" />
        <path d="M2220 4321 c0 -16 58 -59 95 -71 30 -10 35 -15 29 -33 -4 -12 -8 -23
-9 -25 -1 -1 -28 7 -59 19 -32 11 -60 18 -64 14 -11 -10 29 -35 75 -46 23 -6
44 -18 47 -26 5 -12 9 -13 21 -3 8 6 44 13 80 13 36 1 65 5 65 8 0 4 27 16 60
28 36 13 60 28 60 37 0 18 1 18 -51 -6 -53 -24 -65 -25 -73 -5 -4 11 3 19 22
26 34 13 92 57 92 70 0 16 -21 10 -51 -16 -72 -60 -205 -60 -293 0 -41 27 -46
29 -46 16z m253 -102 c-5 -18 -32 -29 -75 -29 -22 0 -28 5 -28 23 0 20 5 22
54 23 45 0 52 -3 49 -17z" />
        <path d="M1276 4203 c-23 -24 8 -153 60 -253 40 -75 70 -110 148 -173 115 -94
233 -132 446 -143 270 -14 469 56 581 203 53 69 109 203 117 277 l5 49 -39 -6
c-298 -47 -296 -47 -589 -47 -372 0 -542 19 -667 74 -31 14 -59 22 -62 19z
m105 -62 c97 -35 265 -52 560 -58 282 -6 445 6 604 42 33 7 61 12 63 10 5 -4
-17 -80 -40 -142 -14 -38 -25 -53 -38 -53 -17 0 -18 6 -13 50 5 42 3 50 -11
50 -11 0 -16 -9 -16 -32 0 -18 -4 -39 -9 -47 -14 -22 -28 -5 -23 29 2 18 0 30
-7 30 -6 0 -11 -8 -11 -17 0 -38 -12 -41 -90 -27 -176 31 -708 26 -918 -8 -62
-10 -75 -10 -83 2 -9 15 -42 121 -54 174 -7 32 -13 32 86 -3z m825 -225 c77
-20 167 -72 189 -108 17 -30 17 -31 -1 -46 -42 -32 -143 -72 -223 -88 -175
-34 -467 -4 -575 60 -80 48 -80 48 -56 79 33 41 93 68 215 93 132 27 367 33
451 10z" />
        <path d="M3520 4648 c0 -7 7 -22 15 -32 8 -11 15 -25 15 -32 0 -7 5 -25 11
-41 15 -40 29 -11 17 35 -16 58 -59 109 -58 70z" />
        <path d="M3467 4593 c-4 -3 2 -20 12 -37 10 -17 21 -43 25 -58 8 -33 26 -37
26 -6 0 25 -38 108 -49 108 -4 0 -11 -3 -14 -7z" />
        <path d="M3597 4303 c6 -96 7 -98 22 -88 12 7 13 105 2 144 -4 14 -12 26 -18
28 -8 3 -9 -22 -6 -84z" />
        <path d="M3530 4260 c0 -44 4 -80 9 -80 14 0 25 83 17 125 -12 62 -26 37 -26
-45z" />
        <path d="M3500 4020 c-22 -43 -25 -60 -10 -60 10 0 50 71 50 90 0 23 -21 8
-40 -30z" />
        <path d="M3234 4028 c-4 -7 -3 -8 4 -4 8 5 10 2 6 -8 -3 -9 -1 -16 5 -16 6 0
11 9 11 20 0 22 -15 27 -26 8z" />
        <path d="M3174 3975 c-19 -20 -32 -40 -29 -45 3 -5 1 -11 -5 -15 -16 -10 -12
-25 8 -25 18 0 121 69 121 83 2 22 -33 16 -68 -12 -42 -34 -68 -43 -32 -12 12
11 21 22 19 24 -2 3 1 9 6 14 5 5 6 2 1 -6 -5 -9 -4 -12 4 -10 7 3 12 8 11 13
-1 5 4 13 12 17 11 7 11 9 0 9 -8 0 -29 -16 -48 -35z" />
        <path d="M3395 3957 c-20 -27 -39 -42 -53 -42 -12 0 -26 -6 -32 -13 -6 -6 -7
-10 -4 -7 4 3 12 -2 18 -11 10 -13 16 -11 49 13 40 30 79 82 71 95 -9 14 -18
8 -49 -35z" />
        <path d="M3216 3915 c-16 -14 -33 -25 -38 -25 -4 0 -8 -7 -8 -16 0 -13 -7 -11
-34 10 l-35 26 -21 -30 c-12 -17 -17 -30 -12 -30 5 0 14 10 20 23 6 12 11 17
11 10 1 -7 7 -10 15 -7 8 3 17 1 20 -4 3 -5 -5 -8 -19 -7 -14 2 -26 -3 -29
-12 -5 -12 1 -14 32 -8 35 6 39 4 51 -21 9 -21 9 -30 0 -38 -9 -8 -10 -7 -4 3
6 11 4 13 -9 8 -10 -4 -20 -7 -22 -7 -3 0 1 -6 8 -14 7 -7 20 -11 28 -9 12 4
12 3 1 -5 -8 -6 -10 -12 -3 -16 6 -4 16 2 22 11 11 17 11 17 6 1 -7 -24 0 -23
31 7 24 22 25 26 12 42 -17 20 -19 44 -4 41 6 -2 9 -6 8 -10 -2 -5 2 -8 7 -8
14 0 12 16 -5 51 -16 30 -12 54 7 43 7 -4 8 -2 4 4 -9 15 -6 16 -40 -13z m14
-29 c0 -8 -4 -18 -10 -21 -10 -6 -8 -54 4 -73 10 -17 -11 -23 -24 -7 -10 12
-10 15 1 15 12 0 12 2 0 9 -9 6 -10 11 -3 15 6 4 8 14 5 22 -5 13 -7 13 -14 2
-6 -9 -8 -6 -6 9 2 12 7 26 12 30 4 5 5 2 1 -4 -4 -7 -2 -13 3 -13 6 0 11 7
11 15 0 8 5 15 10 15 6 0 10 -6 10 -14z" />
        <path d="M3264 3894 c-7 -28 3 -47 19 -37 7 3 3 -3 -7 -16 -11 -12 -26 -19
-34 -16 -12 4 -13 3 -2 -10 15 -18 28 -10 62 38 18 25 19 30 5 24 -9 -3 -17
-2 -17 4 0 6 -6 7 -12 3 -7 -4 -5 2 5 13 14 17 15 20 2 20 -9 0 -18 -11 -21
-23z" />
        <path d="M3044 3835 c3 -8 -3 -16 -12 -18 -10 -3 -6 -5 9 -6 33 -1 46 25 18
32 -15 4 -19 2 -15 -8z" />
        <path d="M3099 3820 c-19 -10 -51 -21 -70 -23 -18 -3 -36 -6 -38 -6 -13 -3 25
-31 43 -31 32 0 128 48 124 62 -7 19 -20 18 -59 -2z" />
        <path d="M3113 3773 c3 -5 -7 -17 -23 -27 -43 -25 -140 -57 -140 -45 0 5 8 9
19 9 22 0 36 40 19 55 -8 7 -9 6 -4 -2 5 -8 1 -13 -10 -13 -13 0 -14 -3 -5
-14 9 -11 8 -14 -6 -12 -12 1 -18 -6 -18 -21 0 -12 -4 -25 -7 -28 -4 -4 -4
-14 -1 -23 4 -13 2 -13 -9 2 -14 18 -16 17 -37 -15 -22 -33 -22 -33 -1 -9 20
23 23 23 34 8 12 -16 14 -16 29 -1 13 14 20 14 39 5 23 -12 22 -12 -4 -7 -30
6 -47 -11 -28 -28 10 -9 12 -8 7 6 -4 9 -2 17 3 17 6 0 10 -4 10 -8 0 -5 13
-7 30 -4 18 2 27 9 23 15 -4 6 0 8 11 4 28 -11 112 45 116 78 1 6 8 9 16 7 8
-2 14 2 14 7 0 5 -9 8 -20 6 -12 -2 -20 2 -20 10 0 8 -10 19 -21 26 -12 6 -19
7 -16 2z m28 -50 c-11 -5 -11 -7 0 -15 9 -5 4 -6 -15 -2 -25 6 -28 5 -22 -14
4 -11 2 -23 -4 -27 -6 -4 -9 -1 -8 7 2 7 -3 13 -9 12 -39 -3 -42 -5 -37 -19 5
-12 10 -13 20 -4 9 7 14 8 14 1 0 -14 -28 -23 -35 -12 -3 5 -11 7 -19 4 -7 -3
-13 2 -13 11 0 8 5 15 11 15 6 0 31 11 56 25 25 13 52 24 60 24 12 -1 12 -2 1
-6z m-141 -63 c0 -4 -11 -5 -25 -2 -14 2 -25 8 -25 12 0 4 11 5 25 2 14 -2 25
-8 25 -12z" />
        <path d="M3050 3750 c-8 -5 -10 -10 -5 -10 6 0 17 5 25 10 8 5 11 10 5 10 -5
0 -17 -5 -25 -10z" />
        <path d="M255 4338 c-10 -25 -1 -121 12 -125 8 -3 11 15 9 61 -2 66 -11 92
-21 64z" />
        <path d="M541 4303 c0 -12 -4 -30 -7 -40 -5 -17 -5 -17 6 0 6 10 9 28 7 40 -4
22 -4 22 -6 0z" />
        <path d="M446 4294 c-3 -9 -4 -19 -1 -22 3 -3 5 1 5 9 0 11 2 11 10 -1 5 -8
10 -10 10 -5 0 6 -4 16 -9 23 -6 11 -10 10 -15 -4z" />
        <path d="M435 4210 c3 -5 8 -10 11 -10 2 0 4 5 4 10 0 6 -5 10 -11 10 -5 0 -7
-4 -4 -10z" />
        <path d="M483 3921 c21 -23 21 -24 2 -18 -19 6 -19 6 -1 -6 10 -7 34 -22 52
-34 18 -12 36 -18 39 -13 3 5 0 12 -6 15 -5 4 -8 14 -5 22 3 8 1 11 -4 8 -6
-3 -10 -1 -10 4 0 6 -3 10 -7 10 -5 -1 -16 -1 -27 0 -16 1 -17 3 -5 19 13 16
13 16 -5 2 -18 -13 -19 -13 -14 0 4 11 0 16 -13 16 -17 0 -17 -2 4 -25z m51
-30 c4 -5 -3 -7 -14 -4 -23 6 -26 13 -6 13 8 0 17 -4 20 -9z" />
        <path d="M727 3827 c-3 -11 1 -19 30 -51 7 -8 9 -17 5 -22 -4 -5 1 -2 10 5 14
10 15 16 5 32 -6 10 -15 19 -20 19 -4 0 -6 4 -3 9 3 5 -1 11 -8 14 -8 3 -16 1
-19 -6z" />
        <path d="M776 3805 c4 -8 10 -15 16 -15 5 0 6 5 3 10 -3 6 -1 10 6 10 7 0 9
-8 6 -21 -5 -20 -5 -20 14 -3 19 17 19 19 2 25 -32 13 -53 10 -47 -6z" />
        <path d="M548 3793 c7 -3 16 -2 19 1 4 3 -2 6 -13 5 -11 0 -14 -3 -6 -6z" />
        <path d="M866 3783 c-3 -4 -6 -11 -6 -16 0 -6 3 -7 7 -4 3 4 17 0 30 -8 30
-20 29 -14 -1 12 -13 12 -27 19 -30 16z" />
        <path d="M816 3626 c3 -8 13 -12 27 -8 20 5 20 6 1 13 -29 11 -34 10 -28 -5z" />
        <path d="M516 4584 c-9 -23 -2 -28 13 -10 7 8 8 17 3 20 -6 3 -13 -1 -16 -10z" />
        <path d="M580 4414 c0 -10 5 -26 10 -34 8 -11 9 -7 4 15 -8 37 -14 45 -14 19z" />
        <path d="M566 4365 c4 -8 8 -15 10 -15 2 0 4 7 4 15 0 8 -4 15 -10 15 -5 0 -7
-7 -4 -15z" />
        <path d="M1218 3826 c46 -72 67 -98 70 -84 4 19 32 33 32 16 0 -6 2 -9 5 -6 3
3 2 13 -1 22 -5 13 -9 14 -14 6 -4 -7 -13 -9 -19 -6 -6 4 -9 12 -6 17 3 5 -1
6 -9 3 -10 -4 -19 3 -27 18 -6 14 -17 25 -24 25 -8 0 -11 -5 -7 -11z m67 -64
c-3 -3 -11 0 -18 7 -9 10 -8 11 6 5 10 -3 15 -9 12 -12z" />
        <path d="M1255 3830 c-3 -5 1 -13 10 -16 22 -9 29 1 11 15 -10 8 -16 9 -21 1z" />
        <path d="M1300 3706 c0 -2 7 -9 15 -16 9 -7 15 -8 15 -2 0 5 -7 12 -15 16 -8
3 -15 4 -15 2z" />
        <path d="M1440 3640 c8 -5 20 -10 25 -10 6 0 3 5 -5 10 -8 5 -19 10 -25 10 -5
0 -3 -5 5 -10z" />
        <path d="M1510 3540 c0 -5 7 -10 16 -10 8 0 12 5 9 10 -3 6 -10 10 -16 10 -5
0 -9 -4 -9 -10z" />
        <path d="M1658 3493 c12 -2 30 -2 40 0 9 3 -1 5 -23 4 -22 0 -30 -2 -17 -4z" />
        <path d="M2633 3824 c-17 -14 -17 -14 1 -7 14 4 17 2 14 -8 -3 -8 -10 -13 -16
-12 -6 2 -9 -4 -5 -13 5 -13 7 -13 14 -2 5 7 9 9 9 4 0 -5 9 -1 20 9 11 10 20
23 20 29 0 17 -35 17 -57 0z m47 -9 c0 -1 -6 -7 -13 -13 -10 -8 -13 -6 -13 7
0 11 6 17 13 14 7 -3 13 -6 13 -8z" />
        <path d="M2205 3530 c4 -7 -3 -9 -22 -5 -19 5 -24 4 -14 -3 9 -7 10 -11 2 -13
-7 -3 6 -5 28 -5 36 -1 39 0 28 17 -7 11 -15 19 -20 19 -4 0 -5 -5 -2 -10z" />
        <path d="M690 3739 c0 -5 -4 -7 -10 -4 -5 3 -10 1 -10 -4 0 -16 16 -13 30 4 9
10 9 15 1 15 -6 0 -11 -5 -11 -11z" />
        <path d="M975 3660 c-4 -6 -1 -18 6 -26 7 -8 8 -14 3 -13 -16 4 -44 -13 -38
-22 3 -5 10 -9 15 -9 6 0 8 4 5 8 -2 4 4 9 15 9 10 1 19 -4 19 -12 0 -7 10
-16 23 -18 15 -3 12 -5 -12 -6 -25 -1 -32 2 -27 14 4 12 2 13 -14 3 -18 -12
-18 -13 -2 -19 9 -3 37 -9 61 -13 l45 -7 -19 23 c-11 13 -29 31 -40 41 -11 10
-13 15 -5 11 10 -5 8 1 -5 17 -11 13 -21 25 -21 27 -1 2 -5 -2 -9 -8z" />
        <path d="M1662 3359 c5 -16 179 -99 209 -99 30 0 -3 25 -84 65 -91 44 -132 55
-125 34z" />
        <path d="M2151 3324 c-58 -25 -107 -47 -110 -49 -29 -29 144 17 207 55 32 20
43 41 20 39 -7 -1 -60 -21 -117 -45z" />
        <path d="M1956 3183 c-3 -3 -6 -46 -6 -95 0 -72 3 -88 15 -88 12 0 15 17 15
89 0 83 -7 111 -24 94z" />
        <path d="M2124 2829 c-12 -20 17 -27 103 -28 63 0 83 3 83 13 0 22 -173 36
-186 15z" />
        <path d="M1510 2818 c0 -9 13 -18 31 -22 79 -16 199 -3 177 19 -2 2 -49 7
-106 11 -88 6 -102 5 -102 -8z" />
        <path d="M1916 2608 c-9 -35 -7 -168 3 -168 10 0 21 73 21 141 0 51 -13 66
-24 27z" />
        <path d="M1798 2534 c-29 -15 -35 -28 -18 -39 14 -9 70 23 70 40 0 19 -17 18
-52 -1z" />
        <path d="M2010 2531 c0 -11 10 -21 23 -25 64 -17 77 8 14 30 -34 12 -37 11
-37 -5z" />
        <path d="M2637 1873 c-7 -18 -12 -76 -11 -158 l1 -130 57 -174 c48 -144 127
-346 186 -473 14 -29 30 -37 30 -15 0 7 -31 87 -69 178 -38 91 -92 237 -121
325 -48 144 -53 170 -58 272 -3 68 -1 117 5 123 7 7 12 -5 16 -33 8 -54 101
-301 116 -306 19 -6 12 23 -38 155 -27 70 -52 151 -55 178 -4 28 -9 58 -12 68
-8 26 -33 21 -47 -10z" />
        <path d="M2405 1870 c3 -5 8 -10 11 -10 2 0 4 5 4 10 0 6 -5 10 -11 10 -5 0
-7 -4 -4 -10z" />
        <path d="M2295 1839 c-16 -7 -14 -8 9 -4 18 4 32 1 37 -7 4 -7 11 -9 16 -5 8
9 -15 27 -32 26 -5 0 -19 -5 -30 -10z" />
        <path d="M2205 1800 c-13 -6 -15 -9 -5 -9 8 0 22 4 30 9 18 12 2 12 -25 0z" />
        <path d="M2245 1780 c-8 -13 5 -13 25 0 13 8 13 10 -2 10 -9 0 -20 -4 -23 -10z" />
        <path d="M2198 1713 c7 -3 16 -2 19 1 4 3 -2 6 -13 5 -11 0 -14 -3 -6 -6z" />
        <path d="M2070 1701 c0 -5 9 -7 20 -4 11 3 20 7 20 9 0 2 -9 4 -20 4 -11 0
-20 -4 -20 -9z" />
        <path d="M2145 1699 c-19 -9 -19 -9 2 -5 12 2 24 -1 27 -8 3 -8 5 -8 5 1 1 17
-11 22 -34 12z" />
        <path d="M1935 1560 c-3 -5 -1 -10 4 -10 6 0 11 5 11 10 0 6 -2 10 -4 10 -3 0
-8 -4 -11 -10z" />
        <path d="M2210 1505 c-6 -8 -10 -19 -8 -26 2 -6 9 0 16 15 13 29 10 33 -8 11z" />
        <path d="M1966 1464 c-8 -20 -8 -24 2 -24 4 0 8 9 9 20 2 24 -3 26 -11 4z" />
        <path d="M2230 1444 c0 -17 68 -75 76 -63 3 6 -3 13 -14 16 -14 3 -19 11 -16
26 3 15 1 18 -8 9 -8 -8 -15 -7 -24 6 -8 9 -14 12 -14 6z" />
        <path d="M2415 1439 c-4 -6 -5 -12 -2 -15 2 -3 7 2 10 11 7 17 1 20 -8 4z" />
        <path d="M2007 1388 c-3 -8 3 -22 14 -31 22 -19 24 -12 5 22 -10 18 -14 20
-19 9z" />
        <path d="M2150 1345 c-10 -12 -9 -16 4 -21 9 -4 20 -4 23 0 4 3 1 6 -5 6 -6 0
-9 7 -6 15 8 19 0 19 -16 0z" />
        <path d="M2367 1323 c-7 -39 -1 -40 11 -4 6 17 7 31 3 31 -5 0 -11 -12 -14
-27z" />
        <path d="M2190 1336 c0 -2 7 -9 15 -16 9 -7 15 -8 15 -2 0 5 -7 12 -15 16 -8
3 -15 4 -15 2z" />
        <path d="M2043 1294 c-7 -7 -13 -19 -13 -26 0 -7 7 -2 16 10 18 26 16 37 -3
16z" />
        <path d="M2260 1290 c0 -5 5 -10 11 -10 5 0 7 5 4 10 -3 6 -8 10 -11 10 -2 0
-4 -4 -4 -10z" />
        <path d="M2070 1216 c0 -9 5 -16 10 -16 6 0 10 4 10 9 0 6 -4 13 -10 16 -5 3
-10 -1 -10 -9z" />
        <path d="M2105 1170 c3 -5 8 -10 11 -10 2 0 4 5 4 10 0 6 -5 10 -11 10 -5 0
-7 -4 -4 -10z" />
        <path d="M2508 1140 c-3 -16 -1 -30 4 -30 4 0 8 14 8 30 0 17 -2 30 -4 30 -2
0 -6 -13 -8 -30z" />
        <path d="M2051 1155 c1 -19 18 -51 18 -35 0 8 -4 22 -9 30 -5 8 -9 11 -9 5z" />
        <path d="M2300 1070 c0 -5 5 -10 10 -10 6 0 10 5 10 10 0 6 -4 10 -10 10 -5 0
-10 -4 -10 -10z" />
        <path d="M2457 1059 c7 -7 15 -10 18 -7 3 3 -2 9 -12 12 -14 6 -15 5 -6 -5z" />
        <path d="M2268 1043 c6 -2 18 -2 25 0 6 3 1 5 -13 5 -14 0 -19 -2 -12 -5z" />
        <path d="M2095 1031 c-3 -5 -2 -12 3 -15 5 -3 9 1 9 9 0 17 -3 19 -12 6z" />
        <path d="M1650 1780 c-18 -12 -2 -12 25 0 13 6 15 9 5 9 -8 0 -22 -4 -30 -9z" />
        <path d="M1677 1753 c-3 -5 5 -8 18 -8 13 0 21 3 18 8 -2 4 -10 7 -18 7 -8 0
-16 -3 -18 -7z" />
        <path d="M1293 1733 c9 -2 25 -2 35 0 9 3 1 5 -18 5 -19 0 -27 -2 -17 -5z" />
        <path d="M1244 1723 c4 -7 3 -13 -2 -13 -5 0 -9 -7 -9 -15 0 -14 2 -14 16 -1
13 13 13 18 2 28 -11 10 -12 10 -7 1z" />
        <path d="M1368 1723 c7 -3 16 -2 19 1 4 3 -2 6 -13 5 -11 0 -14 -3 -6 -6z" />
        <path d="M1298 1713 c6 -2 18 -2 25 0 6 3 1 5 -13 5 -14 0 -19 -2 -12 -5z" />
        <path d="M1365 1700 c-3 -5 -2 -10 4 -10 5 0 13 5 16 10 3 6 2 10 -4 10 -5 0
-13 -4 -16 -10z" />
        <path d="M1706 1684 c-4 -10 -13 -14 -26 -11 -11 3 -18 1 -14 -4 9 -15 41 -10
48 7 4 9 5 19 2 21 -2 2 -6 -4 -10 -13z" />
        <path d="M1623 1673 c-7 -3 -13 -9 -13 -15 0 -7 5 -6 14 1 11 9 15 9 19 -1 4
-9 6 -9 6 -1 1 15 -10 22 -26 16z" />
        <path d="M1216 1661 c-3 -5 1 -11 9 -14 9 -4 12 -1 8 9 -6 16 -10 17 -17 5z" />
        <path d="M1260 1650 c-8 -5 -12 -12 -9 -15 4 -3 12 1 19 10 14 17 11 19 -10 5z" />
        <path d="M1541 1641 c-14 -4 -26 -12 -27 -19 -1 -7 0 -8 3 -2 2 5 13 10 23 10
10 0 22 5 25 10 3 6 5 10 3 9 -2 -1 -14 -4 -27 -8z" />
        <path d="M1476 1621 c-3 -5 1 -11 9 -14 9 -4 12 -1 8 9 -6 16 -10 17 -17 5z" />
        <path d="M1643 1615 c0 -7 6 -11 14 -8 7 3 13 6 13 8 0 2 -6 5 -13 8 -8 3 -14
-1 -14 -8z" />
        <path d="M1538 1613 c7 -3 16 -2 19 1 4 3 -2 6 -13 5 -11 0 -14 -3 -6 -6z" />
        <path d="M1615 1611 c-3 -5 -2 -12 3 -15 5 -3 9 1 9 9 0 17 -3 19 -12 6z" />
        <path d="M1428 1603 c6 -2 18 -2 25 0 6 3 1 5 -13 5 -14 0 -19 -2 -12 -5z" />
        <path d="M1138 1572 c-8 -9 -30 -30 -47 -45 -17 -16 -31 -34 -31 -40 0 -7 10
0 21 16 11 15 25 24 30 21 5 -3 8 0 7 8 -2 9 7 13 29 12 30 -1 31 0 21 20 -6
11 -11 22 -12 23 -1 1 -9 -5 -18 -15z m22 -12 c0 -5 -5 -10 -11 -10 -5 0 -7 5
-4 10 3 6 8 10 11 10 2 0 4 -4 4 -10z" />
        <path d="M1288 1573 c7 -3 16 -2 19 1 4 3 -2 6 -13 5 -11 0 -14 -3 -6 -6z" />
        <path d="M1831 1533 c0 -12 -5 -25 -11 -28 -5 -3 -10 -11 -10 -18 0 -6 7 -1
16 11 8 12 13 30 11 40 -4 13 -5 12 -6 -5z" />
        <path d="M1571 1528 c-1 -10 -4 -17 -8 -17 -18 3 -33 -2 -33 -10 0 -12 27 -8
41 6 6 6 9 17 6 25 -4 9 -6 7 -6 -4z" />
        <path d="M1518 1473 c-10 -2 -18 -9 -18 -14 0 -14 16 -11 30 6 7 8 11 14 9 14
-2 -1 -12 -3 -21 -6z" />
        <path d="M1071 1452 c-17 -31 -13 -40 5 -14 9 13 14 26 11 29 -3 2 -10 -4 -16
-15z" />
        <path d="M1807 1456 c-10 -8 -14 -16 -10 -19 5 -3 14 3 21 14 14 22 13 23 -11
5z" />
        <path d="M1765 1450 c-3 -5 -1 -10 4 -10 6 0 11 5 11 10 0 6 -2 10 -4 10 -3 0
-8 -4 -11 -10z" />
        <path d="M1728 1403 c-8 -10 -18 -25 -22 -33 -4 -8 -1 -7 7 3 12 14 16 15 20
5 2 -7 3 -5 2 4 -2 9 2 19 9 21 6 2 8 7 5 11 -3 3 -13 -2 -21 -11z" />
        <path d="M1040 1358 c0 -13 7 -32 15 -42 8 -11 15 -15 15 -9 0 7 -5 15 -11 19
-6 3 -9 15 -6 25 3 10 1 22 -4 25 -5 3 -9 -5 -9 -18z" />
        <path d="M1082 1340 c7 -10 14 -18 15 -16 6 6 -9 36 -18 36 -5 0 -4 -9 3 -20z" />
        <path d="M1420 1330 c0 -5 4 -10 9 -10 6 0 13 5 16 10 3 6 -1 10 -9 10 -9 0
-16 -4 -16 -10z" />
        <path d="M1477 1312 c4 -9 9 -10 16 -3 16 16 31 13 18 -3 -9 -11 -9 -16 0 -22
8 -4 9 -3 5 5 -4 7 2 15 16 20 23 10 19 12 -33 15 -19 1 -25 -2 -22 -12z" />
        <path d="M1680 1315 c0 -8 2 -15 4 -15 2 0 6 7 10 15 3 8 1 15 -4 15 -6 0 -10
-7 -10 -15z" />
        <path d="M1801 1304 c0 -11 3 -14 6 -6 3 7 2 16 -1 19 -3 4 -6 -2 -5 -13z" />
        <path d="M1778 1236 c-20 -15 -23 -26 -8 -26 5 0 14 9 20 20 12 23 11 24 -12
6z" />
        <path d="M1771 1164 c0 -11 3 -14 6 -6 3 7 2 16 -1 19 -3 4 -6 -2 -5 -13z" />
        <path d="M1000 1150 c0 -5 5 -10 11 -10 5 0 7 5 4 10 -3 6 -8 10 -11 10 -2 0
-4 -4 -4 -10z" />
        <path d="M967 1063 c-13 -26 -14 -33 -4 -25 7 7 16 10 19 7 3 -3 5 8 6 25 0
16 0 30 -1 30 -1 0 -10 -17 -20 -37z" />
        <path d="M1110 1010 c0 -5 7 -10 16 -10 8 0 12 5 9 10 -3 6 -10 10 -16 10 -5
0 -9 -4 -9 -10z" />
        <path d="M985 970 c3 -5 8 -10 11 -10 2 0 4 5 4 10 0 6 -5 10 -11 10 -5 0 -7
-4 -4 -10z" />
        <path d="M1284 963 c9 -17 -12 -27 -29 -13 -11 9 -15 9 -15 1 0 -13 49 -35 58
-26 3 3 -1 5 -9 5 -12 0 -11 2 1 10 13 8 13 11 1 22 -9 8 -11 9 -7 1z" />
        <path d="M1540 950 c-23 -7 -23 -8 -3 -9 12 -1 25 4 28 9 3 6 5 10 3 9 -2 -1
-14 -5 -28 -9z" />
        <path d="M1318 933 c7 -3 16 -2 19 1 4 3 -2 6 -13 5 -11 0 -14 -3 -6 -6z" />
        <path d="M1124 1740 c2 -16 20 -14 24 2 3 10 2 10 -6 -1 -7 -9 -11 -10 -15 -2
-4 7 -5 8 -3 1z" />
        <path d="M1108 1673 c7 -3 16 -2 19 1 4 3 -2 6 -13 5 -11 0 -14 -3 -6 -6z" />
        <path d="M1431 198 c-12 -35 -10 -41 10 -33 16 6 24 51 10 59 -5 4 -14 -8 -20
-26z" />
    </g>
</svg>