<?xml version="1.0" standalone="no"?>
<!DOCTYPE svg PUBLIC "-//W3C//DTD SVG 20010904//EN"
 "http://www.w3.org/TR/2001/REC-SVG-20010904/DTD/svg10.dtd">
<svg version="1.0" xmlns="http://www.w3.org/2000/svg"
 width="500.000000pt" height="333.000000pt" viewBox="0 0 500.000000 333.000000"
 preserveAspectRatio="xMidYMid meet">

<g transform="translate(0.000000,333.000000) scale(0.100000,-0.100000)"
fill="#000000" stroke="none">
<path d="M4377 2493 c9 -16 28 -40 42 -55 27 -31 24 -45 -8 -29 -11 6 -47 14
-79 17 -69 8 -139 -12 -199 -55 -34 -24 -204 -115 -258 -137 -18 -7 -17 -8 8
-12 27 -3 103 9 140 24 11 4 -3 -15 -30 -42 -26 -27 -66 -82 -88 -123 -44 -81
-118 -156 -165 -166 -16 -4 -32 -11 -35 -16 -9 -13 73 -11 132 4 l51 14 -5
-36 c-4 -20 -14 -60 -25 -90 -10 -30 -18 -64 -18 -75 0 -12 -9 -36 -21 -55
-11 -18 -19 -35 -17 -37 2 -2 29 17 60 41 l56 44 -3 -92 c-2 -51 -6 -110 -10
-132 l-7 -40 26 34 c14 19 26 39 26 45 0 5 3 6 7 3 4 -4 6 -31 4 -60 -2 -51
-2 -52 46 -88 26 -20 57 -39 68 -41 16 -4 13 -7 -18 -21 -32 -14 -42 -27 -72
-93 -19 -42 -35 -88 -35 -101 0 -24 34 -63 103 -119 26 -21 26 -21 11 -77 -8
-31 -42 -121 -75 -199 -80 -186 -82 -241 -9 -278 55 -28 105 -26 135 5 l25 24
0 -119 c0 -89 -6 -150 -25 -237 -13 -64 -22 -119 -19 -122 9 -9 24 23 24 54 0
17 9 73 20 125 11 52 20 126 20 164 0 62 2 68 19 63 17 -4 18 1 14 67 -3 52
-2 67 6 56 6 -8 11 -41 11 -72 0 -32 4 -58 9 -58 4 0 7 16 4 35 -2 26 0 35 11
35 8 0 17 -10 19 -23 4 -18 5 -17 6 7 1 24 3 27 16 16 13 -11 15 5 15 131 0
79 5 151 10 159 6 10 10 -36 10 -139 0 -85 2 -152 4 -150 2 2 6 78 8 169 2 95
9 173 15 185 9 15 11 -19 8 -140 -1 -88 -1 -135 1 -105 13 186 25 362 29 405
3 35 -1 24 -15 -39 -22 -105 -35 -125 -26 -41 4 41 3 55 -4 45 -8 -13 -10 -12
-10 3 0 10 -4 15 -10 12 -5 -3 -10 -16 -10 -27 0 -26 -83 -215 -87 -201 -3 7
3 25 11 42 9 16 16 37 16 45 0 33 44 131 75 165 18 20 46 61 64 91 l32 55 -6
-50 c-22 -202 -32 -376 -21 -364 2 2 7 47 11 99 4 52 8 96 10 98 2 2 12 -1 23
-7 27 -14 207 -14 235 0 12 6 33 21 46 33 49 44 5 -17 -49 -68 -28 -26 -49
-50 -47 -53 9 -9 79 61 125 126 l47 66 7 -68 c7 -71 30 -120 88 -186 47 -55
44 -30 -5 36 -51 68 -75 128 -75 185 0 59 -24 61 -72 4 -44 -51 -84 -76 -123
-76 -39 0 -29 23 23 50 26 14 68 46 95 72 34 34 47 42 48 30 0 -13 2 -14 6 -3
8 21 64 81 76 81 5 0 0 -15 -10 -32 -28 -48 -16 -176 23 -247 39 -72 47 -63
14 16 -15 38 -31 85 -34 105 -6 35 -4 39 45 78 28 22 55 37 61 34 11 -7 10 -8
-44 -48 -21 -15 -38 -32 -38 -38 0 -7 12 0 28 14 54 51 92 66 92 37 0 -4 -23
-24 -51 -44 -28 -20 -49 -39 -46 -41 2 -3 28 12 56 33 39 29 51 44 51 64 0 23
-9 30 -61 53 -34 14 -70 33 -81 40 -18 13 -16 16 37 46 34 19 66 47 81 71 39
62 28 64 -30 4 -65 -66 -105 -85 -250 -119 -128 -31 -143 -32 -149 -8 -4 16
-5 16 -6 0 -2 -33 -21 -18 -21 17 0 31 3 35 38 44 20 6 62 13 92 16 119 13
175 40 150 70 -21 25 -136 55 -212 55 -56 0 -74 4 -84 18 -12 15 -15 15 -24 2
-7 -11 -9 -3 -4 27 6 40 5 42 -21 49 -31 8 -39 -1 -65 -71 -15 -38 -18 -40
-59 -42 -24 -1 -50 -4 -58 -7 -7 -3 -22 -1 -32 6 -13 8 -30 8 -61 0 -23 -6
-48 -8 -55 -6 -13 5 -51 92 -60 139 -4 21 2 13 20 -24 27 -57 45 -64 26 -10
-15 43 -14 185 1 149 5 -14 11 -36 12 -50 3 -32 99 -160 120 -160 3 0 -4 16
-15 35 -11 19 -18 38 -15 43 3 5 27 12 54 16 50 6 79 28 117 89 17 27 17 29 1
45 -14 14 -33 17 -106 14 l-90 -2 0 45 c0 25 5 45 11 45 6 0 53 -21 105 -46
123 -59 127 -60 146 -18 18 39 8 46 -12 9 -10 -19 -19 -24 -34 -19 -32 10
-195 96 -205 108 -4 6 -13 41 -19 78 -12 75 0 147 35 214 17 32 25 38 46 36
18 -2 35 5 53 23 21 21 32 25 56 20 27 -6 29 -5 23 14 -8 25 -2 26 31 4 22
-14 27 -14 35 -2 5 8 9 21 9 29 1 10 10 4 26 -15 24 -30 25 -30 40 -10 15 18
17 19 27 3 9 -14 13 -14 32 -2 25 16 65 6 97 -23 17 -15 68 -116 68 -134 0 -5
-26 -9 -57 -10 -68 -1 -129 -20 -126 -40 2 -8 8 -39 14 -70 l12 -57 81 5 c79
5 82 5 92 -18 10 -21 7 -27 -29 -52 -22 -16 -62 -40 -89 -54 -26 -13 -48 -26
-48 -29 0 -12 50 11 112 52 36 24 68 44 71 44 3 0 11 -16 17 -36 15 -45 5 -54
-61 -54 -50 0 -109 -17 -109 -31 0 -12 14 -11 26 1 5 5 41 12 80 16 l71 7 6
-48 c10 -70 -1 -83 -64 -75 -42 5 -58 13 -81 39 -16 18 -32 30 -36 27 -3 -4
10 -22 29 -42 28 -27 45 -36 87 -41 41 -5 52 -9 52 -24 0 -13 -5 -17 -17 -13
-14 5 -15 4 -4 -4 8 -6 11 -17 8 -26 -4 -9 -3 -16 1 -16 14 0 27 15 31 35 5
31 19 53 41 65 18 9 20 6 27 -42 4 -29 6 -68 6 -85 -1 -18 2 -33 6 -33 8 0 21
39 42 130 l12 55 18 -40 c18 -39 18 -33 19 377 0 402 -1 418 -19 428 -11 5
-31 10 -45 10 -14 0 -26 4 -26 10 0 16 49 43 70 37 32 -8 24 19 -11 33 -27 12
-37 10 -92 -13 l-62 -25 -18 34 c-10 19 -32 43 -49 54 -36 22 -166 56 -176 46
-3 -4 8 -18 26 -32 18 -14 37 -34 43 -45 10 -19 8 -20 -43 -13 -56 7 -107 29
-175 75 -53 37 -68 37 -46 2z m379 -546 c1 -1 4 -29 5 -62 l4 -60 -69 -3 c-38
-2 -73 1 -77 5 -5 5 -12 30 -15 56 -7 46 -6 47 27 62 28 13 114 14 125 2z
m-400 -342 l36 -15 -33 -45 c-23 -31 -43 -48 -68 -55 -85 -23 -111 -7 -111 68
l0 40 58 10 c81 14 79 14 118 -3z m523 -51 c-17 -21 -21 -11 -8 22 10 23 13
25 16 11 3 -10 -1 -25 -8 -33z m-875 -91 c-4 -15 5 -33 31 -62 21 -23 33 -41
28 -41 -6 0 -18 9 -28 20 -10 11 -26 22 -35 25 -25 8 -32 31 -24 83 7 44 7 44
20 21 7 -13 10 -34 8 -46z m36 -23 c7 -13 7 -20 1 -20 -6 0 -15 9 -21 20 -7
13 -7 20 -1 20 6 0 15 -9 21 -20z m416 -65 c-8 -28 -26 -95 -41 -149 -32 -120
-61 -181 -108 -223 -29 -26 -42 -53 -75 -155 -22 -68 -48 -163 -56 -212 -9
-54 -25 -105 -41 -132 -24 -41 -29 -44 -69 -44 -54 0 -107 34 -119 76 -8 26
-2 50 38 145 26 63 62 156 81 208 39 109 36 118 -47 172 -28 18 -52 41 -55 55
-6 25 2 47 15 39 5 -2 11 17 15 44 8 61 36 98 84 109 149 36 142 35 163 16 15
-13 22 -15 31 -6 18 18 77 15 85 -4 4 -11 14 3 32 44 35 79 50 97 67 80 11
-11 11 -22 0 -63z m279 -56 c31 -12 55 -22 53 -24 -2 -1 -67 -5 -145 -8 -128
-5 -143 -3 -144 11 -1 10 -4 7 -9 -8 -8 -24 -8 -24 -9 6 -1 17 2 34 6 37 3 4
48 7 99 7 70 0 107 -5 149 -21z m-274 -42 c-8 -8 -11 -4 -11 14 0 33 14 47 18
19 2 -12 -1 -27 -7 -33z m262 -19 c-2 -5 -19 -8 -36 -8 -18 0 -67 -5 -109 -12
-71 -10 -101 -8 -85 8 20 20 242 31 230 12z m-263 -18 c0 -5 -7 -10 -15 -10
-8 0 -15 5 -15 10 0 6 7 10 15 10 8 0 15 -4 15 -10z m-9 -62 c-4 -20 -13 -32
-25 -34 -14 -2 -16 0 -7 9 6 6 11 23 11 39 0 19 4 26 14 22 9 -4 11 -14 7 -36z
m29 -8 c0 -22 -4 -40 -10 -40 -11 0 -14 63 -3 73 11 12 13 8 13 -33z m30 0 c0
-22 -4 -40 -10 -40 -11 0 -14 63 -3 73 11 12 13 8 13 -33z m290 -17 c0 -15 2
-16 10 -3 5 8 12 11 16 7 4 -3 1 -13 -6 -22 -11 -14 -14 -13 -26 2 -16 22 -17
33 -4 33 6 0 10 -8 10 -17z m-59 -31 c-11 -16 -18 -32 -15 -35 3 -3 -1 -18
-10 -35 -20 -38 -104 -92 -143 -92 -29 0 -31 2 -27 38 l3 37 -13 -39 c-7 -24
-15 -35 -20 -28 -10 17 4 84 18 79 6 -2 16 3 23 12 15 19 17 34 3 26 -12 -8
-13 5 0 25 8 12 10 12 16 -3 3 -9 3 -29 0 -43 -5 -17 -3 -23 4 -19 5 3 10 15
10 26 0 25 17 59 30 59 5 0 2 -20 -6 -45 -9 -25 -14 -50 -11 -57 2 -7 12 13
21 44 10 32 22 60 27 63 13 8 11 -3 -7 -54 -22 -64 -12 -59 20 9 15 33 32 60
37 60 11 0 4 -30 -17 -72 -16 -30 -18 -48 -6 -48 4 0 13 20 20 45 11 43 48 93
59 81 3 -2 -4 -18 -16 -34z m144 -2 c3 -5 1 -10 -4 -10 -6 0 -11 5 -11 10 0 6
2 10 4 10 3 0 8 -4 11 -10z m-348 -25 c-4 -8 -11 -15 -17 -15 -14 0 -13 27 3
33 16 6 21 1 14 -18z m223 4 c-7 -11 -14 -18 -17 -15 -3 3 0 12 7 21 18 21 23
19 10 -6z m143 -12 c-64 -51 -63 -51 -63 -33 0 17 55 56 78 56 8 0 1 -10 -15
-23z m-460 -17 c-3 -11 -9 -17 -14 -14 -14 8 -10 34 5 34 9 0 12 -7 9 -20z
m31 -18 c-8 -35 -24 -52 -24 -26 0 32 12 64 21 58 5 -3 6 -17 3 -32z m33 -23
c-6 -46 -13 -57 -27 -43 -6 6 -6 23 1 47 14 51 33 48 26 -4z m-83 -55 c-4 -22
-2 -34 5 -34 6 0 10 3 10 8 -3 19 2 33 10 28 5 -3 7 -15 4 -26 -6 -22 -38 -27
-46 -7 -7 19 4 77 14 71 5 -3 7 -21 3 -40z m61 -37 c0 -26 -20 -25 -23 2 -3
16 1 22 10 19 7 -3 13 -12 13 -21z m83 -14 c2 -9 -8 -13 -32 -13 -26 0 -36 4
-36 16 0 19 61 16 68 -3z m-253 -100 c-3 -18 -10 -33 -14 -33 -10 0 -7 44 6
105 l8 40 3 -40 c2 -21 1 -54 -3 -72z m-33 -40 c-4 -46 -22 -60 -22 -17 0 23
18 70 24 62 2 -1 1 -22 -2 -45z m-35 -60 c-3 -10 -5 -4 -5 12 0 17 2 24 5 18
2 -7 2 -21 0 -30z m33 -119 c0 -74 -4 -113 -10 -109 -18 11 -12 225 6 225 2 0
4 -52 4 -116z m-58 76 c-2 -17 -9 -33 -15 -37 -7 -4 -8 0 -4 11 4 10 7 26 7
37 0 10 4 19 8 19 5 0 7 -14 4 -30z m28 -67 c0 -48 -3 -64 -10 -53 -13 20 -13
120 0 120 6 0 10 -29 10 -67z m-34 -51 c-9 -8 -14 0 -21 33 l-6 30 16 -28 c9
-16 14 -31 11 -35z m-36 -78 c0 -32 -4 -53 -9 -49 -10 5 -13 83 -4 98 10 16
13 4 13 -49z m69 14 c1 -5 -3 -8 -8 -8 -11 0 -21 37 -13 45 6 5 20 -19 21 -37z"/>
<path d="M4231 1566 c-10 -11 -8 -16 9 -21 24 -8 46 7 36 24 -10 15 -31 14
-45 -3z"/>
<path d="M2990 2325 c-137 -33 -216 -63 -255 -97 -46 -41 -132 -191 -164 -289
-22 -67 -22 -67 -83 -93 -96 -42 -175 -130 -245 -271 -65 -133 -69 -175 -34
-296 30 -104 58 -155 107 -198 24 -21 48 -49 55 -64 7 -15 35 -38 69 -56 63
-34 70 -36 70 -21 0 6 -6 10 -13 10 -25 0 -117 71 -123 95 -3 13 -15 27 -25
30 -35 11 -96 100 -108 157 -7 28 -17 58 -23 65 -6 7 -11 49 -12 92 -1 76 0
81 54 186 30 59 70 120 88 136 17 15 32 33 32 38 0 15 58 59 108 82 181 80
288 104 467 103 137 0 299 -18 321 -35 6 -5 33 -12 60 -15 27 -4 60 -13 74
-20 14 -7 52 -25 85 -40 33 -15 85 -46 115 -69 62 -47 100 -69 100 -58 -1 4
-19 22 -40 38 -34 26 -39 36 -41 75 -2 44 -2 44 -6 8 -2 -21 -8 -38 -14 -38
-10 0 -12 10 -9 56 1 18 -4 35 -11 39 -9 6 -10 -1 -5 -29 8 -44 -6 -47 -62
-12 -56 35 -66 52 -63 102 1 27 -2 44 -8 44 -7 0 -9 -14 -5 -40 6 -39 -2 -50
-22 -30 -18 18 -180 71 -263 85 -101 18 -259 19 -313 3 -33 -10 -41 -9 -49 3
-7 11 -9 11 -9 -3 0 -10 -7 -18 -15 -18 -11 0 -14 7 -10 28 4 22 3 21 -7 -5
-13 -38 -33 -44 -26 -8 3 13 1 22 -3 19 -5 -3 -9 -16 -9 -28 0 -25 -47 -62
-115 -90 l-37 -16 7 33 c4 17 31 82 61 144 72 146 105 177 239 223 91 31 109
34 200 32 96 -2 213 -22 264 -46 13 -6 32 -10 41 -8 9 1 59 -23 112 -55 115
-70 166 -127 202 -227 13 -38 15 -8 3 41 -19 70 -80 141 -159 183 -35 18 -76
44 -92 58 -21 17 -37 22 -57 18 -16 -3 -32 0 -38 8 -6 7 -30 16 -54 19 -23 4
-71 13 -107 21 -79 18 -127 19 -200 1z"/>
<path d="M3057 2173 c-4 -3 -7 -16 -6 -27 0 -19 1 -19 10 3 10 24 8 36 -4 24z"/>
<path d="M3111 2154 c0 -11 3 -14 6 -6 3 7 2 16 -1 19 -3 4 -6 -2 -5 -13z"/>
<path d="M3353 2124 c-3 -8 -1 -25 5 -37 10 -20 11 -18 11 16 1 39 -5 48 -16
21z"/>
<path d="M3311 2114 c0 -11 3 -14 6 -6 3 7 2 16 -1 19 -3 4 -6 -2 -5 -13z"/>
<path d="M3096 2112 c-14 -23 -25 -62 -17 -62 10 0 34 61 27 67 -2 3 -7 0 -10
-5z"/>
<path d="M3397 2113 c-4 -3 -7 -20 -6 -37 l1 -31 9 34 c10 33 8 47 -4 34z"/>
<path d="M2987 2096 c-4 -10 -5 -21 -2 -24 9 -9 17 6 13 25 -3 17 -4 17 -11
-1z"/>
<path d="M3041 2080 c-5 -16 -8 -30 -6 -30 3 0 11 14 20 30 9 17 11 30 6 30
-5 0 -14 -13 -20 -30z"/>
<path d="M3131 2079 c-13 -38 -13 -39 -2 -39 9 0 24 60 17 67 -2 2 -9 -10 -15
-28z"/>
<path d="M2820 2097 c0 -1 -4 -18 -10 -36 -5 -19 -6 -30 -1 -25 10 11 24 64
16 64 -3 0 -5 -1 -5 -3z"/>
<path d="M2776 2075 c-3 -9 -6 -22 -5 -28 0 -7 5 -1 10 12 5 13 8 26 5 28 -2
2 -6 -3 -10 -12z"/>
<path d="M2852 2060 c0 -19 2 -27 5 -17 2 9 2 25 0 35 -3 9 -5 1 -5 -18z"/>
<path d="M2746 2065 c-3 -9 -6 -22 -5 -28 0 -7 5 -1 10 12 5 13 8 26 5 28 -2
2 -6 -3 -10 -12z"/>
<path d="M3431 2048 c0 -28 2 -30 9 -13 12 28 12 45 0 45 -5 0 -10 -15 -9 -32z"/>
<path d="M3300 2028 c0 -36 12 -31 16 7 1 14 -2 25 -7 25 -5 0 -9 -14 -9 -32z"/>
<path d="M3350 2008 c0 -25 3 -29 10 -18 13 20 13 50 0 50 -5 0 -10 -15 -10
-32z"/>
<path d="M3391 2003 c0 -10 4 -27 9 -38 7 -16 9 -13 9 18 1 20 -3 37 -9 37 -5
0 -10 -8 -9 -17z"/>
<path d="M3565 2001 c-3 -5 -1 -12 5 -16 5 -3 10 1 10 9 0 18 -6 21 -15 7z"/>
<path d="M3592 1960 c0 -14 2 -19 5 -12 2 6 2 18 0 25 -3 6 -5 1 -5 -13z"/>
<path d="M3631 1918 c0 -9 -4 -25 -7 -35 -5 -14 -4 -15 5 -7 7 7 11 22 8 35
-2 13 -5 16 -6 7z"/>
<path d="M3551 1873 c1 -34 2 -35 9 -13 11 36 11 50 0 50 -5 0 -10 -17 -9 -37z"/>
<path d="M2670 1861 c-44 -14 -91 -42 -88 -52 4 -13 5 -13 78 8 33 10 60 21
60 25 0 4 -25 -2 -57 -13 -31 -10 -58 -17 -61 -15 -6 6 54 36 72 36 8 0 18 5
21 10 3 6 5 10 3 9 -2 0 -14 -4 -28 -8z"/>
<path d="M3715 1813 c4 -10 11 -34 15 -53 l8 -35 1 37 c1 42 -7 68 -21 68 -6
0 -7 -8 -3 -17z"/>
<path d="M2658 1793 c-21 -8 -38 -20 -38 -25 0 -7 5 -6 14 1 7 6 31 17 52 25
21 8 32 15 24 15 -8 0 -32 -7 -52 -16z"/>
<path d="M2870 1800 c-81 -12 -169 -51 -241 -107 -56 -43 -68 -59 -97 -127
-19 -42 -38 -105 -43 -139 -12 -84 -11 -217 1 -217 6 0 9 3 9 8 -1 4 -1 16 0
27 2 19 2 19 12 1 8 -13 8 -25 0 -43 -6 -13 -11 -36 -11 -50 0 -42 23 -143 33
-143 4 0 5 5 2 10 -3 6 -1 10 4 10 28 0 6 -78 -31 -113 -14 -14 -17 -26 -12
-55 8 -48 25 -74 69 -108 39 -30 42 -43 19 -105 -8 -24 -30 -103 -49 -175 -27
-106 -32 -138 -25 -170 10 -43 54 -89 77 -80 61 24 58 28 55 -104 l-3 -120
425 0 426 0 0 73 c0 39 -5 90 -10 112 -5 22 -16 94 -24 160 -16 122 -40 222
-58 240 -6 7 -7 0 -3 -20 4 -22 -2 -16 -24 25 -17 32 -28 65 -26 80 11 69 13
144 5 125 -5 -11 -9 -36 -9 -55 -2 -46 -21 -78 -21 -34 0 59 13 124 24 124 7
0 19 -6 28 -13 12 -10 14 -26 8 -92 -4 -44 -5 -87 -1 -95 3 -8 8 24 11 72 3
48 9 90 12 94 4 4 19 -1 33 -10 21 -14 25 -24 25 -61 0 -25 4 -45 8 -45 4 0 6
17 4 38 l-4 37 25 -23 c17 -16 28 -42 37 -85 6 -34 16 -84 21 -112 5 -27 16
-75 24 -105 15 -63 29 -157 46 -317 6 -62 16 -113 20 -113 5 0 7 10 4 23 -3
12 -14 103 -25 202 -11 99 -29 213 -40 253 -10 39 -24 109 -30 154 -6 45 -16
90 -20 99 -19 34 -110 107 -164 130 -52 22 -71 39 -45 39 6 0 41 22 78 48 36
27 82 58 102 70 44 27 131 117 153 160 23 44 20 72 -9 102 -14 15 -28 43 -32
63 -5 32 -3 37 14 37 10 0 24 -5 31 -12 50 -50 -54 119 -140 227 -57 72 -144
127 -285 181 -56 21 -88 26 -188 29 -66 2 -145 0 -175 -5z m6 -50 c9 -22 24
-56 34 -75 l18 -35 -33 0 c-18 0 -74 -15 -124 -34 -88 -33 -92 -33 -85 -13 20
66 93 168 131 184 41 17 42 17 59 -27z m236 -66 c29 -31 79 -92 111 -136 l57
-80 1 93 c1 52 4 107 8 122 6 28 6 28 51 -30 66 -84 116 -168 130 -219 24 -83
32 -50 16 64 -5 36 10 25 22 -15 12 -42 27 -171 25 -218 -1 -30 -17 -110 -33
-175 -5 -19 -21 -47 -35 -62 -33 -36 -135 -105 -192 -130 -49 -22 -206 -38
-216 -22 -3 5 -8 27 -11 49 -5 29 -4 34 3 20 7 -16 10 -16 10 -4 1 14 20 18
114 24 61 4 120 11 130 17 31 16 16 50 -33 78 -39 21 -58 24 -143 25 l-99 0 5
28 c4 30 -8 24 -16 -8 -3 -13 -5 -8 -6 13 -1 31 -38 82 -59 82 -20 0 -39 -29
-56 -82 -9 -32 -20 -58 -23 -58 -7 0 -66 18 -99 30 -13 5 -24 21 -27 39 -4 18
-13 31 -21 31 -8 0 -22 10 -30 21 -11 16 -22 20 -40 17 -24 -5 -31 2 -27 25 1
10 -7 9 -31 -4 -20 -11 -20 -10 -16 133 4 116 9 152 25 188 l21 45 1 -95 c1
-52 6 -99 11 -104 7 -7 10 4 10 32 0 51 4 53 159 98 140 41 161 42 161 12 0
-13 5 -30 10 -38 7 -10 10 25 10 110 0 68 4 120 8 115 5 -6 24 -48 42 -95 19
-47 38 -89 43 -95 7 -6 7 -3 3 10 -21 60 -44 205 -32 205 3 0 29 -25 58 -56z
m-190 -71 c30 -27 22 -48 -24 -60 -37 -10 -46 -9 -69 8 -32 23 -49 24 -75 5
-16 -12 -17 -18 -7 -34 10 -17 6 -20 -38 -34 -49 -16 -49 -16 -49 6 0 38 23
56 115 91 103 39 121 41 147 18z m-132 -58 c-7 -8 -20 -15 -29 -15 -13 1 -13
3 3 15 26 19 42 19 26 0z m26 -20 c-11 -8 -27 -15 -35 -15 -11 0 -10 4 5 15
10 8 26 14 34 14 11 0 10 -3 -4 -14z m816 -267 c25 -21 27 -43 8 -84 -19 -43
-135 -162 -146 -151 -4 4 12 25 35 46 23 21 38 41 33 42 -5 3 -5 18 0 37 6 23
14 32 30 32 21 0 21 1 3 13 -13 10 -15 16 -6 21 6 4 18 2 26 -4 9 -7 15 -8 15
-2 0 5 -7 15 -15 22 -22 19 -39 -1 -60 -68 -19 -62 -42 -98 -29 -47 15 62 35
110 56 132 25 27 29 27 50 11z m-1055 -98 c6 -27 6 -50 2 -50 -5 0 -9 10 -10
23 0 21 -1 21 -9 2 -8 -18 -9 -17 -7 5 1 14 -2 26 -8 27 -15 3 -6 -46 17 -95
25 -53 12 -78 -19 -38 -41 52 -36 176 7 176 13 0 20 -13 27 -50z m49 -37 c-11
-27 -26 -2 -25 40 l1 42 14 -34 c8 -18 13 -40 10 -48z m51 32 c-4 -8 -13 -15
-22 -15 -21 0 -19 28 3 32 22 5 26 2 19 -17z m296 -3 c10 -10 15 -21 12 -23
-2 -3 -9 -48 -15 -100 -17 -154 -31 -190 -106 -266 -74 -76 -98 -124 -143
-290 -54 -198 -69 -227 -123 -238 -23 -5 -35 -2 -54 16 -41 39 -34 98 43 352
l35 119 -50 51 c-51 52 -76 96 -64 113 4 5 16 14 27 20 11 7 19 19 17 28 -1 8
7 34 18 56 21 41 60 66 88 55 7 -3 27 4 43 16 28 19 31 20 54 5 13 -9 32 -16
42 -16 10 0 32 -9 50 -19 l31 -20 10 27 c6 15 18 51 27 80 18 55 32 63 58 34z
m-245 -29 c-2 -10 -8 -17 -13 -17 -6 1 -27 -7 -49 -18 -55 -28 -70 -8 -20 26
46 31 87 35 82 9z m-140 -59 c-4 -3 -12 5 -18 18 -12 22 -12 22 6 6 10 -10 15
-20 12 -24z m662 -20 c75 -30 50 -36 -162 -39 -27 0 -43 5 -44 13 -3 26 -6 26
-14 2 l-8 -25 -1 27 c-1 14 5 29 12 31 30 13 178 6 217 -9z m-245 -22 c0 -18
-20 -15 -23 4 -3 10 1 15 10 12 7 -3 13 -10 13 -16z m-9 -94 c-3 -13 -6 -33
-6 -45 0 -16 -4 -21 -16 -16 -9 3 -13 12 -8 22 3 9 8 25 9 36 4 26 3 25 16 25
7 0 9 -9 5 -22z m34 12 c0 -5 -2 -10 -4 -10 -3 0 -8 5 -11 10 -3 6 -1 10 4 10
6 0 11 -4 11 -10z m-10 -56 c0 -13 -4 -24 -10 -24 -5 0 -10 14 -10 31 0 17 4
28 10 24 6 -3 10 -17 10 -31z m30 -25 c0 -5 -4 -9 -10 -9 -5 0 -10 7 -10 16 0
8 5 12 10 9 6 -3 10 -10 10 -16z m151 -52 c-21 -22 -31 -27 -32 -17 -1 8 -4 0
-8 -19 -9 -51 -29 -51 -34 1 -3 40 -4 40 -5 -11 -1 -39 -5 -52 -13 -44 -5 5
-9 30 -7 54 3 39 6 45 33 52 17 5 44 15 60 22 42 17 44 0 6 -38z m-255 -23
c-5 -60 -16 -69 -16 -12 0 39 5 58 16 58 2 0 2 -21 0 -46z m370 -12 c-12 -12
-18 8 -10 35 l8 28 4 -28 c2 -16 1 -31 -2 -35z m-336 -18 c0 -41 -4 -63 -10
-59 -5 3 -10 33 -10 66 0 33 4 59 10 59 6 0 10 -29 10 -66z m40 -10 c0 -63
-12 -85 -24 -41 -8 29 -8 81 0 101 12 32 24 3 24 -60z m30 6 c0 -40 -4 -70
-10 -70 -11 0 -14 123 -3 133 12 13 13 7 13 -63z m40 11 c0 -33 -4 -63 -10
-66 -6 -4 -10 18 -10 59 0 37 4 66 10 66 6 0 10 -26 10 -59z m-170 21 c0 -5
-18 -23 -40 -41 -48 -39 -50 -36 -7 12 31 36 47 45 47 29z m-167 -257 c-3 -9
-8 -14 -10 -11 -3 3 -2 9 2 15 9 16 15 13 8 -4z m411 -24 c3 -5 -3 -11 -14
-14 -12 -3 -20 -14 -20 -26 0 -14 5 -19 15 -15 8 4 15 10 15 16 0 5 4 7 10 3
12 -8 2 -32 -17 -39 -34 -13 -59 44 -31 72 14 14 35 16 42 3z m80 -7 c19 -19
20 -25 3 -48 -11 -15 -17 -17 -35 -7 -24 13 -29 40 -10 59 16 16 23 15 42 -4z
m-208 -10 c-3 -9 -6 -24 -6 -35 0 -13 -5 -17 -17 -12 -11 4 -14 3 -9 -5 5 -8
0 -12 -13 -12 -17 0 -21 6 -21 35 0 35 13 47 24 23 4 -10 9 -8 18 5 16 21 32
22 24 1z m52 -20 c2 -24 -1 -30 -18 -30 -21 0 -23 7 -14 44 9 31 28 22 32 -14z
m-202 -10 c-9 -8 -16 -26 -16 -40 0 -13 -5 -24 -10 -24 -7 0 -8 13 -4 36 5 29
4 35 -6 29 -8 -5 -11 -3 -8 6 5 15 51 30 56 17 2 -4 -4 -15 -12 -24z m64 -1
c0 -20 -3 -33 -7 -30 -3 4 -12 2 -20 -4 -16 -14 -17 -2 -2 40 15 42 29 39 29
-6z m181 -47 c31 -6 36 -10 32 -27 -5 -19 -4 -20 17 -9 20 11 22 10 16 -5 -4
-12 0 -23 14 -32 20 -14 20 -16 4 -28 -15 -11 -16 -14 -2 -33 8 -12 18 -19 21
-15 4 3 1 13 -5 21 -10 11 -8 16 6 24 17 9 16 11 -5 34 -16 17 -18 24 -8 24
33 -1 74 -56 63 -85 -9 -23 -41 -37 -66 -29 -18 5 -20 3 -15 -14 5 -23 -7 -38
-38 -44 -11 -2 -20 -8 -20 -15 0 -21 -12 -24 -130 -28 -126 -5 -156 2 -148 35
3 11 1 20 -5 20 -14 0 -22 53 -10 68 7 8 7 16 -1 26 -9 10 -8 16 4 26 8 7 15
23 15 36 0 15 6 24 16 24 8 0 13 3 11 8 -3 4 24 8 59 10 35 1 74 7 86 12 13 4
30 7 38 5 8 -2 31 -6 51 -9z m-296 -103 c0 -16 -4 -34 -9 -41 -4 -7 -3 -19 4
-27 9 -11 7 -16 -9 -24 -16 -9 -23 -7 -35 11 -22 31 -20 64 4 88 28 28 45 25
45 -7z m280 -173 c3 -6 -1 -13 -10 -16 -13 -6 -14 -8 -3 -15 11 -7 10 -11 -2
-19 -13 -8 -12 -10 3 -10 21 0 22 -16 1 -24 -9 -3 -17 -6 -19 -6 -8 0 -16 61
-10 80 7 21 30 27 40 10z m79 -4 c13 5 16 -1 16 -29 0 -44 -14 -54 -34 -26 -8
12 -19 18 -25 14 -12 -7 -15 14 -5 39 5 12 10 14 19 6 7 -6 20 -8 29 -4z
m-298 -12 c-3 -9 -6 -31 -6 -50 0 -30 -3 -34 -25 -34 -18 0 -25 5 -25 20 0 14
5 18 17 13 14 -5 15 -1 10 30 -5 33 -3 37 15 37 14 0 18 -5 14 -16z m52 -40
c-2 -24 -8 -44 -14 -44 -12 0 -15 22 -8 68 7 48 25 28 22 -24z m45 34 l6 -21
20 24 c10 13 23 21 27 17 4 -5 0 -16 -9 -26 -13 -15 -14 -21 -4 -31 10 -11 8
-12 -10 -6 -19 5 -23 2 -23 -14 0 -25 -15 -28 -24 -5 -9 24 -7 84 3 84 5 0 11
-10 14 -22z"/>
<path d="M3272 1445 c-52 -24 -109 -47 -128 -51 -19 -3 -34 -10 -34 -15 0 -11
-2 -11 39 1 32 9 33 9 27 -18 l-7 -27 20 29 c23 35 65 61 109 70 28 5 37 1 72
-34 32 -32 40 -48 41 -77 0 -34 1 -36 10 -15 12 32 -13 85 -57 120 l-33 26 27
18 c45 30 12 19 -86 -27z"/>
<path d="M2710 1471 c0 -5 14 -14 30 -21 17 -7 30 -15 30 -19 0 -3 -16 -16
-36 -29 -19 -12 -39 -34 -44 -48 -13 -33 -13 -77 0 -69 6 3 10 20 10 36 0 39
48 89 85 89 35 0 98 -33 123 -65 23 -29 37 -33 23 -6 -8 15 -6 20 14 29 36 17
32 33 -5 21 -27 -10 -40 -5 -124 40 -100 54 -106 56 -106 42z"/>
<path d="M2967 1318 c4 -13 7 -41 7 -63 l-1 -40 13 33 c12 28 12 36 -1 62 -18
35 -30 40 -18 8z"/>
<path d="M3275 1330 c-8 -14 3 -30 21 -30 8 0 14 9 14 20 0 21 -24 28 -35 10z"/>
<path d="M2796 1314 c-11 -29 6 -42 33 -25 12 8 12 12 2 25 -17 20 -27 20 -35
0z"/>
<path d="M3180 1258 c0 -11 17 -26 41 -38 38 -20 43 -20 93 -6 29 9 60 24 70
35 15 16 11 16 -30 -5 -26 -13 -61 -24 -78 -24 -30 0 -72 21 -88 44 -5 7 -8 4
-8 -6z"/>
<path d="M2914 1249 c-11 -18 -86 -49 -120 -49 -17 0 -43 10 -58 21 -32 25
-47 18 -22 -10 39 -43 131 -34 189 19 18 16 29 30 25 30 -4 0 -10 -5 -14 -11z"/>
<path d="M3382 1189 c-13 -5 -28 -6 -34 -3 -6 4 -14 1 -18 -7 -10 -15 -38 -21
-46 -8 -3 5 -16 6 -29 3 -13 -3 -33 0 -45 6 -20 11 -40 7 -28 -5 12 -13 108
-43 108 -34 0 15 32 10 53 -8 19 -17 19 -17 13 5 -6 19 -2 25 28 37 20 9 36
17 36 20 0 7 -11 5 -38 -6z"/>
<path d="M3057 1184 c-4 -4 -4 -10 -1 -15 6 -10 34 0 34 12 0 10 -24 12 -33 3z"/>
<path d="M2850 1590 c0 -5 5 -10 10 -10 6 0 10 5 10 10 0 6 -4 10 -10 10 -5 0
-10 -4 -10 -10z"/>
<path d="M2721 1534 c0 -11 3 -14 6 -6 3 7 2 16 -1 19 -3 4 -6 -2 -5 -13z"/>
<path d="M3583 1165 c4 -8 2 -17 -3 -20 -6 -4 -10 -12 -10 -18 1 -16 30 23 30
40 0 7 -5 13 -11 13 -6 0 -9 -7 -6 -15z"/>
<path d="M3210 486 c0 -9 7 -16 16 -16 9 0 14 5 12 12 -6 18 -28 21 -28 4z"/>
<path d="M2953 367 c-40 -15 -83 -57 -57 -57 9 0 14 -6 11 -14 -4 -10 4 -12
36 -9 34 4 46 1 61 -16 13 -14 31 -21 56 -21 20 0 41 -5 48 -12 15 -15 16 -3
2 23 -11 20 3 28 15 9 12 -19 26 -10 15 10 -6 11 -8 31 -4 45 5 20 3 25 -14
25 -11 0 -36 -7 -55 -15 -47 -19 -50 -19 -42 4 4 14 0 23 -14 30 -11 6 -21 11
-23 10 -2 0 -17 -6 -35 -12z m27 -18 c0 -8 5 -8 15 1 12 10 15 10 15 -2 0 -7
-14 -22 -31 -32 -28 -17 -32 -17 -47 -2 -9 8 -12 19 -8 23 5 5 11 2 13 -4 6
-18 33 -16 33 1 0 8 -6 17 -12 19 -8 3 -6 6 5 6 9 1 17 -4 17 -10z m124 -46
c-34 -45 -51 -51 -75 -26 l-21 21 53 20 c30 11 56 18 58 16 3 -2 -4 -16 -15
-31z"/>
<path d="M2472 1770 c-23 -16 -46 -40 -53 -52 -8 -16 -1 -12 22 12 19 20 45
43 59 52 14 9 22 17 19 17 -3 1 -24 -12 -47 -29z"/>
<path d="M2514 1757 c-26 -18 -50 -40 -53 -48 -2 -7 11 0 30 16 19 17 46 38
59 47 14 9 22 17 19 17 -4 1 -28 -14 -55 -32z"/>
<path d="M2530 1715 c-24 -24 -42 -46 -39 -48 2 -2 25 18 50 45 57 61 48 64
-11 3z"/>
<path d="M2585 1722 c-26 -22 -70 -72 -64 -72 3 0 25 20 49 45 44 45 52 59 15
27z"/>
<path d="M3530 1732 c0 -4 10 -13 23 -21 22 -14 22 -14 3 8 -20 22 -26 25 -26
13z"/>
<path d="M3585 1730 c3 -5 8 -10 11 -10 2 0 4 5 4 10 0 6 -5 10 -11 10 -5 0
-7 -4 -4 -10z"/>
<path d="M3480 1703 c0 -12 38 -48 45 -41 3 2 -6 15 -20 28 -14 13 -25 19 -25
13z"/>
<path d="M3610 1701 c0 -5 18 -24 40 -41 49 -39 53 -24 5 19 -38 33 -45 36
-45 22z"/>
<path d="M3580 1674 c0 -3 15 -20 33 -38 17 -18 47 -54 65 -79 18 -26 37 -47
42 -47 13 0 -28 67 -50 83 -9 6 -23 23 -30 37 -18 34 -60 65 -60 44z"/>
<path d="M4550 1655 c7 -8 20 -15 28 -15 13 0 12 3 -4 15 -25 19 -40 19 -24 0z"/>
<path d="M3580 1628 c0 -7 5 -20 10 -28 8 -12 10 -11 10 7 0 12 -4 25 -10 28
-5 3 -10 0 -10 -7z"/>
<path d="M3700 1622 c0 -11 62 -84 67 -78 7 6 -46 86 -57 86 -6 0 -10 -3 -10
-8z"/>
<path d="M3770 1612 c0 -5 7 -15 15 -22 8 -7 15 -8 15 -2 0 5 -7 15 -15 22 -8
7 -15 8 -15 2z"/>
<path d="M4783 1613 c-16 -6 -17 -33 -3 -33 11 0 26 28 19 34 -2 2 -10 1 -16
-1z"/>
<path d="M4445 1555 c0 -25 2 -45 6 -45 9 0 18 61 12 78 -10 25 -18 11 -18
-33z"/>
<path d="M3620 1569 c1 -14 60 -89 60 -76 0 14 -29 63 -44 76 -13 11 -16 11
-16 0z"/>
<path d="M3580 1552 c0 -12 51 -84 56 -79 8 7 -28 76 -43 81 -7 3 -13 2 -13
-2z"/>
<path d="M3810 1534 c0 -4 9 -21 19 -38 27 -44 61 -165 61 -217 0 -74 -52
-189 -85 -189 -7 0 -24 -9 -38 -20 -14 -11 -37 -20 -51 -20 -16 0 -29 -7 -33
-17 -9 -26 -23 -32 -53 -26 -17 3 -31 -1 -39 -11 -19 -23 -99 -56 -145 -61
-22 -3 -44 -9 -50 -15 -17 -17 84 0 126 21 21 11 44 19 52 19 7 0 16 7 20 15
3 10 19 15 46 15 33 0 42 4 52 25 7 16 19 25 33 25 29 0 111 46 130 73 32 46
58 147 52 206 -10 90 -62 221 -88 221 -5 0 -9 -3 -9 -6z"/>
<path d="M4680 1480 c0 -5 5 -10 11 -10 5 0 7 5 4 10 -3 6 -8 10 -11 10 -2 0
-4 -4 -4 -10z"/>
<path d="M4525 1450 c-3 -5 -2 -10 4 -10 5 0 13 5 16 10 3 6 2 10 -4 10 -5 0
-13 -4 -16 -10z"/>
<path d="M4720 1439 c0 -5 5 -7 10 -4 6 3 10 8 10 11 0 2 -4 4 -10 4 -5 0 -10
-5 -10 -11z"/>
<path d="M4280 1430 c20 -13 33 -13 25 0 -3 6 -14 10 -23 10 -15 0 -15 -2 -2
-10z"/>
<path d="M2350 1376 c0 -58 7 -86 21 -86 4 0 3 14 -3 30 -5 17 -8 48 -6 70 2
22 0 40 -4 40 -5 0 -8 -24 -8 -54z"/>
<path d="M2396 1404 c-9 -23 -7 -54 2 -54 5 0 9 16 10 35 1 38 -2 44 -12 19z"/>
<path d="M2241 1379 c0 -20 4 -51 10 -70 6 -19 13 -40 15 -48 3 -8 7 -12 9 -9
3 2 -2 27 -9 54 -8 27 -17 63 -19 79 -4 28 -4 28 -6 -6z"/>
<path d="M2295 1368 c4 -24 14 -56 21 -73 11 -24 13 -25 8 -5 -4 14 -9 46 -11
73 -3 26 -9 47 -15 47 -6 0 -7 -16 -3 -42z"/>
<path d="M4290 1390 c0 -5 5 -10 11 -10 5 0 7 5 4 10 -3 6 -8 10 -11 10 -2 0
-4 -4 -4 -10z"/>
<path d="M2447 1383 c-4 -3 -7 -18 -6 -32 1 -26 1 -25 10 3 9 31 7 41 -4 29z"/>
<path d="M4170 1386 c0 -2 7 -6 15 -10 8 -3 15 -1 15 4 0 6 -7 10 -15 10 -8 0
-15 -2 -15 -4z"/>
<path d="M3762 1278 c-1 -38 1 -49 8 -38 12 19 13 90 1 90 -4 0 -9 -24 -9 -52z"/>
<path d="M3800 1297 c0 -47 -27 -121 -56 -152 -14 -15 -23 -29 -21 -32 9 -8
49 42 67 82 24 55 34 121 21 130 -7 4 -11 -6 -11 -28z"/>
<path d="M3716 1283 c9 -52 14 -54 14 -5 0 23 -5 42 -10 42 -7 0 -8 -14 -4
-37z"/>
<path d="M2421 1292 c-1 -28 16 -62 31 -62 7 0 7 5 -1 14 -7 8 -16 27 -21 43
-7 25 -8 26 -9 5z"/>
<path d="M3676 1283 c10 -40 14 -41 14 -5 0 18 -5 32 -10 32 -6 0 -8 -11 -4
-27z"/>
<path d="M3842 1265 c0 -16 2 -22 5 -12 2 9 2 23 0 30 -3 6 -5 -1 -5 -18z"/>
<path d="M2360 1272 c0 -17 37 -89 50 -97 13 -8 13 8 0 21 -5 5 -19 27 -29 49
-11 22 -20 34 -21 27z"/>
<path d="M2321 1247 c-1 -15 27 -62 48 -81 28 -25 27 -11 -1 24 -13 15 -28 36
-35 46 -6 11 -12 15 -12 11z"/>
<path d="M2270 1235 c0 -17 43 -87 61 -98 11 -6 31 -29 46 -49 14 -21 30 -38
35 -38 11 0 -49 78 -79 103 -12 9 -28 33 -34 52 -11 30 -29 48 -29 30z"/>
<path d="M3684 1188 c-14 -31 -15 -43 -6 -46 17 -5 5 -22 -17 -22 -10 0 -26
-10 -37 -22 l-19 -22 27 17 c15 9 33 17 41 17 17 0 50 36 71 78 23 45 11 40
-19 -8 -33 -52 -52 -43 -25 11 11 21 16 39 12 39 -5 0 -17 -19 -28 -42z"/>
<path d="M3772 1128 c-19 -16 -40 -27 -48 -24 -13 5 -109 -43 -100 -51 2 -2
22 5 45 16 22 12 48 21 58 21 20 0 91 55 83 63 -3 3 -20 -8 -38 -25z"/>
<path d="M2410 1142 c0 -18 64 -82 82 -82 7 0 2 9 -12 20 -14 10 -35 31 -47
47 -13 15 -23 22 -23 15z"/>
<path d="M2391 1129 c-1 -20 36 -69 52 -69 6 0 -1 12 -15 28 -14 15 -28 34
-31 42 -5 13 -6 12 -6 -1z"/>
<path d="M4807 1053 c-4 -3 -7 -11 -7 -17 0 -6 5 -5 12 2 6 6 9 14 7 17 -3 3
-9 2 -12 -2z"/>
<path d="M2480 1029 c17 -14 26 -17 28 -9 5 14 -16 30 -38 30 -10 -1 -7 -7 10
-21z"/>
<path d="M2430 1033 c0 -10 62 -63 74 -63 5 0 -5 16 -24 35 -32 33 -50 43 -50
28z"/>
<path d="M4970 995 c-13 -14 -19 -25 -13 -25 12 0 48 38 41 45 -2 3 -15 -6
-28 -20z"/>
<path d="M4548 832 c-9 -14 -31 -22 -71 -27 -31 -4 -60 -12 -64 -18 -4 -6 0
-8 10 -4 14 5 17 0 17 -33 0 -55 16 -58 29 -5 l11 45 53 0 c28 0 62 3 75 6 18
5 22 2 22 -15 0 -19 -5 -21 -70 -21 -90 0 -92 -18 -2 -22 64 -3 66 -4 38 -16
-16 -7 -49 -13 -73 -14 -45 -1 -57 -12 -22 -21 36 -9 16 -32 -25 -29 -44 4
-49 -15 -4 -20 17 -2 33 -8 35 -15 5 -14 -68 -27 -99 -18 -19 6 -21 5 -10 -6
7 -8 33 -14 58 -14 24 0 44 -3 44 -6 0 -9 -55 -59 -66 -59 -5 0 -20 -9 -33
-19 -17 -13 -20 -20 -11 -26 6 -4 17 -2 23 4 6 6 28 11 48 11 21 0 40 4 43 9
8 12 -22 23 -37 14 -7 -4 4 12 23 34 32 37 40 41 100 48 86 9 100 13 100 32 0
11 -4 13 -12 5 -7 -5 -30 -12 -50 -14 -30 -3 -38 -1 -38 12 0 9 12 21 28 28
27 11 27 11 2 9 -19 -2 -26 3 -28 21 -3 16 2 22 16 22 23 0 58 60 49 85 -6 14
-17 16 -57 13 -52 -3 -58 0 -38 20 6 6 9 14 6 17 -3 4 -12 -3 -20 -13z m22
-151 c0 -12 -20 -25 -27 -18 -7 7 6 27 18 27 5 0 9 -4 9 -9z m-10 -56 c0 -8
-7 -15 -15 -15 -16 0 -20 12 -8 23 11 12 23 8 23 -8z"/>
<path d="M3416 725 c-4 -26 -3 -52 3 -62 8 -14 10 -3 11 45 0 34 -2 62 -4 62
-2 0 -7 -20 -10 -45z"/>
<path d="M4930 754 c0 -16 60 -77 68 -69 3 2 -12 23 -32 45 -22 25 -36 34 -36
24z"/>
<path d="M4373 675 c0 -22 2 -30 4 -17 2 12 2 30 0 40 -3 9 -5 -1 -4 -23z"/>
<path d="M4850 682 c0 -12 82 -62 101 -62 10 0 24 -3 33 -6 9 -3 16 -2 16 4 0
5 -15 13 -34 16 -19 4 -50 18 -70 31 -40 27 -46 29 -46 17z"/>
<path d="M4580 580 c0 -5 11 -17 25 -26 31 -20 31 -27 3 -39 -20 -9 -24 -6
-33 19 -16 46 -32 43 -31 -6 l1 -42 -60 -25 c-71 -29 -70 -29 -61 -38 3 -4 19
1 35 10 15 9 40 21 55 27 24 9 28 7 37 -18 12 -28 13 -26 23 19 7 31 68 59
131 60 l40 0 -52 18 c-29 10 -58 22 -65 28 -21 16 -48 23 -48 13z"/>
<path d="M4920 569 c0 -5 19 -9 42 -9 49 0 47 5 -4 13 -21 3 -38 2 -38 -4z"/>
<path d="M4830 538 c-32 -17 -44 -27 -29 -24 31 7 122 56 99 54 -8 0 -40 -14
-70 -30z"/>
<path d="M4892 510 c-23 -17 -42 -33 -42 -36 0 -3 13 4 29 16 16 11 45 27 63
35 25 11 28 14 12 15 -12 0 -40 -14 -62 -30z"/>
<path d="M4953 487 c-24 -17 -41 -33 -38 -35 3 -4 40 20 84 55 2 2 2 5 0 6 -2
2 -23 -10 -46 -26z"/>
<path d="M4610 471 c0 -10 80 -21 94 -13 4 2 2 8 -5 13 -18 11 -89 11 -89 0z"/>
<path d="M4533 351 c5 -26 3 -31 -25 -40 -17 -6 -51 -11 -76 -11 -40 0 -43 -2
-31 -16 10 -12 24 -15 61 -10 27 4 55 9 63 12 23 9 19 -38 -5 -69 -24 -30 -26
-47 -6 -47 13 0 52 70 70 123 4 12 16 17 46 17 39 0 40 -1 34 -27 -4 -16 -13
-40 -20 -55 -22 -43 -16 -56 11 -23 36 43 62 97 57 119 -4 17 -11 18 -67 12
-59 -6 -63 -5 -79 19 -23 34 -40 32 -33 -4z"/>
<path d="M4965 190 c-3 -5 -2 -10 4 -10 5 0 13 5 16 10 3 6 2 10 -4 10 -5 0
-13 -4 -16 -10z"/>
<path d="M4934 155 c-16 -12 -16 -14 -3 -15 9 0 22 7 29 15 16 19 0 19 -26 0z"/>
<path d="M4971 129 c-13 -10 -35 -19 -50 -19 -15 0 -56 -12 -92 -26 -35 -15
-75 -30 -88 -35 -13 -5 -22 -12 -19 -14 3 -3 34 7 69 21 117 48 135 50 104 8
-8 -10 -15 -27 -15 -36 0 -10 -5 -18 -11 -18 -5 0 -8 3 -6 8 6 8 -225 4 -297
-6 -27 -4 59 -8 194 -8 144 -1 237 2 229 7 -8 5 -25 9 -39 9 -15 0 -31 5 -37
11 -17 17 11 67 42 75 23 6 52 31 44 38 -2 3 -15 -4 -28 -15z"/>
</g>
</svg>
